<svg width="12" height="12" viewBox="0 0 12 12" fill="none" xmlns="http://www.w3.org/2000/svg">
<path fill-rule="evenodd" clip-rule="evenodd" d="M3.81537 4.36036C3.81537 5.56436 4.79154 6.54054 5.99555 6.54054C7.19955 6.54054 8.17573 5.56436 8.17573 4.36036C8.17573 3.15635 7.19955 2.18018 5.99555 2.18018C4.79154 2.18018 3.81537 3.15635 3.81537 4.36036ZM4.90546 4.36036C4.90546 4.96263 5.39327 5.45045 5.99555 5.45045C6.59782 5.45045 7.08564 4.96263 7.08564 4.36036C7.08564 3.75808 6.59782 3.27027 5.99555 3.27027C5.39327 3.27027 4.90546 3.75808 4.90546 4.36036Z" fill="#0F56B3"/>
<path fill-rule="evenodd" clip-rule="evenodd" d="M5.9955 0C9.30664 0 11.991 2.68435 11.991 5.9955C11.991 9.30664 9.30664 11.991 5.9955 11.991C2.68435 11.991 0 9.30664 0 5.9955C0 2.68435 2.68435 0 5.9955 0ZM10.9009 5.9955C10.9009 7.13464 10.5123 8.1833 9.86095 9.01613C8.9649 7.84265 7.55106 7.08559 5.96061 7.08559C4.39034 7.08559 2.99284 7.82304 2.09515 8.97036C1.46453 8.14516 1.09009 7.11393 1.09009 5.9955C1.09009 3.28608 3.28608 1.09009 5.9955 1.09009C8.70491 1.09009 10.9009 3.28608 10.9009 5.9955ZM5.9955 10.9009C7.16734 10.9009 8.24326 10.4899 9.08699 9.80426C8.39696 8.81936 7.25401 8.17568 5.96061 8.17568C4.68303 8.17568 3.55206 8.80358 2.85931 9.76776C3.70958 10.4752 4.80294 10.9009 5.9955 10.9009Z" fill="#0F56B3"/>
</svg>
