<svg width="14" height="14" viewBox="0 0 14 14" fill="none" xmlns="http://www.w3.org/2000/svg">
<path fill-rule="evenodd" clip-rule="evenodd" d="M4.41449 5.04516C4.41449 6.43832 5.54398 7.56774 6.93707 7.56774C8.33017 7.56774 9.45965 6.43832 9.45965 5.04516C9.45965 3.65201 8.33017 2.52258 6.93707 2.52258C5.54398 2.52258 4.41449 3.65201 4.41449 5.04516ZM5.67578 5.04516C5.67578 5.74177 6.24021 6.30645 6.93707 6.30645C7.63393 6.30645 8.19836 5.74177 8.19836 5.04516C8.19836 4.34855 7.63393 3.78387 6.93707 3.78387C6.24021 3.78387 5.67578 4.34855 5.67578 5.04516Z" fill="#9E47B6"/>
<path fill-rule="evenodd" clip-rule="evenodd" d="M6.9371 0C10.7683 0 13.8742 3.10586 13.8742 6.9371C13.8742 10.7683 10.7683 13.8742 6.9371 13.8742C3.10593 13.8742 0 10.7683 0 6.9371C0 3.10586 3.10593 0 6.9371 0ZM12.6129 6.9371C12.6129 8.25527 12.1632 9.4685 11.4096 10.4319C10.3728 9.07429 8.73694 8.19839 6.89672 8.19839C5.07983 8.19839 3.46287 9.05171 2.4242 10.3793C1.69454 9.42455 1.26129 8.23143 1.26129 6.9371C1.26129 3.80241 3.80216 1.26129 6.9371 1.26129C10.072 1.26129 12.6129 3.80241 12.6129 6.9371ZM6.9371 12.6129C8.29298 12.6129 9.53787 12.1373 10.5141 11.3439C9.71572 10.2046 8.39324 9.45968 6.89672 9.45968C5.41849 9.45968 4.1099 10.1862 3.30835 11.3017C4.29215 12.1204 5.55724 12.6129 6.9371 12.6129Z" fill="#9E47B6"/>
</svg>
