<svg width="15" height="15" viewBox="0 0 15 15" fill="none" xmlns="http://www.w3.org/2000/svg">
<path fill-rule="evenodd" clip-rule="evenodd" d="M4.88696 5.54052C4.88696 6.93368 6.01645 8.06311 7.40954 8.06311C8.80264 8.06311 9.93212 6.93368 9.93212 5.54052C9.93212 4.14737 8.80264 3.01794 7.40954 3.01794C6.01645 3.01794 4.88696 4.14737 4.88696 5.54052ZM6.14825 5.54052C6.14825 6.23714 6.71268 6.80181 7.40954 6.80181C8.10641 6.80181 8.67083 6.23714 8.67083 5.54052C8.67083 4.84391 8.10641 4.27923 7.40954 4.27923C6.71268 4.27923 6.14825 4.84391 6.14825 5.54052Z" fill="#414141"/>
<path fill-rule="evenodd" clip-rule="evenodd" d="M7.40957 0.495361C11.2407 0.495361 14.3467 3.60123 14.3467 7.43246C14.3467 11.2637 11.2407 14.3696 7.40957 14.3696C3.5784 14.3696 0.472473 11.2637 0.472473 7.43246C0.472473 3.60123 3.5784 0.495361 7.40957 0.495361ZM13.0854 7.43246C13.0854 8.75063 12.6357 9.96386 11.8821 10.9273C10.8453 9.56965 9.20941 8.69375 7.36919 8.69375C5.5523 8.69375 3.93534 9.54707 2.89667 10.8747C2.16701 9.91991 1.73376 8.72679 1.73376 7.43246C1.73376 4.29777 4.27463 1.75665 7.40957 1.75665C10.5445 1.75665 13.0854 4.29777 13.0854 7.43246ZM7.40957 13.1083C8.76546 13.1083 10.0103 12.6327 10.9866 11.8393C10.1882 10.7 8.86571 9.95504 7.36919 9.95504C5.89096 9.95504 4.58237 10.6816 3.78082 11.7971C4.76463 12.6158 6.02972 13.1083 7.40957 13.1083Z" fill="#414141"/>
</svg>
