<svg width="42" height="44" viewBox="0 0 42 44" fill="none" xmlns="http://www.w3.org/2000/svg">
<circle cx="21" cy="22" r="21" fill="white"/>
<path d="M7.254 21.624C7.254 18.9893 7.824 16.646 8.964 14.594C10.104 12.5167 11.6873 10.908 13.714 9.768C15.766 8.60267 18.084 8.02 20.668 8.02C23.8347 8.02 26.5453 8.856 28.8 10.528C31.0547 12.2 32.562 14.48 33.322 17.368H26.178C25.646 16.2533 24.886 15.4047 23.898 14.822C22.9353 14.2393 21.8333 13.948 20.592 13.948C18.5907 13.948 16.9693 14.6447 15.728 16.038C14.4867 17.4313 13.866 19.2933 13.866 21.624C13.866 23.9547 14.4867 25.8167 15.728 27.21C16.9693 28.6033 18.5907 29.3 20.592 29.3C21.8333 29.3 22.9353 29.0087 23.898 28.426C24.886 27.8433 25.646 26.9947 26.178 25.88H33.322C32.562 28.768 31.0547 31.048 28.8 32.72C26.5453 34.3667 23.8347 35.19 20.668 35.19C18.084 35.19 15.766 34.62 13.714 33.48C11.6873 32.3147 10.104 30.706 8.964 28.654C7.824 26.602 7.254 24.2587 7.254 21.624Z" fill="black"/>
</svg>
