<svg width="10" height="10" viewBox="0 0 10 10" fill="none" xmlns="http://www.w3.org/2000/svg">
<path d="M2.77021 1.78379C2.77021 2.38606 2.28239 2.87388 1.68012 2.87388C1.07784 2.87388 0.590027 2.38606 0.590027 1.78379C0.590027 1.18151 1.07784 0.693695 1.68012 0.693695C2.28239 0.693695 2.77021 1.18151 2.77021 1.78379Z" fill="#818181"/>
<path d="M2.77021 5.05405C2.77021 5.65632 2.28239 6.14414 1.68012 6.14414C1.07784 6.14414 0.590027 5.65632 0.590027 5.05405C0.590027 4.45177 1.07784 3.96396 1.68012 3.96396C2.28239 3.96396 2.77021 4.45177 2.77021 5.05405Z" fill="#818181"/>
<path d="M1.68012 9.41443C2.28239 9.41443 2.77021 8.92662 2.77021 8.32434C2.77021 7.72207 2.28239 7.23425 1.68012 7.23425C1.07784 7.23425 0.590027 7.72207 0.590027 8.32434C0.590027 8.92662 1.07784 9.41443 1.68012 9.41443Z" fill="#818181"/>
<path d="M6.04053 1.78379C6.04053 2.38606 5.55272 2.87388 4.95044 2.87388C4.34817 2.87388 3.86035 2.38606 3.86035 1.78379C3.86035 1.18151 4.34817 0.693695 4.95044 0.693695C5.55272 0.693695 6.04053 1.18151 6.04053 1.78379Z" fill="#818181"/>
<path d="M4.95044 6.14414C5.55272 6.14414 6.04053 5.65632 6.04053 5.05405C6.04053 4.45177 5.55272 3.96396 4.95044 3.96396C4.34817 3.96396 3.86035 4.45177 3.86035 5.05405C3.86035 5.65632 4.34817 6.14414 4.95044 6.14414Z" fill="#818181"/>
<path d="M6.04053 8.32434C6.04053 8.92662 5.55272 9.41443 4.95044 9.41443C4.34817 9.41443 3.86035 8.92662 3.86035 8.32434C3.86035 7.72207 4.34817 7.23425 4.95044 7.23425C5.55272 7.23425 6.04053 7.72207 6.04053 8.32434Z" fill="#818181"/>
<path d="M8.22071 2.87388C8.82298 2.87388 9.3108 2.38606 9.3108 1.78379C9.3108 1.18151 8.82298 0.693695 8.22071 0.693695C7.61843 0.693695 7.13062 1.18151 7.13062 1.78379C7.13062 2.38606 7.61843 2.87388 8.22071 2.87388Z" fill="#818181"/>
<path d="M9.3108 5.05405C9.3108 5.65632 8.82298 6.14414 8.22071 6.14414C7.61843 6.14414 7.13062 5.65632 7.13062 5.05405C7.13062 4.45177 7.61843 3.96396 8.22071 3.96396C8.82298 3.96396 9.3108 4.45177 9.3108 5.05405Z" fill="#818181"/>
<path d="M8.22071 9.41443C8.82298 9.41443 9.3108 8.92662 9.3108 8.32434C9.3108 7.72207 8.82298 7.23425 8.22071 7.23425C7.61843 7.23425 7.13062 7.72207 7.13062 8.32434C7.13062 8.92662 7.61843 9.41443 8.22071 9.41443Z" fill="#818181"/>
</svg>
