<svg width="9" height="9" viewBox="0 0 9 9" fill="none" xmlns="http://www.w3.org/2000/svg">
<path d="M2.18018 1.09009C2.18018 1.69236 1.69236 2.18018 1.09009 2.18018C0.487815 2.18018 0 1.69236 0 1.09009C0 0.487815 0.487815 0 1.09009 0C1.69236 0 2.18018 0.487815 2.18018 1.09009Z" fill="black"/>
<path d="M2.18018 4.36035C2.18018 4.96263 1.69236 5.45044 1.09009 5.45044C0.487815 5.45044 0 4.96263 0 4.36035C0 3.75808 0.487815 3.27026 1.09009 3.27026C1.69236 3.27026 2.18018 3.75808 2.18018 4.36035Z" fill="black"/>
<path d="M1.09009 8.72074C1.69236 8.72074 2.18018 8.23292 2.18018 7.63065C2.18018 7.02837 1.69236 6.54056 1.09009 6.54056C0.487815 6.54056 0 7.02837 0 7.63065C0 8.23292 0.487815 8.72074 1.09009 8.72074Z" fill="black"/>
<path d="M5.4505 1.09009C5.4505 1.69236 4.96269 2.18018 4.36041 2.18018C3.75814 2.18018 3.27032 1.69236 3.27032 1.09009C3.27032 0.487815 3.75814 0 4.36041 0C4.96269 0 5.4505 0.487815 5.4505 1.09009Z" fill="black"/>
<path d="M4.36041 5.45044C4.96269 5.45044 5.4505 4.96263 5.4505 4.36035C5.4505 3.75808 4.96269 3.27026 4.36041 3.27026C3.75814 3.27026 3.27032 3.75808 3.27032 4.36035C3.27032 4.96263 3.75814 5.45044 4.36041 5.45044Z" fill="black"/>
<path d="M5.4505 7.63065C5.4505 8.23292 4.96269 8.72074 4.36041 8.72074C3.75814 8.72074 3.27032 8.23292 3.27032 7.63065C3.27032 7.02837 3.75814 6.54056 4.36041 6.54056C4.96269 6.54056 5.4505 7.02837 5.4505 7.63065Z" fill="black"/>
<path d="M7.63068 2.18018C8.23295 2.18018 8.72077 1.69236 8.72077 1.09009C8.72077 0.487815 8.23295 0 7.63068 0C7.0284 0 6.54059 0.487815 6.54059 1.09009C6.54059 1.69236 7.0284 2.18018 7.63068 2.18018Z" fill="black"/>
<path d="M8.72077 4.36035C8.72077 4.96263 8.23295 5.45044 7.63068 5.45044C7.0284 5.45044 6.54059 4.96263 6.54059 4.36035C6.54059 3.75808 7.0284 3.27026 7.63068 3.27026C8.23295 3.27026 8.72077 3.75808 8.72077 4.36035Z" fill="black"/>
<path d="M7.63068 8.72074C8.23295 8.72074 8.72077 8.23292 8.72077 7.63065C8.72077 7.02837 8.23295 6.54056 7.63068 6.54056C7.0284 6.54056 6.54059 7.02837 6.54059 7.63065C6.54059 8.23292 7.0284 8.72074 7.63068 8.72074Z" fill="black"/>
</svg>
