<svg width="30" height="30" viewBox="0 0 30 30" fill="none" xmlns="http://www.w3.org/2000/svg">
<path d="M12.1758 1.21468C6.70018 2.28812 2.29101 6.70257 1.21874 12.1776C-0.40079 20.4334 5.2412 27.7752 12.8848 28.8826C13.9986 29.0519 15.0041 28.1643 15.0041 27.0375L15.0041 26.9987C15.0041 26.0764 14.3338 25.3065 13.4314 25.1682C8.48906 24.4077 4.68925 20.1215 4.68925 14.9612C4.68925 8.93188 9.88124 4.09204 16.0213 4.68383C21.385 5.2035 25.3142 10.0305 25.3142 15.4182V16.3651C25.3142 17.6594 24.2631 18.7118 22.9705 18.7118C21.6779 18.7118 20.6262 17.6594 20.6262 16.3651V9.32797C20.6262 8.80959 20.2066 8.3893 19.6881 8.3893L17.8142 8.38951C17.3866 8.38951 17.0408 8.68201 16.9283 9.07389C15.4723 8.36197 13.7502 8.11412 11.8857 8.77471C9.61523 9.5792 7.89433 11.6405 7.56621 14.027C7.01056 18.0706 10.1332 21.527 14.0643 21.527C15.6135 21.527 17.0191 20.9678 18.1418 20.0692C19.548 21.9032 21.9639 22.9222 24.5519 22.2659C27.2578 21.6387 29.0625 18.9903 29.0097 16.2422V15.0176C29.0097 6.27542 21.164 -0.546767 12.1758 1.21468ZM14.0098 17.8301C12.4588 17.8301 11.1973 16.5668 11.1973 15.0147C11.1973 13.4625 12.4588 12.1992 14.0098 12.1992C15.5607 12.1992 16.8223 13.4625 16.8223 15.0147C16.8223 16.5668 15.6152 17.8301 14.0098 17.8301Z" fill="#1B1840"/>
</svg>
