<svg width="60" height="60" viewBox="0 0 60 60" fill="none" xmlns="http://www.w3.org/2000/svg">
<path d="M0 18C0 8.05888 8.05888 0 18 0H42C51.9411 0 60 8.05888 60 18V42C60 51.9411 51.9411 60 42 60H18C8.05888 60 0 51.9411 0 42V18Z" fill="#F1F1F1"/>
<rect x="2" y="2" width="56" height="56" rx="15" fill="white"/>
<g clip-path="url(#clip0_94_265)">
<path d="M26.9857 31.5679C27.6954 31.9944 28.4318 32.375 29.1903 32.7072C31.335 33.707 33.0981 34.5302 33.477 37.8997C33.5283 38.4967 33.5283 39.0971 33.477 39.6941C33.477 39.7853 33.477 39.8821 33.457 40.11L33.2292 44.8951C35.2913 44.8951 37.2823 44.9607 39.0369 45.066C39.4328 44.9749 39.991 44.7812 40.5806 44.6331L35.9721 27.455L35.2913 27.7227L35.0378 27.8138C33.5596 28.3379 32.4886 28.7168 30.6144 28.2553C30.6013 28.2581 30.5877 28.2581 30.5745 28.2553C29.2643 27.7483 28.5807 27.042 27.9228 26.3498L27.8174 26.2416L26.9629 31.5765L26.9857 31.5679ZM17.7372 20.4054L20.1184 20.5763C20.7223 20.619 21.1125 21.3282 21.0042 21.9805L19.7196 29.7421C19.6171 30.3659 16.6064 30.8815 15.9029 31.0581C15.3162 31.2119 14.906 30.3061 15.0199 29.6595L16.4583 21.3767C16.5075 21.0822 16.6673 20.8177 16.905 20.6372C17.1427 20.4566 17.4404 20.3737 17.7372 20.4054ZM29.4153 44.9493C29.4523 43.0779 29.515 41.8361 29.6204 39.8223V39.5175C29.645 39.1925 29.6517 38.8663 29.6403 38.5406C29.6282 38.2576 29.5635 37.9795 29.4495 37.7203L29.4409 37.6348C29.307 37.35 29.1846 37.0651 29.0023 36.9882C28.4774 36.7583 27.9401 36.5576 27.393 36.3872C26.6353 36.1394 25.7922 35.8859 25.046 35.6752C24.4991 37.4952 23.7557 39.6856 22.9753 41.7705C22.3657 43.3656 21.5511 44.3767 20.9074 45.4733C23.3085 45.1885 26.3363 45.0119 29.4523 44.9379L29.4153 44.9493ZM16.4242 46.4475C17.122 44.7385 18.398 42.6364 19.1842 40.3834C19.9931 38.0677 20.7678 35.7065 21.3375 33.8095C20.9801 33.3878 20.682 32.9192 20.4517 32.4167C20.1873 31.8428 20.1039 31.202 20.2124 30.5795L21.2663 24.9427C21.6821 21.9122 21.7619 20.2772 24.9691 20.4908C27.9968 20.6874 29.4153 22.2824 30.5147 23.5186C31.0018 24.0655 31.4233 24.5383 31.8762 24.7548C32.0898 24.8573 32.4288 24.7149 32.8105 24.5525C33.0501 24.4422 33.2965 24.347 33.5482 24.2677L33.8786 24.1424L34.0694 24.0712L34.9638 23.7151L34.5964 22.3394C34.5442 22.0958 34.5877 21.8415 34.7177 21.629C34.8478 21.4165 35.0545 21.2622 35.2951 21.1978C35.5358 21.1334 35.792 21.164 36.0107 21.2832C36.2295 21.4023 36.3941 21.601 36.4705 21.8381L36.781 22.9945L36.8237 22.9774C37.0209 22.921 37.2278 22.9074 37.4307 22.9373C37.6335 22.9673 37.8277 23.0402 38.0001 23.1512C38.2779 23.3192 38.5121 23.5505 38.6837 23.8262C38.8715 24.1268 38.9703 24.4744 38.9685 24.8288C38.9486 25.1607 38.8627 25.4852 38.716 25.7835C38.5693 26.0818 38.3647 26.3479 38.114 26.5663C38.0889 26.5906 38.0587 26.609 38.0257 26.6204L37.758 26.7258L42.5431 44.4707C42.7925 44.514 43.0224 44.6334 43.2011 44.8125C43.519 45.1633 43.776 45.5648 43.9616 46.0003L44.0983 47.0029H15.9001C15.9001 46.8035 16.0909 46.6184 16.427 46.4503L16.4242 46.4475ZM25.2197 12.1966C26.0142 11.9259 26.878 11.939 27.6639 12.2337C28.4499 12.5283 29.1094 13.0863 29.5301 13.8127C29.9507 14.539 30.1066 15.3887 29.9712 16.217C29.8357 17.0454 29.4173 17.8012 28.7872 18.3556C28.157 18.9101 27.3542 19.229 26.5153 19.258C25.6765 19.287 24.8535 19.0243 24.1866 18.5146C23.5197 18.0049 23.0501 17.2798 22.8578 16.4628C22.6655 15.6458 22.7624 14.7874 23.1319 14.0337C23.3415 13.6049 23.6339 13.2218 23.9922 12.9065C24.3505 12.5912 24.7677 12.3499 25.2197 12.1966Z" fill="#C1C5CF"/>
</g>
<defs>
<clipPath id="clip0_94_265">
<rect width="29.0983" height="35" fill="white" transform="translate(15 12)"/>
</clipPath>
</defs>
</svg>
