<svg width="80" height="80" viewBox="0 0 80 80" fill="none" xmlns="http://www.w3.org/2000/svg">
<path d="M35.2049 46.0445C34.0334 47.216 32.1339 47.216 30.9623 46.0445L25.1257 40.2078C24.1821 39.2642 22.6522 39.2642 21.7086 40.2078V40.2078C20.7649 41.1514 20.7649 42.6813 21.7086 43.6249L30.9623 52.8787C32.1339 54.0503 34.0334 54.0503 35.2049 52.8787L57.9579 30.1257C58.9016 29.1821 58.9016 27.6522 57.9579 26.7086V26.7086C57.0143 25.7649 55.4844 25.7649 54.5408 26.7086L35.2049 46.0445Z" fill="#666666"/>
<path d="M80 40C80 62.0914 62.0914 80 40 80C17.9086 80 0 62.0914 0 40C0 17.9086 17.9086 0 40 0C62.0914 0 80 17.9086 80 40ZM3.26064 40C3.26064 60.2906 19.7094 76.7394 40 76.7394C60.2906 76.7394 76.7394 60.2906 76.7394 40C76.7394 19.7094 60.2906 3.26064 40 3.26064C19.7094 3.26064 3.26064 19.7094 3.26064 40Z" fill="#666666"/>
</svg>
