<svg width="28" height="37" viewBox="0 0 28 37" fill="none" xmlns="http://www.w3.org/2000/svg">
<g clip-path="url(#clip0_872_6)">
<path d="M24.2812 0C26.1963 0 27.75 1.55299 27.75 3.46875V33.5312C27.75 35.4463 26.1963 37 24.2812 37H17.3438V31.2188C17.3438 29.3037 15.79 27.75 13.875 27.75C11.96 27.75 10.4062 29.3037 10.4062 31.2188V37H3.46875C1.55299 37 0 35.4463 0 33.5312V3.46875C0 1.55299 1.55299 0 3.46875 0H24.2812ZM4.625 19.6562C4.625 20.2922 5.14242 20.8125 5.78125 20.8125H8.09375C8.72969 20.8125 9.25 20.2922 9.25 19.6562V17.3438C9.25 16.7078 8.72969 16.1875 8.09375 16.1875H5.78125C5.14242 16.1875 4.625 16.7078 4.625 17.3438V19.6562ZM12.7188 16.1875C12.0828 16.1875 11.5625 16.7078 11.5625 17.3438V19.6562C11.5625 20.2922 12.0828 20.8125 12.7188 20.8125H15.0312C15.6672 20.8125 16.1875 20.2922 16.1875 19.6562V17.3438C16.1875 16.7078 15.6672 16.1875 15.0312 16.1875H12.7188ZM18.5 19.6562C18.5 20.2922 19.0203 20.8125 19.6562 20.8125H21.9688C22.6047 20.8125 23.125 20.2922 23.125 19.6562V17.3438C23.125 16.7078 22.6047 16.1875 21.9688 16.1875H19.6562C19.0203 16.1875 18.5 16.7078 18.5 17.3438V19.6562ZM5.78125 6.9375C5.14242 6.9375 4.625 7.45781 4.625 8.09375V10.4062C4.625 11.0422 5.14242 11.5625 5.78125 11.5625H8.09375C8.72969 11.5625 9.25 11.0422 9.25 10.4062V8.09375C9.25 7.45781 8.72969 6.9375 8.09375 6.9375H5.78125ZM11.5625 10.4062C11.5625 11.0422 12.0828 11.5625 12.7188 11.5625H15.0312C15.6672 11.5625 16.1875 11.0422 16.1875 10.4062V8.09375C16.1875 7.45781 15.6672 6.9375 15.0312 6.9375H12.7188C12.0828 6.9375 11.5625 7.45781 11.5625 8.09375V10.4062ZM19.6562 6.9375C19.0203 6.9375 18.5 7.45781 18.5 8.09375V10.4062C18.5 11.0422 19.0203 11.5625 19.6562 11.5625H21.9688C22.6047 11.5625 23.125 11.0422 23.125 10.4062V8.09375C23.125 7.45781 22.6047 6.9375 21.9688 6.9375H19.6562Z" fill="#C4C4C4"/>
</g>
<defs>
<clipPath id="clip0_872_6">
<rect width="27.75" height="37" fill="white"/>
</clipPath>
</defs>
</svg>
