<svg width="13" height="10" viewBox="0 0 13 10" fill="none" xmlns="http://www.w3.org/2000/svg">
<path d="M9.09009 6.68921H10.1802V7.7793H9.09009V6.68921Z" fill="#9E47B6"/>
<path d="M10.1802 4.50903H9.09009V5.59912H10.1802V4.50903Z" fill="#9E47B6"/>
<path fill-rule="evenodd" clip-rule="evenodd" d="M6.90986 2.32886H12.3603V9.95949H0.369324V0.148682H6.90986V2.32886ZM4.18464 1.23877H5.81977V2.32886H4.18464V1.23877ZM5.81977 8.8694V7.77931H4.18464V8.8694H5.81977ZM5.81977 6.68922V5.59913H4.18464V6.68922H5.81977ZM5.81977 4.50904V3.41895H4.18464V4.50904H5.81977ZM11.2702 8.8694V3.41895H6.90986V4.50904H7.99995V5.59913H6.90986V6.68922H7.99995V7.77931H6.90986V8.8694H11.2702ZM1.45941 8.8694V7.77931H3.09455V8.8694H1.45941ZM1.45941 6.68922H3.09455V5.59913H1.45941V6.68922ZM3.09455 4.50904V3.41895H1.45941V4.50904H3.09455ZM1.45941 2.32886H3.09455V1.23877H1.45941V2.32886Z" fill="#9E47B6"/>
</svg>
