<svg width="53" height="60" viewBox="0 0 53 60" fill="none" xmlns="http://www.w3.org/2000/svg">
<g clip-path="url(#clip0_124_118)">
<path d="M18.75 3.75V7.5H33.75V3.75C33.75 1.6793 35.4258 0 37.5 0C39.5742 0 41.25 1.6793 41.25 3.75V7.5H46.875C49.9805 7.5 52.5 10.0184 52.5 13.125V18.75H0V13.125C0 10.0184 2.51836 7.5 5.625 7.5H11.25V3.75C11.25 1.6793 12.9258 0 15 0C17.0742 0 18.75 1.6793 18.75 3.75ZM0 22.5H52.5V54.375C52.5 57.4805 49.9805 60 46.875 60H5.625C2.51836 60 0 57.4805 0 54.375V22.5ZM38.4492 35.6367C39.6445 34.6406 39.6445 32.8594 38.4492 31.7578C37.4531 30.668 35.6719 30.668 34.5703 31.7578L23.4375 42.9023L17.8242 37.3828C16.8281 36.293 15.0469 36.293 13.9453 37.3828C12.8555 38.4844 12.8555 40.2656 13.9453 41.2617L21.4453 48.7617C22.5469 49.957 24.3281 49.957 25.3242 48.7617L38.4492 35.6367Z" fill="white"/>
</g>
<defs>
<clipPath id="clip0_124_118">
<rect width="52.5" height="60" fill="white"/>
</clipPath>
</defs>
</svg>
