<svg width="12" height="12" viewBox="0 0 12 12" fill="none" xmlns="http://www.w3.org/2000/svg">
<path d="M7.56769 8.82898C8.26455 8.82898 8.82898 8.26455 8.82898 7.56769C8.82898 6.87082 8.26455 6.3064 7.56769 6.3064C6.87082 6.3064 6.3064 6.87082 6.3064 7.56769C6.3064 8.26455 6.87082 8.82898 7.56769 8.82898Z" fill="#C5F2C7"/>
<path fill-rule="evenodd" clip-rule="evenodd" d="M1.89194 0C0.846956 0 0 0.846956 0 1.89194V9.45968C0 10.5047 0.846956 11.3516 1.89194 11.3516H9.45968C10.5047 11.3516 11.3516 10.5047 11.3516 9.45968V1.89194C11.3516 0.846956 10.5047 0 9.45968 0H1.89194ZM1.26129 9.45968V3.15323H10.0903V9.45968C10.0903 9.80779 9.80779 10.0903 9.45968 10.0903H1.89194C1.54382 10.0903 1.26129 9.80779 1.26129 9.45968Z" fill="#C5F2C7"/>
</svg>
