<svg width="14" height="14" viewBox="0 0 14 14" fill="none" xmlns="http://www.w3.org/2000/svg">
<path fill-rule="evenodd" clip-rule="evenodd" d="M7 14C10.866 14 14 10.866 14 7C14 3.13401 10.866 0 7 0C3.13401 0 0 3.13401 0 7C0 10.866 3.13401 14 7 14ZM4.11728 4.11728C4.27406 3.96091 4.52787 3.96091 4.68465 4.11728L6.99985 6.43288L9.31544 4.11728C9.47222 3.96091 9.72604 3.96091 9.88242 4.11728C10.0392 4.27406 10.0392 4.52788 9.88242 4.68425L7.56722 6.99985L9.88242 9.31544C10.0392 9.47182 10.0392 9.72564 9.88242 9.88242C9.72604 10.0388 9.47222 10.0388 9.31544 9.88242L6.99985 7.56682L4.68465 9.88242C4.52787 10.0388 4.27406 10.0388 4.11768 9.88242C3.9609 9.72564 3.9609 9.47182 4.11768 9.31544L6.43288 6.99985L4.11728 4.68425C3.96091 4.52788 3.96091 4.27406 4.11728 4.11728Z" fill="#C4C4C4"/>
</svg>
