<svg width="9" height="9" viewBox="0 0 9 9" fill="none" xmlns="http://www.w3.org/2000/svg">
<path d="M1.77183 0.707796C1.55872 0.495228 1.21371 0.495228 1.0006 0.707796C0.788029 0.920909 0.788029 1.26592 1.0006 1.47849L4.14823 4.62612L1.00114 7.77375C0.788025 7.98632 0.788025 8.33134 1.00114 8.54445C1.21371 8.75702 1.55872 8.75702 1.77183 8.54445L4.91892 5.39682L8.06655 8.54445C8.27967 8.75702 8.62468 8.75702 8.83725 8.54445C9.05036 8.33134 9.05036 7.98632 8.83725 7.77375L5.69016 4.62612L8.83725 1.47849C9.05036 1.26592 9.05036 0.920909 8.83725 0.707796C8.62468 0.495228 8.27967 0.495228 8.06655 0.707796L4.91892 3.85543L1.77183 0.707796Z" fill="#818181"/>
</svg>
