<svg width="9" height="9" viewBox="0 0 9 9" fill="none" xmlns="http://www.w3.org/2000/svg">
<path d="M0.930661 0.159426C0.717548 -0.0531419 0.372538 -0.0531419 0.159426 0.159426C-0.0531419 0.372538 -0.0531419 0.717553 0.159426 0.93012L3.30706 4.07775L0.159966 7.22538C-0.0531464 7.43795 -0.0531464 7.78297 0.159966 7.99608C0.372534 8.20865 0.717548 8.20865 0.930661 7.99608L4.07775 4.84845L7.22538 7.99608C7.4385 8.20865 7.78351 8.20865 7.99608 7.99608C8.20919 7.78297 8.20919 7.43795 7.99608 7.22538L4.84899 4.07775L7.99608 0.93012C8.20919 0.717553 8.20919 0.372538 7.99608 0.159426C7.78351 -0.0531419 7.4385 -0.0531419 7.22538 0.159426L4.07775 3.30706L0.930661 0.159426Z" fill="#F5413D"/>
</svg>
