<svg width="14" height="14" viewBox="0 0 14 14" fill="none" xmlns="http://www.w3.org/2000/svg">
<g clip-path="url(#clip0_967_4)">
<path d="M1.5976 0.273675C1.23177 -0.091225 0.639511 -0.091225 0.273675 0.273675C-0.091225 0.639511 -0.091225 1.23177 0.273675 1.59667L5.677 7L0.274603 12.4033C-0.0912327 12.7682 -0.0912327 13.3605 0.274603 13.7263C0.639503 14.0912 1.23177 14.0912 1.5976 13.7263L7 8.323L12.4033 13.7263C12.7692 14.0912 13.3614 14.0912 13.7263 13.7263C14.0922 13.3605 14.0922 12.7682 13.7263 12.4033L8.32393 7L13.7263 1.59667C14.0922 1.23177 14.0922 0.639511 13.7263 0.273675C13.3614 -0.091225 12.7692 -0.091225 12.4033 0.273675L7 5.677L1.5976 0.273675Z" fill="white"/>
</g>
<defs>
<clipPath id="clip0_967_4">
<rect width="14" height="14" fill="white"/>
</clipPath>
</defs>
</svg>
