<svg width="23" height="20" viewBox="0 0 23 20" fill="none" xmlns="http://www.w3.org/2000/svg">
<path d="M7.38393 0H15.4732C17.2947 0 18.9152 1.15089 19.5179 2.87009L21.0893 7.35714C22.125 7.78571 22.8572 8.80804 22.8572 10V13.5714C22.8572 14.6295 22.2813 15.5536 21.4286 16.0446V18.5714C21.4286 19.3616 20.7902 20 20 20H18.5714C17.7813 20 17.1429 19.3616 17.1429 18.5714V16.4286H5.71429V18.5714C5.71429 19.3616 5.0759 20 4.28572 20H2.85714C2.0683 20 1.42857 19.3616 1.42857 18.5714V16.0446C0.574554 15.5536 0 14.6295 0 13.5714V10C0 8.80804 0.730358 7.78571 1.7683 7.35714L3.33929 2.87009C3.94063 1.15089 5.5625 0 7.38393 0ZM7.38393 2.85714C6.77679 2.85714 6.23661 3.24107 6.03572 3.8125L4.87054 7.14286H17.9866L16.8214 3.8125C16.6205 3.24107 16.0804 2.85714 15.4732 2.85714H7.38393ZM9.28572 10.7143C8.89286 10.7143 8.57143 11.0357 8.57143 11.4286V12.8571C8.57143 13.25 8.89286 13.5714 9.28572 13.5714H13.5714C13.9643 13.5714 14.2857 13.25 14.2857 12.8571V11.4286C14.2857 11.0357 13.9643 10.7143 13.5714 10.7143H9.28572ZM3.21429 12.1429H4.64286C5.23661 12.1429 5.71429 11.6652 5.71429 11.0714C5.71429 10.4777 5.23661 10 4.64286 10H3.21429C2.62277 10 2.14286 10.4777 2.14286 11.0714C2.14286 11.6652 2.62277 12.1429 3.21429 12.1429ZM18.2143 10C17.6205 10 17.1429 10.4777 17.1429 11.0714C17.1429 11.6652 17.6205 12.1429 18.2143 12.1429H19.6429C20.2366 12.1429 20.7143 11.6652 20.7143 11.0714C20.7143 10.4777 20.2366 10 19.6429 10H18.2143Z" fill="#C4C4C4"/>
</svg>
