<svg width="23" height="18" viewBox="0 0 23 18" fill="none" xmlns="http://www.w3.org/2000/svg">
<path d="M4.5 11.5312C4.03401 11.5312 3.65625 11.909 3.65625 12.375C3.65625 12.841 4.03401 13.2188 4.5 13.2188H11.25C11.716 13.2188 12.0938 12.841 12.0938 12.375C12.0938 11.909 11.716 11.5312 11.25 11.5312H4.5Z" fill="#C4C4C4"/>
<path fill-rule="evenodd" clip-rule="evenodd" d="M3.375 0C1.51104 0 0 1.51104 0 3.375V14.625C0 16.489 1.51104 18 3.375 18H19.125C20.989 18 22.5 16.489 22.5 14.625V3.375C22.5 1.51104 20.989 0 19.125 0H3.375ZM19.125 1.6875H3.375C2.44302 1.6875 1.6875 2.44302 1.6875 3.375V4.78125H20.8125V3.375C20.8125 2.44302 20.057 1.6875 19.125 1.6875ZM1.6875 14.625V6.46875H20.8125V14.625C20.8125 15.557 20.057 16.3125 19.125 16.3125H3.375C2.44302 16.3125 1.6875 15.557 1.6875 14.625Z" fill="#C4C4C4"/>
</svg>
