<svg width="13" height="12" viewBox="0 0 13 12" fill="none" xmlns="http://www.w3.org/2000/svg">
<path fill-rule="evenodd" clip-rule="evenodd" d="M9.74833 0.126099H12.3602V1.21619H10.6062L9.097 8.12739H9.08991V8.30177H2.00433V8.16551L0.809049 2.90036L0.624817 2.30628H9.27794L9.58862 0.883719L9.74833 0.126099ZM2.01141 3.39637H9.03978L8.20641 7.21168H2.87749L2.01141 3.39637Z" fill="#818181"/>
<path d="M7.45496 11.027C6.85268 11.027 6.36487 10.5364 6.36487 9.93689C6.36487 9.33734 6.85268 8.8468 7.45496 8.8468C8.05723 8.8468 8.54505 9.33734 8.54505 9.93689C8.54505 10.5364 8.05723 11.027 7.45496 11.027Z" fill="#818181"/>
<path d="M2.5495 9.93689C2.5495 10.5364 3.03731 11.027 3.63959 11.027C4.24186 11.027 4.72968 10.5364 4.72968 9.93689C4.72968 9.33734 4.24186 8.8468 3.63959 8.8468C3.03731 8.8468 2.5495 9.33734 2.5495 9.93689Z" fill="#818181"/>
</svg>
