<svg width="35" height="25" viewBox="0 0 35 25" fill="none" xmlns="http://www.w3.org/2000/svg">
<path opacity="0.3" fill-rule="evenodd" clip-rule="evenodd" d="M6.21055 0.34378C5.67709 0.200838 5.12875 0.517421 4.98581 1.05089L0.974113 16.0227C0.831171 16.5562 1.14775 17.1045 1.68122 17.2475L29.3308 24.6562C29.8643 24.7991 30.4127 24.4825 30.5556 23.9491L34.5673 8.97722C34.7102 8.44375 34.3937 7.89542 33.8602 7.75247L6.21055 0.34378ZM23.4053 14.0098C22.5714 17.1216 19.3728 18.9684 16.2609 18.1345C13.149 17.3007 11.3023 14.1021 12.1361 10.9902C12.97 7.87831 16.1686 6.03158 19.2805 6.86541C22.3924 7.69924 24.2391 10.8979 23.4053 14.0098Z" fill="#F4B05F"/>
<path fill-rule="evenodd" clip-rule="evenodd" d="M3.4585 3.75C2.90621 3.75 2.4585 4.19772 2.4585 4.75V20.25C2.4585 20.8023 2.90621 21.25 3.4585 21.25H32.0835C32.6358 21.25 33.0835 20.8023 33.0835 20.25V4.75C33.0835 4.19772 32.6358 3.75 32.0835 3.75H3.4585ZM23.6043 12.5C23.6043 15.7217 20.9927 18.3333 17.771 18.3333C14.5493 18.3333 11.9377 15.7217 11.9377 12.5C11.9377 9.27834 14.5493 6.66667 17.771 6.66667C20.9927 6.66667 23.6043 9.27834 23.6043 12.5ZM17.771 15.4167C19.3818 15.4167 20.6877 14.1108 20.6877 12.5C20.6877 10.8892 19.3818 9.58333 17.771 9.58333C16.1602 9.58333 14.8543 10.8892 14.8543 12.5C14.8543 14.1108 16.1602 15.4167 17.771 15.4167Z" fill="#F4B05F"/>
</svg>
