<svg width="32" height="28" viewBox="0 0 32 28" fill="none" xmlns="http://www.w3.org/2000/svg">
<g clip-path="url(#clip0_945_12)">
<path d="M16.625 0.906719C16.625 0.413164 16.9586 0 17.5 0C24.2648 0 29.75 5.48516 29.75 12.25C29.75 12.7422 29.3344 13.125 28.8422 13.125H16.625V0.906719ZM1.75 14.875C1.75 8.24141 6.67734 2.75297 13.0211 1.87305C13.5734 1.80414 14 2.20719 14 2.71305V15.75L22.5586 24.3086C22.925 24.675 22.8977 25.2766 22.4766 25.5773C20.3328 27.1031 17.7078 28 14.875 28C7.62891 28 1.75 22.1266 1.75 14.875ZM30.5375 15.75C31.0406 15.75 31.4453 16.1766 31.3797 16.6797C30.9586 19.7367 29.482 22.4547 27.3383 24.4617C27.0102 24.7242 26.4961 24.7461 26.1789 24.4289L17.5 15.75H30.5375Z" fill="white"/>
</g>
<defs>
<clipPath id="clip0_945_12">
<rect width="31.5" height="28" fill="white"/>
</clipPath>
</defs>
</svg>
