<svg width="30" height="30" viewBox="0 0 30 30" fill="none" xmlns="http://www.w3.org/2000/svg">
<path d="M14.2188 16.2497C13.2178 17.2507 11.5949 17.2507 10.5939 16.2497L9.42213 15.0779C9.06827 14.7241 8.49456 14.7241 8.14071 15.0779V15.0779C7.78685 15.4318 7.78686 16.0055 8.14071 16.3594L10.285 18.5037C11.4566 19.6753 13.3561 19.6753 14.5277 18.5037L21.7342 11.2971C22.0881 10.9433 22.0881 10.3696 21.7342 10.0157V10.0157C21.3804 9.66185 20.8067 9.66186 20.4528 10.0157L14.2188 16.2497Z" fill="#CBCD58"/>
<path d="M30 15C30 23.2843 23.2843 30 15 30C6.71573 30 0 23.2843 0 15C0 6.71573 6.71573 0 15 0C23.2843 0 30 6.71573 30 15ZM1.22274 15C1.22274 22.609 7.39103 28.7773 15 28.7773C22.609 28.7773 28.7773 22.609 28.7773 15C28.7773 7.39103 22.609 1.22274 15 1.22274C7.39103 1.22274 1.22274 7.39103 1.22274 15Z" fill="#CBCD58"/>
</svg>
