<svg width="110" height="113" viewBox="0 0 110 113" fill="none" xmlns="http://www.w3.org/2000/svg">
<circle cx="54" cy="62" r="41" fill="#E1ED5A"/>
<circle cx="21.5" cy="41.5" r="14.5" fill="#E1ED5A"/>
<circle cx="10" cy="27" r="10" fill="#E1ED5A"/>
<circle cx="17.5" cy="7.5" r="7.5" fill="#E1ED5A"/>
<circle cx="79" cy="94" r="15" fill="#E1ED5A"/>
<circle cx="90" cy="49" r="15" fill="#E1ED5A"/>
<circle cx="95" cy="108" r="5" fill="#E1ED5A"/>
<circle cx="105" cy="32" r="5" fill="#E1ED5A"/>
<circle cx="17" cy="94" r="5" fill="#E1ED5A"/>
<path d="M49.2049 68.0445C48.0334 69.216 46.1339 69.216 44.9623 68.0445L39.1257 62.2078C38.1821 61.2642 36.6522 61.2642 35.7086 62.2078V62.2078C34.7649 63.1514 34.7649 64.6813 35.7086 65.6249L44.9623 74.8787C46.1339 76.0503 48.0334 76.0503 49.2049 74.8787L71.9579 52.1257C72.9016 51.1821 72.9016 49.6522 71.9579 48.7086V48.7086C71.0143 47.7649 69.4844 47.7649 68.5408 48.7086L49.2049 68.0445Z" fill="#3A3A3A"/>
<path d="M94 62C94 84.0914 76.0914 102 54 102C31.9086 102 14 84.0914 14 62C14 39.9086 31.9086 22 54 22C76.0914 22 94 39.9086 94 62ZM17.2606 62C17.2606 82.2906 33.7094 98.7394 54 98.7394C74.2906 98.7394 90.7394 82.2906 90.7394 62C90.7394 41.7094 74.2906 25.2606 54 25.2606C33.7094 25.2606 17.2606 41.7094 17.2606 62Z" fill="#3A3A3A"/>
</svg>
