<svg width="30" height="30" viewBox="0 0 30 30" fill="none" xmlns="http://www.w3.org/2000/svg">
<path fill-rule="evenodd" clip-rule="evenodd" d="M15 30C23.2843 30 30 23.2843 30 15C30 6.7157 23.2843 0 15 0C6.7157 0 0 6.7157 0 15C0 23.2843 6.7157 30 15 30ZM10.3644 16.8173C11.1454 17.5984 12.4117 17.5984 13.1927 16.8173L21.2555 8.75464C21.6722 8.33783 22.348 8.33783 22.7648 8.75464C23.1815 9.17139 23.1815 9.84711 22.7648 10.2639L13.1929 19.8358C12.4117 20.6168 11.1454 20.6168 10.3644 19.8358L6.75464 16.226C6.33789 15.8093 6.33789 15.1335 6.75464 14.7168C7.17139 14.3 7.84705 14.3 8.26379 14.7168L10.3644 16.8173Z" fill="white"/>
</svg>
