<svg width="53" height="70" viewBox="0 0 53 70" fill="none" xmlns="http://www.w3.org/2000/svg">
<g clip-path="url(#clip0_124_112)">
<path d="M45.9375 8.75H38.5711C36.7637 3.66406 31.9512 0 26.25 0C20.5488 0 15.7363 3.66406 13.9316 8.75H6.5625C2.93945 8.75 0 11.6867 0 15.3125V63.4375C0 67.0605 2.93945 70 6.5625 70H45.9375C49.5605 70 52.5 67.0633 52.5 63.4375V15.3125C52.5 11.6867 49.5605 8.75 45.9375 8.75ZM26.25 8.75C28.6658 8.75 30.625 10.7092 30.625 13.125C30.625 15.5408 28.6658 17.5 26.25 17.5C23.8342 17.5 21.875 15.5449 21.875 13.125C21.875 10.7051 23.8301 8.75 26.25 8.75ZM38.6777 35.9297L26.6465 51.2422C26.0932 51.9471 25.2766 52.3958 24.3865 52.4811C24.2812 52.377 24.1719 52.5 24.0625 52.5C23.2828 52.5 22.5244 52.2223 21.927 51.7096L14.2707 45.1471C12.8953 43.9679 12.7367 41.896 13.9161 40.5206C15.0931 39.1452 17.1659 38.9866 18.5426 40.1659L23.5985 44.4985L33.5133 31.8821C34.6328 30.4548 36.6989 30.2114 38.1207 31.3268C39.5527 32.4434 39.7988 34.5078 38.6777 35.9297Z" fill="#F6AA1C"/>
</g>
<defs>
<clipPath id="clip0_124_112">
<rect width="52.5" height="70" fill="white"/>
</clipPath>
</defs>
</svg>
