<svg width="13" height="11" viewBox="0 0 13 11" fill="none" xmlns="http://www.w3.org/2000/svg">
<path d="M3.68018 0.389648C3.37931 0.389648 3.13513 0.633829 3.13513 0.934693V2.02478C3.13513 2.32565 3.37931 2.56983 3.68018 2.56983C3.98104 2.56983 4.22522 2.32565 4.22522 2.02478V0.934693C4.22522 0.633829 3.98104 0.389648 3.68018 0.389648Z" fill="#0F56B3"/>
<path fill-rule="evenodd" clip-rule="evenodd" d="M7.49544 10.7455C9.11585 10.7455 10.461 9.56711 10.7205 8.02027H10.7657C11.9697 8.02027 12.9459 7.0441 12.9459 5.84009C12.9459 4.63609 11.9697 3.65991 10.7657 3.65991V3.11487H0.954895V7.47523C0.954895 9.28151 2.41889 10.7455 4.22517 10.7455H7.49544ZM2.04499 4.20496V7.47523C2.04499 8.67923 3.02116 9.65541 4.22517 9.65541H7.49544C8.69944 9.65541 9.67562 8.67923 9.67562 7.47523V4.20496H2.04499ZM11.8558 5.84009C11.8558 6.44237 11.368 6.93018 10.7657 6.93018V4.75C11.368 4.75 11.8558 5.23782 11.8558 5.84009Z" fill="#0F56B3"/>
<path d="M5.31531 0.934693C5.31531 0.633829 5.55949 0.389648 5.86035 0.389648C6.16122 0.389648 6.4054 0.633829 6.4054 0.934693V2.02478C6.4054 2.32565 6.16122 2.56983 5.86035 2.56983C5.55949 2.56983 5.31531 2.32565 5.31531 2.02478V0.934693Z" fill="#0F56B3"/>
<path d="M8.04053 0.389648C7.73966 0.389648 7.49548 0.633829 7.49548 0.934693V2.02478C7.49548 2.32565 7.73966 2.56983 8.04053 2.56983C8.34139 2.56983 8.58557 2.32565 8.58557 2.02478V0.934693C8.58557 0.633829 8.34139 0.389648 8.04053 0.389648Z" fill="#0F56B3"/>
</svg>
