<svg width="55" height="55" viewBox="0 0 55 55" fill="none" xmlns="http://www.w3.org/2000/svg">
<circle cx="27.5" cy="27.5" r="27.5" fill="white"/>
<path fill-rule="evenodd" clip-rule="evenodd" d="M28 50C40.1503 50 50 40.1503 50 28C50 20.3506 46.096 13.613 40.1718 9.67105V28.3769C40.1718 30.9006 39.6189 33.0414 38.513 34.7994C37.4355 36.5291 35.9752 37.8335 34.1321 38.7125C32.3173 39.5915 30.2899 40.031 28.0498 40.031C25.8381 40.031 23.8249 39.5915 22.0101 38.7125C20.2237 37.8335 18.8059 36.5291 17.7568 34.7994C16.7076 33.0414 16.183 30.9006 16.183 28.3769L16.2647 9.38796C10.0965 13.2853 6 20.1643 6 28C6 40.1503 15.8497 50 28 50ZM22.1377 6.78967V28.4194C22.1377 30.4327 22.6623 31.9781 23.7114 33.0556C24.7606 34.1047 26.2351 34.6293 28.1349 34.6293C30.0631 34.6293 31.5517 34.1047 32.6009 33.0556C33.6501 31.9781 34.1746 30.4327 34.1746 28.4194V6.87831C32.2157 6.30659 30.1436 6 28 6C25.9699 6 24.0041 6.27496 22.1377 6.78967Z" fill="black"/>
</svg>
