<svg width="29" height="29" viewBox="0 0 29 29" fill="none" xmlns="http://www.w3.org/2000/svg">
<rect width="12.3944" height="12.3944" rx="1.5" fill="#C4C4C4"/>
<path opacity="0.3" fill-rule="evenodd" clip-rule="evenodd" d="M15.9355 1.5C15.9355 0.671572 16.6071 0 17.4355 0H26.8299C27.6583 0 28.3299 0.671573 28.3299 1.5V10.8944C28.3299 11.7228 27.6583 12.3944 26.8299 12.3944H17.4355C16.6071 12.3944 15.9355 11.7228 15.9355 10.8944V1.5ZM0 17.4355C0 16.6071 0.671573 15.9355 1.5 15.9355H10.8944C11.7228 15.9355 12.3944 16.6071 12.3944 17.4355V26.8299C12.3944 27.6583 11.7228 28.3299 10.8944 28.3299H1.5C0.671572 28.3299 0 27.6583 0 26.8299V17.4355ZM17.4355 15.9355C16.6071 15.9355 15.9355 16.6071 15.9355 17.4355V26.8299C15.9355 27.6583 16.6071 28.3299 17.4355 28.3299H26.8299C27.6583 28.3299 28.3299 27.6583 28.3299 26.8299V17.4355C28.3299 16.6071 27.6583 15.9355 26.8299 15.9355H17.4355Z" fill="#C4C4C4"/>
</svg>
