<svg width="35" height="35" viewBox="0 0 35 35" fill="none" xmlns="http://www.w3.org/2000/svg">
<g id="Stockholm-icons / Layout / Layout-4-blocks">
<rect id="Rectangle 7" x="5.83331" y="5.83337" width="10.2083" height="10.2083" rx="1.5" fill="white"/>
<path id="Combined Shape" opacity="0.3" fill-rule="evenodd" clip-rule="evenodd" d="M18.9583 7.33337C18.9583 6.50495 19.6299 5.83337 20.4583 5.83337H27.6666C28.4951 5.83337 29.1666 6.50495 29.1666 7.33337V14.5417C29.1666 15.3701 28.4951 16.0417 27.6666 16.0417H20.4583C19.6299 16.0417 18.9583 15.3701 18.9583 14.5417V7.33337ZM5.83331 20.4584C5.83331 19.6299 6.50489 18.9584 7.33331 18.9584H14.5416C15.3701 18.9584 16.0416 19.6299 16.0416 20.4584V27.6667C16.0416 28.4951 15.3701 29.1667 14.5416 29.1667H7.33331C6.50488 29.1667 5.83331 28.4951 5.83331 27.6667V20.4584ZM20.4583 18.9584C19.6299 18.9584 18.9583 19.6299 18.9583 20.4584V27.6667C18.9583 28.4951 19.6299 29.1667 20.4583 29.1667H27.6666C28.4951 29.1667 29.1666 28.4951 29.1666 27.6667V20.4584C29.1666 19.6299 28.4951 18.9584 27.6666 18.9584H20.4583Z" fill="white"/>
</g>
</svg>
