<svg width="27" height="27" viewBox="0 0 27 27" fill="none" xmlns="http://www.w3.org/2000/svg">
<path d="M1 1H9.2726C10.3772 1 11.2726 1.89543 11.2726 3V9.2726C11.2726 10.3772 10.3772 11.2726 9.2726 11.2726H3C1.89543 11.2726 1 10.3772 1 9.2726V1Z" stroke="#C4C4C4" stroke-width="2"/>
<path d="M1 17.7273C1 16.6227 1.89543 15.7273 3 15.7273H9.2726C10.3772 15.7273 11.2726 16.6227 11.2726 17.7273V23.9999C11.2726 25.1045 10.3772 25.9999 9.2726 25.9999H1V17.7273Z" stroke="#C4C4C4" stroke-width="2"/>
<path d="M15.7273 17.7273C15.7273 16.6227 16.6227 15.7273 17.7273 15.7273H23.9999C25.1045 15.7273 25.9999 16.6227 25.9999 17.7273V25.9999H17.7273C16.6227 25.9999 15.7273 25.1045 15.7273 23.9999V17.7273Z" stroke="#C4C4C4" stroke-width="2"/>
<path d="M15.7273 3C15.7273 1.89543 16.6227 1 17.7273 1H25.9999V9.2726C25.9999 10.3772 25.1045 11.2726 23.9999 11.2726H17.7273C16.6227 11.2726 15.7273 10.3772 15.7273 9.2726V3Z" stroke="#C4C4C4" stroke-width="2"/>
</svg>
