<svg width="12" height="13" viewBox="0 0 12 13" fill="none" xmlns="http://www.w3.org/2000/svg">
<path d="M7.80157 9.75958C8.49844 9.75958 9.06286 9.19515 9.06286 8.49829C9.06286 7.80143 8.49844 7.237 7.80157 7.237C7.10471 7.237 6.54028 7.80143 6.54028 8.49829C6.54028 9.19515 7.10471 9.75958 7.80157 9.75958Z" fill="#818181"/>
<path fill-rule="evenodd" clip-rule="evenodd" d="M2.12582 0.930603C1.08084 0.930603 0.233887 1.77756 0.233887 2.82254V10.3903C0.233887 11.4353 1.08084 12.2822 2.12582 12.2822H9.69356C10.7385 12.2822 11.5855 11.4353 11.5855 10.3903V2.82254C11.5855 1.77756 10.7385 0.930603 9.69356 0.930603H2.12582ZM1.49518 10.3903V4.08383H10.3242V10.3903C10.3242 10.7384 10.0417 11.0209 9.69356 11.0209H2.12582C1.77771 11.0209 1.49518 10.7384 1.49518 10.3903Z" fill="#818181"/>
</svg>
