<svg width="17" height="19" viewBox="0 0 17 19" fill="none" xmlns="http://www.w3.org/2000/svg">
<g clip-path="url(#clip0_263_279)">
<path d="M14.8438 2.375H13.0625V0.445312C13.0625 0.200391 12.8621 0 12.6172 0H11.1328C10.8879 0 10.6875 0.200391 10.6875 0.445312V2.375H5.9375V0.445312C5.9375 0.200391 5.73711 0 5.49219 0H4.00781C3.76289 0 3.5625 0.200391 3.5625 0.445312V2.375H1.78125C0.797852 2.375 0 3.17285 0 4.15625V17.2188C0 18.2021 0.797852 19 1.78125 19H14.8438C15.8271 19 16.625 18.2021 16.625 17.2188V4.15625C16.625 3.17285 15.8271 2.375 14.8438 2.375ZM14.6211 17.2188H2.00391C1.88145 17.2188 1.78125 17.1186 1.78125 16.9961V5.9375H14.8438V16.9961C14.8438 17.1186 14.7436 17.2188 14.6211 17.2188Z" fill="black"/>
</g>
<defs>
<clipPath id="clip0_263_279">
<rect width="16.625" height="19" fill="white"/>
</clipPath>
</defs>
</svg>
