<svg width="27" height="30" viewBox="0 0 27 30" fill="none" xmlns="http://www.w3.org/2000/svg">
<g clip-path="url(#clip0_944_4)">
<path d="M12.6621 23.9121C12.1641 24.5098 11.2734 24.5098 10.7227 23.9121L6.97266 20.1621C6.42773 19.6641 6.42773 18.7734 6.97266 18.2227C7.52344 17.6777 8.41406 17.6777 8.91211 18.2227L11.7188 20.9824L17.2852 15.4102C17.8359 14.8652 18.7266 14.8652 19.2246 15.4102C19.8223 15.9609 19.8223 16.8516 19.2246 17.3496L12.6621 23.9121ZM7.5 0C8.2793 0 8.90625 0.629883 8.90625 1.40625V3.75H17.3438V1.40625C17.3438 0.629883 17.9707 0 18.75 0C19.5293 0 20.1562 0.629883 20.1562 1.40625V3.75H22.5C24.5684 3.75 26.25 5.42871 26.25 7.5V26.25C26.25 28.3184 24.5684 30 22.5 30H3.75C1.67871 30 0 28.3184 0 26.25V7.5C0 5.42871 1.67871 3.75 3.75 3.75H6.09375V1.40625C6.09375 0.629883 6.7207 0 7.5 0ZM23.4375 11.25H2.8125V26.25C2.8125 26.7656 3.23203 27.1875 3.75 27.1875H22.5C23.0156 27.1875 23.4375 26.7656 23.4375 26.25V11.25Z" fill="white"/>
</g>
<defs>
<clipPath id="clip0_944_4">
<rect width="26.25" height="30" fill="white"/>
</clipPath>
</defs>
</svg>
