<svg width="10" height="11" viewBox="0 0 10 11" fill="none" xmlns="http://www.w3.org/2000/svg">
<path fill-rule="evenodd" clip-rule="evenodd" d="M2.18018 1.63514V1.09009C2.18018 0.487815 2.668 0 3.27027 0H6.54054C7.14282 0 7.63063 0.487815 7.63063 1.09009V1.63514H9.26577C9.56663 1.63514 9.81081 1.87932 9.81081 2.18018C9.81081 2.48105 9.56663 2.72523 9.26577 2.72523H8.72072V8.72072C8.72072 9.62386 7.98873 10.3559 7.08559 10.3559H2.72523C1.82209 10.3559 1.09009 9.62386 1.09009 8.72072V2.72523H0.545045C0.24418 2.72523 0 2.48105 0 2.18018C0 1.87932 0.24418 1.63514 0.545045 1.63514H2.18018ZM3.27027 1.09009H6.54054V1.63514H3.27027V1.09009ZM2.18018 2.72523H7.63063V8.72072C7.63063 9.02159 7.38645 9.26577 7.08559 9.26577H2.72523C2.42436 9.26577 2.18018 9.02159 2.18018 8.72072V2.72523Z" fill="#4A4B57"/>
</svg>
