<svg width="20" height="20" viewBox="0 0 20 20" fill="none" xmlns="http://www.w3.org/2000/svg">
<path fill-rule="evenodd" clip-rule="evenodd" d="M7.75 8C8.16421 8 8.5 8.33579 8.5 8.75V13.75C8.5 14.1642 8.16421 14.5 7.75 14.5C7.33579 14.5 7 14.1642 7 13.75V8.75C7 8.33579 7.33579 8 7.75 8Z" fill="#1B1840"/>
<path fill-rule="evenodd" clip-rule="evenodd" d="M11.75 8C12.1642 8 12.5 8.33579 12.5 8.75V13.75C12.5 14.1642 12.1642 14.5 11.75 14.5C11.3358 14.5 11 14.1642 11 13.75V8.75C11 8.33579 11.3358 8 11.75 8Z" fill="#1B1840"/>
<path fill-rule="evenodd" clip-rule="evenodd" d="M7.75 0C6.23122 0 5 1.23122 5 2.75V3H0.75C0.335786 3 0 3.33579 0 3.75C0 4.16421 0.335786 4.5 0.75 4.5H2V16.75C2 18.2688 3.23122 19.5 4.75 19.5H14.75C16.2688 19.5 17.5 18.2688 17.5 16.75V4.5H18.75C19.1642 4.5 19.5 4.16421 19.5 3.75C19.5 3.33579 19.1642 3 18.75 3H14.5V2.75C14.5 1.23122 13.2688 0 11.75 0H7.75ZM13 3V2.75C13 2.05964 12.4404 1.5 11.75 1.5H7.75C7.05964 1.5 6.5 2.05964 6.5 2.75V3H13ZM3.5 4.5V16.75C3.5 17.4404 4.05964 18 4.75 18H14.75C15.4404 18 16 17.4404 16 16.75V4.5H3.5Z" fill="#1B1840"/>
</svg>
