<svg width="25" height="25" viewBox="0 0 25 25" fill="none" xmlns="http://www.w3.org/2000/svg">
<path d="M23.4375 17.1875H16.9189L14.7095 19.397C14.1211 19.9854 13.335 20.3125 12.5 20.3125C11.665 20.3125 10.8809 19.9875 10.2905 19.397L8.08105 17.1875H1.5625C0.699707 17.1875 0 17.8872 0 18.75V23.4375C0 24.3003 0.699707 25 1.5625 25H23.4375C24.3003 25 25 24.3003 25 23.4375V18.75C25 17.8857 24.3018 17.1875 23.4375 17.1875ZM21.0938 22.2656C20.4492 22.2656 19.9219 21.7383 19.9219 21.0938C19.9219 20.4492 20.4492 19.9219 21.0938 19.9219C21.7383 19.9219 22.2656 20.4492 22.2656 21.0938C22.2656 21.7383 21.7383 22.2656 21.0938 22.2656ZM11.3965 18.291C11.6992 18.5986 12.0996 18.75 12.5 18.75C12.9004 18.75 13.2998 18.5974 13.6045 18.2922L19.8545 12.0422C20.4644 11.4319 20.4644 10.4431 19.8545 9.83276C19.2441 9.22241 18.2549 9.22241 17.645 9.83276L14.0625 13.418V1.5625C14.0625 0.699707 13.3628 0 12.5 0C11.6357 0 10.9375 0.699707 10.9375 1.5625V13.418L7.35352 9.83398C6.74365 9.22363 5.75439 9.22363 5.14404 9.83398C4.53418 10.4443 4.53418 11.4331 5.14404 12.0435L11.3965 18.291Z" fill="#BEBEBE"/>
</svg>
