<svg width="18" height="18" viewBox="0 0 18 18" fill="none" xmlns="http://www.w3.org/2000/svg">
<g clip-path="url(#clip0_875_4)">
<path d="M14.8254 7.74485L6.62695 15.9398L5.43515 14.748L5.5582 14.6249H3.93749C3.62812 14.6249 3.37499 14.3718 3.37499 14.0624V12.4417L3.2523 12.5648C3.08601 12.7335 2.96402 12.9374 2.89757 13.1624L2.08968 15.9116L4.83749 15.1031C5.03085 15.0363 5.2664 14.9132 5.43515 14.748L6.62695 15.9398C6.26132 16.3054 5.8078 16.5761 5.3121 16.7202L1.08175 17.9648C0.785734 18.0527 0.465461 17.9718 0.24714 17.7222C0.0288131 17.5359 -0.0528126 17.2159 0.0343045 16.9171L1.27862 12.6878C1.42487 12.1921 1.69312 11.7386 2.05909 11.373L10.2551 3.17594L14.8254 7.74485ZM17.3215 2.06536C18.2004 2.94391 18.2004 4.36985 17.3215 5.24876L15.6199 6.95032L11.0496 2.38071L12.7512 0.679146C13.6301 -0.199689 15.0574 -0.199689 15.9363 0.679146L17.3215 2.06536Z" fill="white"/>
</g>
<defs>
<clipPath id="clip0_875_4">
<rect width="18" height="18" fill="white"/>
</clipPath>
</defs>
</svg>
