<svg width="25" height="25" viewBox="0 0 25 25" fill="none" xmlns="http://www.w3.org/2000/svg">
<path d="M7.8125 20.3125H4.6875C3.82471 20.3125 3.125 19.6128 3.125 18.75V6.25C3.125 5.38721 3.82471 4.6875 4.6875 4.6875H7.8125C8.67529 4.6875 9.375 3.98779 9.375 3.125C9.375 2.26221 8.67676 1.5625 7.8125 1.5625H4.6875C2.09863 1.5625 0 3.66113 0 6.25V18.75C0 21.3389 2.09863 23.4375 4.6875 23.4375H7.8125C8.67529 23.4375 9.375 22.7378 9.375 21.875C9.375 21.0122 8.67676 20.3125 7.8125 20.3125ZM24.541 11.3965L18.291 5.14648C17.6802 4.53564 16.6914 4.53662 16.0815 5.14648C15.4712 5.75684 15.4712 6.74561 16.0815 7.35596L19.668 10.9375H9.375C8.51074 10.9375 7.8125 11.6357 7.8125 12.5C7.8125 13.3643 8.51123 14.0625 9.375 14.0625H19.668L16.085 17.6455C15.4746 18.2559 15.4746 19.2446 16.085 19.855C16.6953 20.4653 17.6841 20.4653 18.2944 19.855L24.5444 13.605C25.1514 12.9932 25.1514 12.0068 24.541 11.3965Z" fill="#1B1840"/>
</svg>
