<svg width="50" height="40" viewBox="0 0 50 40" fill="none" xmlns="http://www.w3.org/2000/svg">
<g clip-path="url(#clip0_853_141)">
<path d="M32.5 13.75C32.5 6.15625 25.2266 0 16.25 0C7.27346 0 2.27702e-05 6.15625 2.27702e-05 13.75C2.27702e-05 16.8414 1.22034 19.6844 3.25549 21.9844C1.97502 24.5437 0.190648 26.4625 0.162523 26.4906C-0.00153973 26.6629 -0.046071 26.9184 0.0499447 27.1433C0.14846 27.3672 0.359554 27.5 0.598461 27.5C3.59456 27.5 6.12659 26.6312 8.07815 25.6219C10.4844 26.8047 13.2657 27.5 16.25 27.5C25.2266 27.5 32.5 21.3437 32.5 13.75ZM46.8438 34.6641C48.8125 32.3359 50 29.4219 50 26.25C50 18.6563 43.2813 12.5 35 12.5C34.9755 12.5 34.9517 12.5032 34.9271 12.5034C34.961 12.9141 35 13.3281 35 13.75C35 21.4547 28.775 27.9063 20.461 29.5703C22.086 35.5547 27.8985 40 35 40C37.6321 40 40.1032 39.3744 42.2539 38.2828C44.1563 39.2187 46.5704 40 49.3985 40C49.6375 40 49.8485 39.8652 49.9469 39.6402C50.0429 39.4153 49.9983 39.1599 49.8343 38.9876C49.8126 38.9609 48.1172 37.1328 46.8438 34.6641Z" fill="#1B1840"/>
</g>
<defs>
<clipPath id="clip0_853_141">
<rect width="50" height="40" fill="white"/>
</clipPath>
</defs>
</svg>
