<svg width="16" height="19" viewBox="0 0 16 19" fill="none" xmlns="http://www.w3.org/2000/svg">
<path d="M6.7 10.8875V12.5625C5.36729 12.5625 4.08916 13.0919 3.14679 14.0343C2.20442 14.9767 1.675 16.2548 1.675 17.5875H0C0 15.8106 0.705891 14.1064 1.96238 12.8499C3.21888 11.5934 4.92305 10.8875 6.7 10.8875V10.8875ZM6.7 10.05C3.92369 10.05 1.675 7.80131 1.675 5.025C1.675 2.24869 3.92369 0 6.7 0C9.47631 0 11.725 2.24869 11.725 5.025C11.725 7.80131 9.47631 10.05 6.7 10.05ZM6.7 8.375C8.55088 8.375 10.05 6.87588 10.05 5.025C10.05 3.17413 8.55088 1.675 6.7 1.675C4.84913 1.675 3.35 3.17413 3.35 5.025C3.35 6.87588 4.84913 8.375 6.7 8.375ZM11.725 17.1688L9.26359 18.4627L9.73343 15.7224L7.74269 13.7811L10.4947 13.3807L11.725 10.8875L12.9561 13.3807L15.7073 13.7811L13.7166 15.7224L14.1856 18.4627L11.725 17.1688Z" fill="#0F56B3"/>
</svg>
