<svg width="30" height="30" viewBox="0 0 30 30" fill="none" xmlns="http://www.w3.org/2000/svg">
<path d="M1.875 3.75C1.875 1.67871 3.55371 0 5.625 0H15C17.0684 0 18.75 1.67871 18.75 3.75V15H19.2188C22.0664 15 24.375 17.3086 24.375 20.1562V22.0312C24.375 22.8105 25.002 23.4375 25.7812 23.4375C26.5605 23.4375 27.1875 22.8105 27.1875 22.0312V12.9551C25.5703 12.5918 24.375 11.1211 24.375 9.375V5.625L22.5 3.75C21.9844 3.23203 21.9844 2.39297 22.5 1.875C23.0156 1.35703 23.8594 1.35703 24.375 1.875L28.9043 6.4043C29.6074 7.10742 30 8.05664 30 9.05273V22.0312C30 24.3633 28.1133 26.25 25.7812 26.25C23.4492 26.25 21.5625 24.3633 21.5625 22.0312V20.1562C21.5625 18.8613 20.5137 17.7598 19.2188 17.7598H18.75V26.25C19.7871 26.25 20.625 27.0879 20.625 28.125C20.625 29.1621 19.7871 30 18.75 30H1.875C0.839648 30 0 29.1621 0 28.125C0 27.0879 0.839648 26.25 1.875 26.25V3.75ZM5.625 10.3125C5.625 10.8281 6.04687 11.25 6.5625 11.25H14.0625C14.5781 11.25 15 10.8281 15 10.3125V4.6875C15 4.16953 14.5781 3.75 14.0625 3.75H6.5625C6.04687 3.75 5.625 4.16953 5.625 4.6875V10.3125Z" fill="#C4C4C4"/>
</svg>
