<svg width="40" height="40" viewBox="0 0 40 40" fill="none" xmlns="http://www.w3.org/2000/svg">
<path d="M38.7422 13.0156C39 13.6875 38.7812 14.4453 38.25 14.9375L34.8672 18.0156C34.9531 18.6641 35 19.3281 35 20C35 20.6719 34.9531 21.3359 34.8672 21.9844L38.25 25.0625C38.7812 25.5547 39 26.3125 38.7422 26.9844C38.3984 27.9141 37.9844 28.8125 37.5156 29.6641L37.1484 30.2969C36.6328 31.1562 36.0547 31.9688 35.4219 32.7422C34.9531 33.2969 34.1953 33.4922 33.5078 33.2734L29.1562 31.8828C28.1094 32.6875 26.8828 33.3594 25.7187 33.875L24.7422 38.3359C24.5859 39.0391 24.039 39.5391 23.3203 39.7266C22.2422 39.9062 21.1328 40 19.9297 40C18.8672 40 17.7578 39.9062 16.6797 39.7266C15.9609 39.5391 15.414 39.0391 15.2578 38.3359L14.2812 33.875C13.0469 33.3594 11.8906 32.6875 10.8437 31.8828L6.49529 33.2734C5.80466 33.4922 5.04294 33.2969 4.58044 32.7422C3.94685 31.9688 3.36872 31.1562 2.8531 30.2969L2.48747 29.6641C2.01325 28.8125 1.60075 27.9141 1.25466 26.9844C1.00153 26.3125 1.21482 25.5547 1.75075 25.0625L5.13044 21.9844C5.0445 21.3359 4.99997 20.6719 4.99997 20C4.99997 19.3281 5.0445 18.6641 5.13044 18.0156L1.75075 14.9375C1.21482 14.4453 1.00153 13.6953 1.25466 13.0156C1.60075 12.0859 2.01403 11.1875 2.48747 10.3359L2.85232 9.70312C3.36872 8.84375 3.94685 8.03125 4.58044 7.26172C5.04294 6.70312 5.80466 6.50937 6.49529 6.72969L10.8437 8.11719C11.8906 7.30938 13.0469 6.6375 14.2812 6.12734L15.2578 1.66641C15.414 0.957031 15.9609 0.39375 16.6797 0.274219C17.7578 0.0938281 18.8672 0 20 0C21.1328 0 22.2422 0.0938281 23.3203 0.274219C24.039 0.39375 24.5859 0.957031 24.7422 1.66641L25.7187 6.12734C26.8828 6.6375 28.1094 7.30938 29.1562 8.11719L33.5078 6.72969C34.1953 6.50937 34.9531 6.70312 35.4219 7.26172C36.0547 8.03125 36.6328 8.84375 37.1484 9.70312L37.5156 10.3359C37.9844 11.1875 38.3984 12.0859 38.7422 13.0156ZM20 26.25C23.4531 26.25 26.25 23.4531 26.25 19.9297C26.25 16.5469 23.4531 13.6797 20 13.6797C16.5469 13.6797 13.75 16.5469 13.75 19.9297C13.75 23.4531 16.5469 26.25 20 26.25Z" fill="#1B1840"/>
</svg>
