<svg width="17" height="17" viewBox="0 0 17 17" fill="none" xmlns="http://www.w3.org/2000/svg">
<path fill-rule="evenodd" clip-rule="evenodd" d="M15.7192 7.19693H13.8788C13.7673 6.83045 13.6159 6.48787 13.4327 6.16123L14.7871 4.80685C15.0978 4.49613 15.0978 3.99421 14.7871 3.6835L13.6637 2.56016C13.353 2.24945 12.8511 2.24945 12.5404 2.56016L11.186 3.91454C10.8594 3.73927 10.5168 3.5879 10.1503 3.47636V1.62006C10.1503 1.18188 9.79179 0.823364 9.3536 0.823364H7.75224C7.31405 0.823364 6.95554 1.18188 6.95554 1.62006V3.47636C6.57313 3.5879 6.20665 3.74724 5.86407 3.93845L4.56545 2.63983C4.27067 2.34505 3.7847 2.34505 3.48196 2.63983L2.39846 3.72334C2.10368 4.02608 2.10368 4.51207 2.39846 4.80685L3.68911 6.0975C3.4979 6.44804 3.33854 6.80655 3.21903 7.19693H1.37867C0.940484 7.19693 0.58197 7.55545 0.58197 7.99363V9.58702C0.58197 10.0252 0.940484 10.3837 1.37867 10.3837H3.21903C3.33057 10.7502 3.48194 11.0928 3.66518 11.4194L2.31079 12.7738C2.00008 13.0845 2.00008 13.5864 2.31079 13.8972L3.43416 15.0205C3.74487 15.3312 4.24677 15.3312 4.55748 15.0205L5.91187 13.6661C6.23852 13.8414 6.58109 13.9928 6.94757 14.1043V15.9606C6.94757 16.3988 7.30608 16.7573 7.74426 16.7573H9.33766C9.77584 16.7573 10.1344 16.3988 10.1344 15.9606V14.1043C10.5168 13.9928 10.8832 13.8254 11.2258 13.6342L12.5324 14.9408C12.8272 15.2356 13.3132 15.2356 13.6159 14.9408L14.6994 13.8573C14.9942 13.5625 14.9942 13.0766 14.6994 12.7738L13.4088 11.4832C13.6 11.1406 13.7673 10.7741 13.8868 10.3837H15.7192C16.1574 10.3837 16.5159 10.0252 16.5159 9.58702V7.99363C16.5159 7.55545 16.1574 7.19693 15.7192 7.19693ZM8.54893 11.9771C6.78823 11.9771 5.36215 10.551 5.36215 8.79033C5.36215 7.02963 6.78823 5.60354 8.54893 5.60354C10.3096 5.60354 11.7357 7.02963 11.7357 8.79033C11.7357 10.551 10.3096 11.9771 8.54893 11.9771Z" fill="#4A4B57"/>
</svg>
