<svg width="34" height="30" viewBox="0 0 34 30" fill="none" xmlns="http://www.w3.org/2000/svg">
<g clip-path="url(#clip0_1005_4)">
<path d="M32.6776 6.14717C32.158 4.9441 31.4088 3.85389 30.4719 2.93756C29.5344 2.0185 28.4289 1.28814 27.2158 0.786192C25.9578 0.263635 24.6086 -0.00384042 23.2464 -0.000705176C21.3354 -0.000705176 19.4709 0.522601 17.8506 1.51107C17.4629 1.74752 17.0947 2.00724 16.7458 2.29021C16.3969 2.00724 16.0287 1.74752 15.641 1.51107C14.0207 0.522601 12.1562 -0.000705176 10.2452 -0.000705176C8.86907 -0.000705176 7.53561 0.262886 6.2758 0.786192C5.05862 1.29012 3.96162 2.01499 3.01967 2.93756C2.08158 3.85285 1.33221 4.94332 0.814032 6.14717C0.27522 7.39923 0 8.72882 0 10.0972C0 11.388 0.263591 12.7331 0.786897 14.1014C1.22492 15.2449 1.85289 16.4311 2.65529 17.6289C3.92673 19.5244 5.67496 21.5014 7.84571 23.5054C11.443 26.8275 15.0053 29.1222 15.1565 29.2153L16.0752 29.8045C16.4822 30.0642 17.0055 30.0642 17.4125 29.8045L18.3312 29.2153C18.4824 29.1184 22.0409 26.8275 25.642 23.5054C27.8127 21.5014 29.561 19.5244 30.8324 17.6289C31.6348 16.4311 32.2667 15.2449 32.7008 14.1014C33.2241 12.7331 33.4877 11.388 33.4877 10.0972C33.4916 8.72882 33.2164 7.39923 32.6776 6.14717ZM16.7458 26.7383C16.7458 26.7383 2.94602 17.8964 2.94602 10.0972C2.94602 6.14717 6.21377 2.94531 10.2452 2.94531C13.0788 2.94531 15.5364 4.52686 16.7458 6.83716C17.9552 4.52686 20.4128 2.94531 23.2464 2.94531C27.2778 2.94531 30.5456 6.14717 30.5456 10.0972C30.5456 17.8964 16.7458 26.7383 16.7458 26.7383Z" fill="black"/>
</g>
<defs>
<clipPath id="clip0_1005_4">
<rect width="34" height="30" fill="white"/>
</clipPath>
</defs>
</svg>
