<svg width="11" height="13" viewBox="0 0 11 13" fill="none" xmlns="http://www.w3.org/2000/svg">
<path fill-rule="evenodd" clip-rule="evenodd" d="M10.1081 4.77213L6.30407 0.968261C5.6655 0.329468 4.63019 0.329468 3.99166 0.968261L0.297241 4.66258V12.5739H4.11256V9.30363C4.11256 8.70136 4.60059 8.21354 5.20265 8.21354C5.8047 8.21354 6.29274 8.70136 6.29274 9.30363V12.5739H10.1081V4.77213ZM4.76247 1.73896L1.38733 5.11442V11.4838H3.02247V9.30363C3.02247 8.09963 3.99859 7.12345 5.20265 7.12345C6.40671 7.12345 7.38283 8.09963 7.38283 9.30363V11.4838H9.01796V5.22398L5.53327 1.73896C5.32043 1.52639 4.97531 1.52639 4.76247 1.73896Z" fill="#0F56B3"/>
</svg>
