<svg width="10" height="13" viewBox="0 0 10 13" fill="none" xmlns="http://www.w3.org/2000/svg">
<path fill-rule="evenodd" clip-rule="evenodd" d="M9.85579 4.7811L6.05192 0.977264C5.41313 0.338471 4.37809 0.338471 3.7393 0.977264L0.0449829 4.67155V12.5829H3.8603V9.31262C3.8603 8.71035 4.34811 8.22253 4.95039 8.22253C5.55266 8.22253 6.04048 8.71035 6.04048 9.31262V12.5829H9.85579V4.7811ZM4.50999 1.74792L1.13507 5.12342V11.4928H2.77021V9.31262C2.77021 8.10862 3.74638 7.13244 4.95039 7.13244C6.15439 7.13244 7.13057 8.10862 7.13057 9.31262V11.4928H8.7657V5.23297L5.28123 1.74792C5.06812 1.53536 4.72311 1.53536 4.50999 1.74792Z" fill="#818181"/>
</svg>
