<svg width="19" height="19" viewBox="0 0 19 19" fill="none" xmlns="http://www.w3.org/2000/svg">
<path d="M9.5 19C4.25273 19 0 14.7473 0 9.5C0 4.25273 4.25273 0 9.5 0C14.7473 0 19 4.25273 19 9.5C19 14.7473 14.7473 19 9.5 19ZM8.60938 9.5C8.60938 9.79688 8.75781 10.0752 9.00644 10.2088L12.5689 12.5838C12.9771 12.8881 13.5301 12.7768 13.7713 12.3686C14.0756 11.9604 13.9643 11.4074 13.5561 11.1328L10.3906 9.025V4.45312C10.3906 3.95957 9.99356 3.5625 9.4666 3.5625C9.00645 3.5625 8.57598 3.95957 8.57598 4.45312L8.60938 9.5Z" fill="black"/>
</svg>
