<svg width="11" height="11" viewBox="0 0 11 11" fill="none" xmlns="http://www.w3.org/2000/svg">
<path d="M4.02396 2.96899H5.02374V5.46846H7.52321V6.46825H4.02396V2.96899Z" fill="#DCDCDC"/>
<path fill-rule="evenodd" clip-rule="evenodd" d="M10.0227 5.46847C10.0227 8.22938 7.78455 10.4674 5.02374 10.4674C2.26293 10.4674 0.0248108 8.22938 0.0248108 5.46847C0.0248108 2.70756 2.26293 0.469543 5.02374 0.469543C7.78455 0.469543 10.0227 2.70756 10.0227 5.46847ZM9.02289 5.46847C9.02289 7.677 7.23242 9.46762 5.02374 9.46762C2.81506 9.46762 1.0246 7.677 1.0246 5.46847C1.0246 3.25995 2.81506 1.46933 5.02374 1.46933C7.23242 1.46933 9.02289 3.25995 9.02289 5.46847Z" fill="#DCDCDC"/>
</svg>
