<svg width="20" height="17" viewBox="0 0 20 17" fill="none" xmlns="http://www.w3.org/2000/svg">
<path d="M16.9292 0.952503C16.7966 0.412814 16.3119 0 15.7551 0H3.6358C3.07944 0 2.59543 0.378729 2.4606 0.918417L0.140698 10.3696C0.0472275 10.7483 0 11.1384 0 11.5285V15.1821C0 16.1861 0.813888 17 1.8179 17H17.573C18.577 17 19.3909 16.1861 19.3909 15.1821V11.5285C19.3909 11.1377 19.3437 10.7483 19.2502 10.3692L16.9292 0.952503ZM13.3313 12.1534H6.05966L4.84773 9.72954H2.76358L4.58262 2.45795H14.8083L16.6273 9.72954H14.5432L13.3313 12.1534Z" fill="#B8B08D"/>
</svg>
