<svg width="30" height="28" viewBox="0 0 30 28" fill="none" xmlns="http://www.w3.org/2000/svg">
<path d="M26.1914 2.2959C25.9863 1.46094 25.2363 0.822266 24.375 0.822266H5.625C4.76426 0.822266 4.01543 1.4082 3.80684 2.24316L0.217676 16.8652C0.0730664 17.4512 0 18.0547 0 18.6582V24.3107C0 25.8641 1.25918 27.1232 2.8125 27.1232H27.1875C28.7408 27.1232 30 25.8641 30 24.3107V18.6582C30 18.0535 29.9269 17.4512 29.7823 16.8646L26.1914 2.2959ZM20.625 19.625H9.375L7.5 15.875H4.27559L7.08984 4.625H22.9102L25.7244 15.875H22.5L20.625 19.625Z" fill="white"/>
</svg>
