<svg width="11" height="12" viewBox="0 0 11 12" fill="none" xmlns="http://www.w3.org/2000/svg">
<path d="M4.99109 5.24585C4.99109 4.94608 5.23511 4.70081 5.53613 4.70081C5.83716 4.70081 6.08118 4.94608 6.08118 5.24585V8.51612C6.08118 8.8159 5.83716 9.06117 5.53613 9.06117C5.23511 9.06117 4.99109 8.8159 4.99109 8.51612V5.24585Z" fill="#FF0034"/>
<path d="M5.53613 2.55884C5.23511 2.55884 4.99109 2.80411 4.99109 3.10388C4.99109 3.40366 5.23511 3.64893 5.53613 3.64893C5.83716 3.64893 6.08118 3.40366 6.08118 3.10388C6.08118 2.80411 5.83716 2.55884 5.53613 2.55884Z" fill="#FF0034"/>
<path fill-rule="evenodd" clip-rule="evenodd" d="M5.53614 0.351379C2.52597 0.351379 0.0856934 2.79318 0.0856934 5.80183C0.0856934 8.81048 2.52597 11.2523 5.53614 11.2523C8.54632 11.2523 10.9866 8.81048 10.9866 5.80183C10.9866 2.79318 8.54632 0.351379 5.53614 0.351379ZM1.17578 5.80183C1.17578 8.21093 3.12797 10.1622 5.53614 10.1622C7.94432 10.1622 9.8965 8.21093 9.8965 5.80183C9.8965 3.39273 7.94432 1.44147 5.53614 1.44147C3.12797 1.44147 1.17578 3.39273 1.17578 5.80183Z" fill="#FF0034"/>
</svg>
