<svg width="12" height="12" viewBox="0 0 12 12" fill="none" xmlns="http://www.w3.org/2000/svg">
<path fill-rule="evenodd" clip-rule="evenodd" d="M0.499939 9.7072C0.499939 10.6103 1.23193 11.3423 2.13507 11.3423H9.7657C10.6688 11.3423 11.4008 10.6103 11.4008 9.7072V2.07657C11.4008 1.17343 10.6688 0.441437 9.7657 0.441437H2.13507C1.23193 0.441437 0.499939 1.17343 0.499939 2.07657V9.7072ZM10.3107 9.7072C10.3107 10.0081 10.0666 10.2522 9.7657 10.2522H2.13507C1.83421 10.2522 1.59003 10.0081 1.59003 9.7072V2.07657C1.59003 1.77571 1.83421 1.53153 2.13507 1.53153H4.8603V5.89787H6.16568L7.04048 4.72768L7.91527 5.89787H9.22066V1.53153H9.7657C10.0666 1.53153 10.3107 1.77571 10.3107 2.07657V9.7072ZM8.13057 1.53153H5.95039V4.43989L7.04048 2.98133L8.13057 4.43989V1.53153Z" fill="#0F56B3"/>
</svg>
