<svg width="13" height="17" viewBox="0 0 13 17" fill="none" xmlns="http://www.w3.org/2000/svg">
<g clip-path="url(#clip0_1308_3194)">
<path d="M5.57317 16.657C0.872527 9.66314 0 8.94535 0 6.375C0 2.85417 2.78099 0 6.21154 0C9.64209 0 12.4231 2.85417 12.4231 6.375C12.4231 8.94535 11.5506 9.66314 6.8499 16.657C6.54143 17.1144 5.88162 17.1143 5.57317 16.657ZM6.21154 9.03125C7.64094 9.03125 8.79968 7.84201 8.79968 6.375C8.79968 4.90799 7.64094 3.71875 6.21154 3.71875C4.78214 3.71875 3.6234 4.90799 3.6234 6.375C3.6234 7.84201 4.78214 9.03125 6.21154 9.03125Z" fill="#818181"/>
</g>
<defs>
<clipPath id="clip0_1308_3194">
<rect width="13" height="17" fill="white"/>
</clipPath>
</defs>
</svg>
