<svg width="18" height="24" viewBox="0 0 18 24" fill="none" xmlns="http://www.w3.org/2000/svg">
<path fill-rule="evenodd" clip-rule="evenodd" d="M13 6V7H5V6C5 3.79086 6.79086 2 9 2C11.2091 2 13 3.79086 13 6ZM3 7V6C3 2.68629 5.68629 0 9 0C12.3137 0 15 2.68629 15 6V7H17C17.5523 7 18 7.44772 18 8V23C18 23.5523 17.5523 24 17 24H1C0.447716 24 0 23.5523 0 23V8C0 7.44772 0.447715 7 1 7H3ZM12 16C12 17.6569 10.6569 19 9 19C7.34315 19 6 17.6569 6 16C6 14.3431 7.34315 13 9 13C10.6569 13 12 14.3431 12 16Z" fill="white"/>
</svg>
