<svg width="50" height="50" viewBox="0 0 50 50" fill="none" xmlns="http://www.w3.org/2000/svg">
<path fill-rule="evenodd" clip-rule="evenodd" d="M25 50C38.8071 50 50 38.8071 50 25C50 16.3075 45.5637 8.6512 38.8317 4.17166V25.4284C38.8317 28.2962 38.2033 30.729 36.9467 32.7268C35.7222 34.6923 34.0628 36.1745 31.9683 37.1734C29.9061 38.1723 27.6022 38.6718 25.0567 38.6718C22.5433 38.6718 20.2555 38.1723 18.1933 37.1734C16.1633 36.1745 14.5522 34.6923 13.36 32.7268C12.1678 30.729 11.5717 28.2962 11.5717 25.4284L11.6644 3.84994C4.65512 8.27875 0 16.0957 0 25C0 38.8071 11.1929 50 25 50ZM18.3383 0.897345V25.4768C18.3383 27.7646 18.9344 29.5207 20.1267 30.7451C21.3189 31.9373 22.9944 32.5334 25.1533 32.5334C27.3444 32.5334 29.0361 31.9373 30.2283 30.7451C31.4205 29.5207 32.0167 27.7646 32.0167 25.4768V0.998086C29.7906 0.348399 27.436 0 25 0C22.6931 0 20.4592 0.312452 18.3383 0.897345Z" fill="black"/>
</svg>
