<svg width="52" height="70" viewBox="0 0 52 70" fill="none" xmlns="http://www.w3.org/2000/svg">
<g clip-path="url(#clip0_124_96)">
<path d="M22.9484 68.5877C3.59276 39.7894 0 36.8338 0 26.25C0 11.7525 11.4511 0 25.5769 0C39.7027 0 51.1538 11.7525 51.1538 26.25C51.1538 36.8338 47.5611 39.7894 28.2055 68.5877C26.9353 70.4709 24.2184 70.4707 22.9484 68.5877ZM25.5769 37.1875C31.4627 37.1875 36.234 32.2906 36.234 26.25C36.234 20.2094 31.4627 15.3125 25.5769 15.3125C19.6912 15.3125 14.9199 20.2094 14.9199 26.25C14.9199 32.2906 19.6912 37.1875 25.5769 37.1875Z" fill="#F6AA1C"/>
</g>
<defs>
<clipPath id="clip0_124_96">
<rect width="51.1538" height="70" fill="white"/>
</clipPath>
</defs>
</svg>
