<svg width="33" height="20" viewBox="0 0 33 20" fill="none" xmlns="http://www.w3.org/2000/svg">
<path d="M20.5536 17.8616H11.8042V2.13782H20.5537L20.5536 17.8616Z" fill="#FF5F00"/>
<path d="M12.3591 10C12.3591 6.81042 13.8525 3.96914 16.1781 2.13809C14.4177 0.750041 12.2405 -0.00330147 9.9987 1.08764e-05C4.47644 1.08764e-05 0 4.47709 0 10C0 15.5229 4.47644 20 9.9987 20C12.2405 20.0033 14.4178 19.25 16.1782 17.8619C13.8528 16.0312 12.3591 13.1897 12.3591 10Z" fill="#EB001B"/>
<path d="M32.3577 10C32.3577 15.5229 27.8813 20 22.359 20C20.117 20.0033 17.9394 19.25 16.1787 17.8619C18.5049 16.0309 19.9984 13.1897 19.9984 10C19.9984 6.81027 18.5049 3.96914 16.1787 2.13809C17.9394 0.750083 20.1169 -0.00324341 22.3589 1.0497e-05C27.8811 1.0497e-05 32.3576 4.47709 32.3576 10" fill="#F79E1B"/>
</svg>
