<svg width="71" height="64" viewBox="0 0 71 64" fill="none" xmlns="http://www.w3.org/2000/svg">
<path fill-rule="evenodd" clip-rule="evenodd" d="M71 31.5C71 48.897 55.1061 63 35.5 63C28.8492 63 22.6255 61.3771 17.3046 58.5533L17.6475 58.8931L0.00445557 63.306L4.89886 47.4772C1.78589 42.793 0 37.3315 0 31.5C0 14.103 15.8939 0 35.5 0C55.1061 0 71 14.103 71 31.5ZM18 37C20.7614 37 23 34.7614 23 32C23 29.2386 20.7614 27 18 27C15.2386 27 13 29.2386 13 32C13 34.7614 15.2386 37 18 37ZM41 32C41 34.7614 38.7614 37 36 37C33.2386 37 31 34.7614 31 32C31 29.2386 33.2386 27 36 27C38.7614 27 41 29.2386 41 32ZM54 37C56.7614 37 59 34.7614 59 32C59 29.2386 56.7614 27 54 27C51.2386 27 49 29.2386 49 32C49 34.7614 51.2386 37 54 37Z" fill="#0F56B3"/>
</svg>
