<svg width="28" height="29" viewBox="0 0 28 29" fill="none" xmlns="http://www.w3.org/2000/svg">
<path d="M13 15.8264L13 13.1748L23.2601 13.1748L21.4375 11L23.2601 9L28 14.5006L23.3125 20L21.4375 18L23.2601 15.8264L13 15.8264Z" fill="white"/>
<path d="M15.8264 16L13.1748 16L13.1748 5.0559L11 7L9 5.0559L14.5006 6.558e-08L20 5L18 7L15.8264 5.0559L15.8264 16Z" fill="white"/>
<path d="M15 13.1736V15.8252L4.7399 15.8252L6.5625 18L4.7399 20L0 14.4994L4.6875 9L6.5625 11L4.7399 13.1736L15 13.1736Z" fill="white"/>
<path d="M13.1736 13L15.8252 13L15.8252 23.9441L18 22L20 23.9441L14.4994 29L9 24L11 22L13.1736 23.9441L13.1736 13Z" fill="white"/>
</svg>
