<svg width="176" height="154" viewBox="0 0 176 154" fill="none" xmlns="http://www.w3.org/2000/svg">
<g clip-path="url(#clip0_313_297)">
<path d="M8.4922 52.4785L0.00591808 47.6998C-0.108553 42.587 1.02704 37.5236 3.31409 32.9492C5.27064 41.8276 15.5673 46.0516 20.3181 53.8035C21.7812 56.2326 22.6789 58.9597 22.9446 61.7828C23.2103 64.6059 22.8371 67.4526 21.8527 70.1119L22.4109 76.9956C18.0249 75.6822 13.9758 73.4338 10.5426 70.4052C7.10947 67.3767 4.37383 63.64 2.5242 59.4526C1.50984 57.0933 0.796698 54.6156 0.401608 52.0781C4.35828 52.499 8.4922 52.4785 8.4922 52.4785Z" fill="#F2F2F2"/>
<path d="M161.047 139.416L161.307 133.567C164.02 132.117 167.046 131.351 170.122 131.336C165.888 134.796 166.417 141.466 163.547 146.12C162.641 147.564 161.421 148.786 159.978 149.695C158.535 150.604 156.906 151.177 155.212 151.371L151.669 153.54C151.183 150.83 151.29 148.048 151.983 145.384C152.677 142.72 153.939 140.238 155.684 138.109C156.675 136.924 157.811 135.869 159.065 134.968C159.914 137.204 161.047 139.416 161.047 139.416Z" fill="#F2F2F2"/>
<path d="M151.92 150.53L148.712 150.529L147.186 138.159L151.92 138.159L151.92 150.53Z" fill="#FFB6B6"/>
<path d="M152.737 153.638L142.394 153.638V153.507C142.394 152.44 142.818 151.416 143.573 150.661C144.328 149.906 145.352 149.482 146.42 149.482H146.42L148.309 148.049L151.835 149.482L152.737 149.482L152.737 153.638Z" fill="#2F2E41"/>
<path d="M137.016 150.53L133.809 150.529L132.283 138.159L137.017 138.159L137.016 150.53Z" fill="#FFB6B6"/>
<path d="M137.834 153.638L127.491 153.638V153.507C127.491 152.44 127.915 151.416 128.67 150.661C129.425 149.906 130.449 149.482 131.517 149.482H131.517L133.407 148.049L136.932 149.482L137.835 149.482L137.834 153.638Z" fill="#2F2E41"/>
<path d="M135.628 82.9011L156.493 83.4226C160.456 85.5745 160.516 90.2319 159.217 95.7615C159.217 95.7615 159.656 99.0481 158.779 99.9246C157.902 100.801 157.464 100.801 157.902 102.335C158.341 103.869 156.025 106.374 156.306 106.655C156.587 106.936 157.245 108.47 157.245 108.47L155.053 120.959C155.053 120.959 153.519 142.651 153.081 143.089C152.643 143.527 152.204 143.089 152.643 144.185C153.081 145.28 153.519 144.842 153.081 145.28C152.693 145.699 152.327 146.138 151.985 146.595H146.687C146.687 146.595 146.287 144.404 146.287 144.185C146.287 143.966 145.849 142.651 145.849 142.432C145.849 142.213 146.236 141.825 146.236 141.825C146.37 141.38 146.46 140.923 146.506 140.46C146.506 140.022 147.821 123.15 147.821 123.15L145.191 101.239L138.836 122.712C138.836 122.712 138.836 141.555 138.397 141.994C137.959 142.432 137.959 142.213 138.178 143.089C138.397 143.966 139.274 143.746 138.616 144.404C137.959 145.061 137.74 143.966 137.959 145.061L138.178 146.157L131.603 146.251C131.603 146.251 130.727 144.404 131.165 143.746C131.603 143.089 131.577 143.269 131.042 142.193C130.508 141.117 130.288 140.898 130.508 140.679C130.727 140.46 130.727 139.294 130.727 139.294L131.823 118.33C131.823 118.33 132.042 96.1997 132.042 95.5424C132.058 95.2041 131.996 94.8667 131.86 94.5567V93.6644L132.699 90.5029L135.628 82.9011Z" fill="#2F2E41"/>
<path d="M148.162 39.5255C151.742 39.5255 154.645 36.6237 154.645 33.0441C154.645 29.4646 151.742 26.5627 148.162 26.5627C144.582 26.5627 141.679 29.4646 141.679 33.0441C141.679 36.6237 144.582 39.5255 148.162 39.5255Z" fill="#FFB6B6"/>
<path d="M144.92 43.8093C143.524 44.6395 142.688 46.1647 142.209 47.7168C141.321 50.5902 140.786 53.5611 140.617 56.5638L140.111 65.5533L133.837 84.6946C139.274 89.2942 159.712 85.7399 159.712 85.7399C159.712 85.7399 160.339 85.5309 159.712 84.9036C159.084 84.2764 158.474 84.8321 159.101 84.2048C159.728 83.5776 159.296 84.2764 159.087 83.6491C158.878 83.0219 159.087 83.4401 159.296 83.231C159.505 83.0219 157.677 81.1402 157.677 81.1402L159.35 70.153L161.441 47.9908C158.932 44.8547 153.885 43.006 153.885 43.006L152.581 40.6592L146.061 41.1807L144.92 43.8093Z" fill="#E6E6E6"/>
<path d="M144.031 29.2405C144.282 29.2425 144.532 29.2752 144.775 29.338C145.253 29.4531 145.74 29.5346 146.23 29.582C147.73 29.7231 149.141 30.363 150.235 31.3995C151.329 32.4359 152.045 33.8091 152.267 35.2997C152.644 34.9713 153.501 34.3673 154.203 34.9287C154.214 34.9376 154.22 34.9422 154.245 34.9304C154.712 34.7092 155.54 31.9853 155.565 29.5869C155.578 28.314 155.378 26.6885 154.348 26.1737L154.294 26.1466L154.28 26.0877C154.211 25.8013 153.442 25.3125 152.106 24.9321C149.678 24.2408 146.06 22.894 144.022 24.876C143.867 25.5442 143.366 26.9741 142.859 27.1361C142.298 27.3155 141.813 27.4704 141.737 28.1587C141.673 29.1382 141.677 30.1209 141.75 31.0998C141.941 30.5008 142.314 29.9765 142.818 29.6008C143.176 29.3597 143.599 29.234 144.031 29.2405Z" fill="#2F2E41"/>
<path d="M131.965 65.0529L142.555 58.2725L137.221 51.1838L131.954 57.6609L115.544 58.6672C115.113 58.2406 114.566 57.9488 113.972 57.8274C113.377 57.7059 112.76 57.7601 112.196 57.9832C111.631 58.2064 111.144 58.5889 110.793 59.0841C110.443 59.5793 110.244 60.1658 110.221 60.7721C110.197 61.3785 110.351 61.9784 110.663 62.4988C110.976 63.0191 111.432 63.4375 111.978 63.7028C112.524 63.9681 113.135 64.0689 113.737 63.9929C114.339 63.9169 114.906 63.6674 115.369 63.2748L131.965 65.0529Z" fill="#FFB6B6"/>
<path d="M152.384 48.8082C152.998 52.527 141.392 59.6283 141.392 59.6283C141.391 58.7554 134.464 65.3449 134.151 64.621C133.263 62.5635 132.638 57.6904 131.396 56.9105C130.686 56.4644 135.673 52.2741 135.673 52.2741C135.673 52.2741 138.284 49.6447 141.709 46.3281C142.661 45.3725 143.838 44.673 145.132 44.2948C146.427 43.9166 147.796 43.8719 149.112 44.1649C149.112 44.1649 151.769 45.0895 152.384 48.8082Z" fill="#E6E6E6"/>
<path d="M174.21 66.8325L167.206 56.3911L160.23 61.8725L166.819 66.9997L168.172 83.381C167.755 83.8214 167.475 84.3738 167.366 84.9707C167.257 85.5676 167.324 86.1833 167.559 86.7427C167.794 87.3021 168.187 87.781 168.69 88.121C169.192 88.4611 169.783 88.6476 170.39 88.6577C170.997 88.6679 171.593 88.5014 172.107 88.1784C172.621 87.8554 173.03 87.39 173.283 86.8388C173.537 86.2876 173.625 85.6745 173.536 85.0743C173.448 84.474 173.186 83.9126 172.784 83.4584L174.21 66.8325Z" fill="#FFB6B6"/>
<path d="M157.534 46.7673C161.24 46.0742 168.587 57.5253 168.587 57.5253C167.714 57.544 174.45 64.3288 173.733 64.6566C171.694 65.5885 166.834 66.3162 166.08 67.574C165.649 68.2933 161.353 63.397 161.353 63.397C161.353 63.397 158.669 60.8432 155.28 57.4891C154.304 56.5587 153.58 55.3965 153.174 54.1108C152.768 52.8251 152.695 51.4577 152.96 50.1359C152.96 50.1359 153.828 47.4604 157.534 46.7673Z" fill="#E6E6E6"/>
<path d="M176 153.69C176 153.73 175.992 153.771 175.976 153.809C175.961 153.846 175.938 153.881 175.909 153.909C175.88 153.938 175.846 153.961 175.808 153.977C175.771 153.992 175.73 154 175.689 154H102.587C102.504 154 102.425 153.967 102.367 153.909C102.309 153.851 102.276 153.772 102.276 153.69C102.276 153.607 102.309 153.528 102.367 153.47C102.425 153.412 102.504 153.379 102.587 153.379H175.689C175.73 153.379 175.771 153.387 175.808 153.403C175.846 153.418 175.88 153.441 175.909 153.47C175.938 153.499 175.961 153.533 175.976 153.571C175.992 153.609 176 153.649 176 153.69Z" fill="#CCCCCC"/>
<path d="M108.279 59.6582H19.5587C18.1726 59.6598 16.8437 60.211 15.8636 61.1909C14.8835 62.1708 14.3321 63.4994 14.3306 64.8852V120.109C14.3321 121.495 14.8835 122.824 15.8636 123.804C16.8437 124.784 18.1726 125.335 19.5587 125.336H108.279C109.665 125.335 110.994 124.784 111.974 123.804C112.954 122.824 113.505 121.495 113.507 120.109V64.8852C113.505 63.4994 112.954 62.1708 111.974 61.1909C110.994 60.2109 109.665 59.6598 108.279 59.6582Z" fill="#B8B08D"/>
<path d="M108.279 59.6582H19.5587C18.1726 59.6598 16.8437 60.211 15.8636 61.1909C14.8835 62.1708 14.3321 63.4994 14.3306 64.8852V120.109C14.3321 121.495 14.8835 122.824 15.8636 123.804C16.8437 124.784 18.1726 125.335 19.5587 125.336H108.279C109.665 125.335 110.994 124.784 111.974 123.804C112.954 122.824 113.505 121.495 113.507 120.109V64.8852C113.505 63.4994 112.954 62.1708 111.974 61.1909C110.994 60.2109 109.665 59.6598 108.279 59.6582ZM109.995 99.3265C109.973 104.949 107.749 110.339 103.799 114.34C99.8483 118.341 94.4867 120.635 88.864 120.73C79.8618 120.847 93.8449 120.893 82.9875 120.893C58.1602 120.893 32.2722 120.656 22.6131 120.502C21.3423 120.476 20.132 119.954 19.2408 119.048C18.3495 118.142 17.8479 116.923 17.843 115.652V64.8893C17.8435 64.4342 18.0243 63.9978 18.3457 63.6757C18.6672 63.3535 19.1032 63.1717 19.5584 63.1701H108.275C108.73 63.1706 109.167 63.3513 109.489 63.6726C109.811 63.9939 109.993 64.4297 109.995 64.8847V99.3265Z" fill="#3F3D56"/>
<path d="M97.3576 27.8582H29.7622C29.1641 27.859 28.5809 28.0444 28.0921 28.389C27.6034 28.7336 27.2329 29.2206 27.0313 29.7835L16.5916 59.0659C16.4358 59.503 16.3872 59.9711 16.4499 60.4308C16.5127 60.8906 16.6849 61.3286 16.9521 61.7079C17.2193 62.0873 17.5736 62.3971 17.9854 62.6111C18.3972 62.8251 18.8544 62.9371 19.3185 62.9378L109.975 63.0986H109.979C110.459 63.0986 110.931 62.9796 111.353 62.7522C111.776 62.5247 112.135 62.1961 112.399 61.7957C112.663 61.3952 112.824 60.9355 112.867 60.4577C112.909 59.98 112.833 59.4991 112.644 59.0582L112.486 59.1259L112.644 59.0582L100.022 29.6149C99.7993 29.0933 99.4277 28.6486 98.954 28.3363C98.4802 28.024 97.9251 27.8577 97.3576 27.8582Z" fill="#3F3D56"/>
<path d="M112.879 59.6942C112.878 60.0869 112.798 60.4754 112.644 60.8363L100.023 83.5009C99.7984 84.0214 99.4264 84.4649 98.9528 84.7767C98.4792 85.0885 97.9247 85.255 97.3577 85.2558H29.7633C29.165 85.2552 28.5815 85.0701 28.0923 84.7257C27.6031 84.3813 27.2321 83.8944 27.03 83.3314L16.5923 60.8285C16.4644 60.47 16.4084 60.0898 16.4275 59.7096C16.4466 59.3295 16.5405 58.9568 16.7037 58.6129C16.867 58.2691 17.0964 57.9607 17.3789 57.7056C17.6614 57.4504 17.9915 57.2534 18.3502 57.1258C18.6605 57.0138 18.9879 56.9565 19.3178 56.9563L30.3918 56.9355L34.9117 56.9277L94.387 56.8234L98.9095 56.8155L109.976 56.7947H109.978C110.747 56.7948 111.485 57.1003 112.029 57.6441C112.573 58.1878 112.878 58.9253 112.879 59.6942Z" fill="#3F3D56"/>
<path d="M26.2097 101.083C27.5501 101.083 45.9568 102.207 45.9568 103.548C45.9568 104.888 27.5501 105.936 26.2097 105.936C25.566 105.936 24.9487 105.68 24.4936 105.225C24.0384 104.77 23.7827 104.153 23.7827 103.509C23.7827 102.866 24.0384 102.249 24.4936 101.793C24.9487 101.338 25.566 101.083 26.2097 101.083Z" fill="#3F3D56"/>
<path d="M93.148 10.0444H36.1529C34.6255 10.0462 33.1611 10.6536 32.081 11.7335C31.0009 12.8133 30.3934 14.2773 30.3916 15.8045V85.2559H97.3574C97.9073 85.2576 98.446 85.101 98.9093 84.8048V15.8045C98.9075 14.2773 98.2999 12.8133 97.2199 11.7335C96.1398 10.6536 94.6754 10.0462 93.148 10.0444Z" fill="#E6E6E6"/>
<path d="M71.3939 14.7144H40.1591C38.7683 14.7157 37.4347 15.2685 36.451 16.2516C35.4673 17.2346 34.9137 18.5675 34.9116 19.9581V85.2557H94.3869V37.7023C94.3799 31.6077 91.9552 25.7647 87.6447 21.4551C83.3341 17.1456 77.4898 14.7214 71.3939 14.7144Z" fill="white"/>
<path d="M84.2544 79.4565H45.0441C44.7051 79.4565 44.3801 79.5912 44.1404 79.8308C43.9008 80.0704 43.7661 80.3954 43.7661 80.7342C43.7661 81.0731 43.9008 81.3981 44.1404 81.6377C44.3801 81.8773 44.7051 82.0119 45.0441 82.0119H84.2544C84.5934 82.0119 84.9184 81.8773 85.1581 81.6377C85.3977 81.3981 85.5324 81.0731 85.5324 80.7342C85.5324 80.3954 85.3977 80.0704 85.1581 79.8308C84.9184 79.5912 84.5934 79.4565 84.2544 79.4565Z" fill="#E4E4E4"/>
<path d="M84.2543 74.4033H45.0439C44.7046 74.4033 44.3793 74.5381 44.1393 74.7779C43.8994 75.0178 43.7646 75.3431 43.7646 75.6823C43.7646 76.0215 43.8994 76.3468 44.1393 76.5867C44.3793 76.8265 44.7046 76.9613 45.0439 76.9613H84.2543C84.5935 76.9613 84.9189 76.8265 85.1588 76.5867C85.3987 76.3468 85.5335 76.0215 85.5335 75.6823C85.5335 75.3431 85.3987 75.0178 85.1588 74.7779C84.9189 74.5381 84.5935 74.4033 84.2543 74.4033Z" fill="#E4E4E4"/>
<path d="M62.0411 69.3525H45.0441C44.7051 69.3525 44.3801 69.4872 44.1404 69.7268C43.9008 69.9664 43.7661 70.2914 43.7661 70.6302C43.7661 70.9691 43.9008 71.2941 44.1404 71.5337C44.3801 71.7733 44.7051 71.9079 45.0441 71.9079H62.0411C62.3801 71.9079 62.7051 71.7733 62.9448 71.5337C63.1845 71.2941 63.3191 70.9691 63.3191 70.6302C63.3191 70.2914 63.1845 69.9664 62.9448 69.7268C62.7051 69.4872 62.3801 69.3525 62.0411 69.3525Z" fill="#E4E4E4"/>
<path d="M84.2543 58.771H45.0439C44.7046 58.771 44.3793 58.9057 44.1393 59.1456C43.8994 59.3855 43.7646 59.7108 43.7646 60.05C43.7646 60.3892 43.8994 60.7145 44.1393 60.9544C44.3793 61.1942 44.7046 61.329 45.0439 61.329H84.2543C84.5935 61.329 84.9189 61.1942 85.1588 60.9544C85.3987 60.7145 85.5335 60.3892 85.5335 60.05C85.5335 59.7108 85.3987 59.3855 85.1588 59.1456C84.9189 58.9057 84.5935 58.771 84.2543 58.771Z" fill="#E4E4E4"/>
<path d="M84.2544 53.7205H45.0441C44.7051 53.7205 44.3801 53.8551 44.1404 54.0947C43.9008 54.3343 43.7661 54.6593 43.7661 54.9981C43.7661 55.337 43.9008 55.662 44.1404 55.9016C44.3801 56.1412 44.7051 56.2758 45.0441 56.2758H84.2544C84.5934 56.2758 84.9184 56.1412 85.1581 55.9016C85.3977 55.662 85.5324 55.337 85.5324 54.9981C85.5324 54.6593 85.3977 54.3343 85.1581 54.0947C84.9184 53.8551 84.5934 53.7205 84.2544 53.7205Z" fill="#E4E4E4"/>
<path d="M62.041 48.667H45.0439C44.7046 48.667 44.3793 48.8017 44.1393 49.0416C43.8994 49.2815 43.7646 49.6068 43.7646 49.946C43.7646 50.2852 43.8994 50.6105 44.1393 50.8504C44.3793 51.0902 44.7046 51.225 45.0439 51.225H62.041C62.3803 51.225 62.7057 51.0902 62.9456 50.8504C63.1855 50.6105 63.3203 50.2852 63.3203 49.946C63.3203 49.6068 63.1855 49.2815 62.9456 49.0416C62.7057 48.8017 62.3803 48.667 62.041 48.667Z" fill="#E4E4E4"/>
<path d="M84.2543 38.0857H45.0439C44.7046 38.0857 44.3793 38.2204 44.1393 38.4603C43.8994 38.7002 43.7646 39.0255 43.7646 39.3647C43.7646 39.7039 43.8994 40.0292 44.1393 40.2691C44.3793 40.5089 44.7046 40.6437 45.0439 40.6437H84.2543C84.5935 40.6437 84.9189 40.5089 85.1588 40.2691C85.3987 40.0292 85.5335 39.7039 85.5335 39.3647C85.5335 39.0255 85.3987 38.7002 85.1588 38.4603C84.9189 38.2204 84.5935 38.0857 84.2543 38.0857Z" fill="#B8B08D"/>
<path d="M84.2543 33.0349H45.0439C44.7046 33.0349 44.3793 33.1697 44.1393 33.4095C43.8994 33.6494 43.7646 33.9747 43.7646 34.3139C43.7646 34.6531 43.8994 34.9784 44.1393 35.2183C44.3793 35.4582 44.7046 35.5929 45.0439 35.5929H84.2543C84.5935 35.5929 84.9189 35.4582 85.1588 35.2183C85.3987 34.9784 85.5335 34.6531 85.5335 34.3139C85.5335 33.9747 85.3987 33.6494 85.1588 33.4095C84.9189 33.1697 84.5935 33.0349 84.2543 33.0349Z" fill="#B8B08D"/>
<path d="M62.041 27.9814H45.0439C44.7046 27.9814 44.3793 28.1162 44.1393 28.3561C43.8994 28.5959 43.7646 28.9212 43.7646 29.2604C43.7646 29.5996 43.8994 29.925 44.1393 30.1648C44.3793 30.4047 44.7046 30.5394 45.0439 30.5394H62.041C62.3803 30.5394 62.7057 30.4047 62.9456 30.1648C63.1855 29.925 63.3203 29.5996 63.3203 29.2604C63.3203 28.9212 63.1855 28.5959 62.9456 28.3561C62.7057 28.1162 62.3803 27.9814 62.041 27.9814Z" fill="#B8B08D"/>
<path d="M96.7726 19.9021C102.27 19.9021 106.726 15.4469 106.726 9.95105C106.726 4.45524 102.27 0 96.7726 0C91.2756 0 86.8193 4.45524 86.8193 9.95105C86.8193 15.4469 91.2756 19.9021 96.7726 19.9021Z" fill="#B8B08D"/>
<path d="M95.4146 15.13C95.2427 15.13 95.0732 15.09 94.9195 15.0131C94.7658 14.9363 94.6321 14.8247 94.529 14.6872L91.8136 11.0674C91.7259 10.9511 91.662 10.8187 91.6255 10.6777C91.5891 10.5367 91.5808 10.3899 91.6013 10.2458C91.6217 10.1016 91.6703 9.96285 91.7444 9.83751C91.8186 9.71216 91.9167 9.60267 92.0332 9.5153C92.1497 9.42794 92.2824 9.36442 92.4235 9.32838C92.5646 9.29234 92.7114 9.2845 92.8556 9.30529C92.9997 9.32609 93.1384 9.37511 93.2636 9.44957C93.3887 9.52402 93.498 9.62243 93.585 9.73916L95.3616 12.1071L99.9243 5.26465C100.087 5.02038 100.34 4.8508 100.628 4.79323C100.916 4.73565 101.215 4.7948 101.46 4.95764C101.704 5.12049 101.874 5.37371 101.931 5.66158C101.989 5.94946 101.93 6.24842 101.767 6.49269L96.3359 14.6371C96.2377 14.7844 96.1056 14.906 95.9506 14.9917C95.7957 15.0774 95.6224 15.1247 95.4454 15.1297C95.4352 15.1298 95.4249 15.13 95.4146 15.13Z" fill="white"/>
</g>
<defs>
<clipPath id="clip0_313_297">
<rect width="176" height="154" fill="white"/>
</clipPath>
</defs>
</svg>
