<svg width="80" height="80" viewBox="0 0 80 80" fill="none" xmlns="http://www.w3.org/2000/svg">
<path d="M80 40C80 62.0914 62.0914 80 40 80C17.9086 80 0 62.0914 0 40C0 17.9086 17.9086 0 40 0C62.0914 0 80 17.9086 80 40ZM4.8 40C4.8 59.4404 20.5596 75.2 40 75.2C59.4404 75.2 75.2 59.4404 75.2 40C75.2 20.5596 59.4404 4.8 40 4.8C20.5596 4.8 4.8 20.5596 4.8 40Z" fill="#3A3A3A"/>
<path d="M46.8077 31.5294H40.4176V28H52.7706V40.353H49.2412V34.0882L40.5694 42.753L38.0723 40.2471L46.8077 31.5294Z" fill="#3A3A3A"/>
<path d="M38.5883 31.4233H28V52.6H49.1767V42.0117H45.6472V49.0706H31.5294V34.9528H38.5883V31.4233Z" fill="#3A3A3A"/>
</svg>
