<svg width="16" height="18" viewBox="0 0 16 18" fill="none" xmlns="http://www.w3.org/2000/svg">
<g clip-path="url(#clip0_880_4)">
<path d="M12.8039 2.9462C11.946 2.08804 10.5539 2.08804 9.69604 2.9462L3.22729 9.41495C1.74757 10.895 1.74757 13.2927 3.22729 14.7728C4.70737 16.2528 7.10503 16.2528 8.5851 14.7728L13.9289 9.42902C14.3121 9.04581 14.9378 9.04581 15.321 9.42902C15.7042 9.81222 15.7042 10.438 15.321 10.8212L9.97729 16.165C7.72729 18.415 4.08511 18.415 1.83511 16.165C-0.413135 13.915 -0.413135 10.2728 1.83511 8.02276L8.30385 1.55401C9.93159 -0.0730176 12.5683 -0.0730176 14.196 1.55401C15.8238 3.18105 15.8238 5.81847 14.196 7.4462L8.00854 13.6337C7.00307 14.6392 5.37182 14.6392 4.36636 13.6337C3.36054 12.6282 3.36054 10.997 4.36636 9.99152L9.42885 4.92901C9.81206 4.54581 10.4378 4.54581 10.821 4.92901C11.2042 5.31222 11.2042 5.938 10.821 6.3212L5.75854 11.3837C5.523 11.6192 5.523 12.006 5.75854 12.2415C5.99409 12.4771 6.38081 12.4771 6.61635 12.2415L12.8039 6.05401C13.6617 5.1962 13.6617 3.80401 12.8039 2.9462Z" fill="#C4C4C4"/>
</g>
<defs>
<clipPath id="clip0_880_4">
<rect width="15.75" height="18" fill="white"/>
</clipPath>
</defs>
</svg>
