<svg width="321" height="185" viewBox="0 0 321 185" fill="none" xmlns="http://www.w3.org/2000/svg">
<path d="M306 0H15C6.71573 0 0 6.71573 0 15V170C0 178.284 6.71573 185 15 185H306C314.284 185 321 178.284 321 170V15C321 6.71573 314.284 0 306 0Z" fill="#001220"/>
<path d="M321 96.5718C321 107.59 309.516 114.853 299.56 110.133C288.742 105.004 277.802 99.8105 266.5 94.4C247.7 85.4 228 75.9 216.9 60.1C208.51 48.2642 205.002 32.8931 202.761 16.593C201.546 7.75381 208.586 0 217.509 0H306C314.284 0 321 6.71573 321 15V96.5718Z" fill="#3D3056"/>
<path d="M321 56.3831C321 67.4231 309.467 74.7018 299.496 69.9618C294.635 67.6507 289.716 65.3076 284.7 62.9C272.1 57 259 50.6 251.6 40.1C247.022 33.5424 244.625 25.4156 243.061 16.6667C241.483 7.8442 248.659 0 257.621 0H306C314.284 0 321 6.71573 321 15V56.3831Z" fill="#E1685E"/>
<path d="M321 19.9704C321 29.3496 311.268 35.5324 302.8 31.5V31.5C296.6 28.5 290 25.3 286.3 20C285.493 18.8659 284.819 17.6271 284.251 16.3064C280.722 8.11139 288.687 0 297.609 0H306C314.284 0 321 6.71573 321 15V19.9704Z" fill="#FBAE3C"/>
<path d="M0 81.87C0 72.8201 7.9676 65.7426 16.9087 67.1417C32.6057 69.5981 47.6319 73.1536 60.1 80.9C77.1 91.3 89.5 109.4 98.7 128C104.835 140.27 109.577 152.801 113.875 165.421C117.156 175.057 109.873 185 99.6936 185H15C6.71572 185 0 178.284 0 170V81.87Z" fill="#3D3056"/>
<path d="M0 121.909C0 112.846 8.01461 105.647 16.9123 107.373C25.3172 109.004 33.2742 111.372 40.1 115.6C51.4 122.5 59.6 134.6 65.8 147C68.8451 153.09 71.3837 159.277 73.6645 165.513C77.1559 175.059 69.8088 185 59.6446 185H15C6.71574 185 0 178.284 0 170V121.909Z" fill="#E1685E"/>
<path d="M0 162.127C0 153.023 8.40203 145.023 16.7664 148.62C17.8916 149.103 18.9727 149.658 20 150.3C25.7 153.8 29.8 159.8 32.9 166V166C37.3839 174.968 29.7876 185 19.7613 185H15C6.71574 185 0 178.284 0 170V162.127Z" fill="#FBAE3C"/>
<path d="M41.67 103.77C41.67 104.33 41.535 104.855 41.265 105.345C41.005 105.835 40.59 106.23 40.02 106.53C39.46 106.83 38.75 106.98 37.89 106.98H36.135V111H34.035V100.53H37.89C38.7 100.53 39.39 100.67 39.96 100.95C40.53 101.23 40.955 101.615 41.235 102.105C41.525 102.595 41.67 103.15 41.67 103.77ZM37.8 105.285C38.38 105.285 38.81 105.155 39.09 104.895C39.37 104.625 39.51 104.25 39.51 103.77C39.51 102.75 38.94 102.24 37.8 102.24H36.135V105.285H37.8ZM42.621 106.815C42.621 105.975 42.786 105.23 43.116 104.58C43.456 103.93 43.911 103.43 44.481 103.08C45.061 102.73 45.706 102.555 46.416 102.555C47.036 102.555 47.576 102.68 48.036 102.93C48.506 103.18 48.881 103.495 49.161 103.875V102.69H51.276V111H49.161V109.785C48.891 110.175 48.516 110.5 48.036 110.76C47.566 111.01 47.021 111.135 46.401 111.135C45.701 111.135 45.061 110.955 44.481 110.595C43.911 110.235 43.456 109.73 43.116 109.08C42.786 108.42 42.621 107.665 42.621 106.815ZM49.161 106.845C49.161 106.335 49.061 105.9 48.861 105.54C48.661 105.17 48.391 104.89 48.051 104.7C47.711 104.5 47.346 104.4 46.956 104.4C46.566 104.4 46.206 104.495 45.876 104.685C45.546 104.875 45.276 105.155 45.066 105.525C44.866 105.885 44.766 106.315 44.766 106.815C44.766 107.315 44.866 107.755 45.066 108.135C45.276 108.505 45.546 108.79 45.876 108.99C46.216 109.19 46.576 109.29 46.956 109.29C47.346 109.29 47.711 109.195 48.051 109.005C48.391 108.805 48.661 108.525 48.861 108.165C49.061 107.795 49.161 107.355 49.161 106.845ZM61.277 102.69L56.132 114.93H53.897L55.697 110.79L52.367 102.69H54.722L56.867 108.495L59.042 102.69H61.277ZM72.729 102.57C73.749 102.57 74.569 102.885 75.189 103.515C75.819 104.135 76.134 105.005 76.134 106.125V111H74.034V106.41C74.034 105.76 73.869 105.265 73.539 104.925C73.209 104.575 72.759 104.4 72.189 104.4C71.619 104.4 71.164 104.575 70.824 104.925C70.494 105.265 70.329 105.76 70.329 106.41V111H68.229V106.41C68.229 105.76 68.064 105.265 67.734 104.925C67.404 104.575 66.954 104.4 66.384 104.4C65.804 104.4 65.344 104.575 65.004 104.925C64.674 105.265 64.509 105.76 64.509 106.41V111H62.409V102.69H64.509V103.695C64.779 103.345 65.124 103.07 65.544 102.87C65.974 102.67 66.444 102.57 66.954 102.57C67.604 102.57 68.184 102.71 68.694 102.99C69.204 103.26 69.599 103.65 69.879 104.16C70.149 103.68 70.539 103.295 71.049 103.005C71.569 102.715 72.129 102.57 72.729 102.57ZM85.8518 106.665C85.8518 106.965 85.8318 107.235 85.7918 107.475H79.7168C79.7668 108.075 79.9768 108.545 80.3468 108.885C80.7168 109.225 81.1718 109.395 81.7118 109.395C82.4918 109.395 83.0468 109.06 83.3768 108.39H85.6418C85.4018 109.19 84.9418 109.85 84.2618 110.37C83.5818 110.88 82.7468 111.135 81.7568 111.135C80.9568 111.135 80.2368 110.96 79.5968 110.61C78.9668 110.25 78.4718 109.745 78.1118 109.095C77.7618 108.445 77.5868 107.695 77.5868 106.845C77.5868 105.985 77.7618 105.23 78.1118 104.58C78.4618 103.93 78.9518 103.43 79.5818 103.08C80.2118 102.73 80.9368 102.555 81.7568 102.555C82.5468 102.555 83.2518 102.725 83.8718 103.065C84.5018 103.405 84.9868 103.89 85.3268 104.52C85.6768 105.14 85.8518 105.855 85.8518 106.665ZM83.6768 106.065C83.6668 105.525 83.4718 105.095 83.0918 104.775C82.7118 104.445 82.2468 104.28 81.6968 104.28C81.1768 104.28 80.7368 104.44 80.3768 104.76C80.0268 105.07 79.8118 105.505 79.7318 106.065H83.6768ZM91.9896 102.57C92.9796 102.57 93.7796 102.885 94.3896 103.515C94.9996 104.135 95.3046 105.005 95.3046 106.125V111H93.2046V106.41C93.2046 105.75 93.0396 105.245 92.7096 104.895C92.3796 104.535 91.9296 104.355 91.3596 104.355C90.7796 104.355 90.3196 104.535 89.9796 104.895C89.6496 105.245 89.4846 105.75 89.4846 106.41V111H87.3846V102.69H89.4846V103.725C89.7646 103.365 90.1196 103.085 90.5496 102.885C90.9896 102.675 91.4696 102.57 91.9896 102.57ZM99.7466 104.415V108.435C99.7466 108.715 99.8116 108.92 99.9416 109.05C100.082 109.17 100.312 109.23 100.632 109.23H101.607V111H100.287C98.5166 111 97.6316 110.14 97.6316 108.42V104.415H96.6416V102.69H97.6316V100.635H99.7466V102.69H101.607V104.415H99.7466ZM106.181 105.75C106.181 104.72 106.411 103.8 106.871 102.99C107.341 102.17 107.976 101.535 108.776 101.085C109.586 100.625 110.491 100.395 111.491 100.395C112.661 100.395 113.686 100.695 114.566 101.295C115.446 101.895 116.061 102.725 116.411 103.785H113.996C113.756 103.285 113.416 102.91 112.976 102.66C112.546 102.41 112.046 102.285 111.476 102.285C110.866 102.285 110.321 102.43 109.841 102.72C109.371 103 109.001 103.4 108.731 103.92C108.471 104.44 108.341 105.05 108.341 105.75C108.341 106.44 108.471 107.05 108.731 107.58C109.001 108.1 109.371 108.505 109.841 108.795C110.321 109.075 110.866 109.215 111.476 109.215C112.046 109.215 112.546 109.09 112.976 108.84C113.416 108.58 113.756 108.2 113.996 107.7H116.411C116.061 108.77 115.446 109.605 114.566 110.205C113.696 110.795 112.671 111.09 111.491 111.09C110.491 111.09 109.586 110.865 108.776 110.415C107.976 109.955 107.341 109.32 106.871 108.51C106.411 107.7 106.181 106.78 106.181 105.75ZM117.665 106.815C117.665 105.975 117.83 105.23 118.16 104.58C118.5 103.93 118.955 103.43 119.525 103.08C120.105 102.73 120.75 102.555 121.46 102.555C122.08 102.555 122.62 102.68 123.08 102.93C123.55 103.18 123.925 103.495 124.205 103.875V102.69H126.32V111H124.205V109.785C123.935 110.175 123.56 110.5 123.08 110.76C122.61 111.01 122.065 111.135 121.445 111.135C120.745 111.135 120.105 110.955 119.525 110.595C118.955 110.235 118.5 109.73 118.16 109.08C117.83 108.42 117.665 107.665 117.665 106.815ZM124.205 106.845C124.205 106.335 124.105 105.9 123.905 105.54C123.705 105.17 123.435 104.89 123.095 104.7C122.755 104.5 122.39 104.4 122 104.4C121.61 104.4 121.25 104.495 120.92 104.685C120.59 104.875 120.32 105.155 120.11 105.525C119.91 105.885 119.81 106.315 119.81 106.815C119.81 107.315 119.91 107.755 120.11 108.135C120.32 108.505 120.59 108.79 120.92 108.99C121.26 109.19 121.62 109.29 122 109.29C122.39 109.29 122.755 109.195 123.095 109.005C123.435 108.805 123.705 108.525 123.905 108.165C124.105 107.795 124.205 107.355 124.205 106.845ZM130.471 103.98C130.741 103.54 131.091 103.195 131.521 102.945C131.961 102.695 132.461 102.57 133.021 102.57V104.775H132.466C131.806 104.775 131.306 104.93 130.966 105.24C130.636 105.55 130.471 106.09 130.471 106.86V111H128.371V102.69H130.471V103.98ZM133.895 106.815C133.895 105.975 134.06 105.23 134.39 104.58C134.73 103.93 135.19 103.43 135.77 103.08C136.35 102.73 136.995 102.555 137.705 102.555C138.245 102.555 138.76 102.675 139.25 102.915C139.74 103.145 140.13 103.455 140.42 103.845V99.9H142.55V111H140.42V109.77C140.16 110.18 139.795 110.51 139.325 110.76C138.855 111.01 138.31 111.135 137.69 111.135C136.99 111.135 136.35 110.955 135.77 110.595C135.19 110.235 134.73 109.73 134.39 109.08C134.06 108.42 133.895 107.665 133.895 106.815ZM140.435 106.845C140.435 106.335 140.335 105.9 140.135 105.54C139.935 105.17 139.665 104.89 139.325 104.7C138.985 104.5 138.62 104.4 138.23 104.4C137.84 104.4 137.48 104.495 137.15 104.685C136.82 104.875 136.55 105.155 136.34 105.525C136.14 105.885 136.04 106.315 136.04 106.815C136.04 107.315 136.14 107.755 136.34 108.135C136.55 108.505 136.82 108.79 137.15 108.99C137.49 109.19 137.85 109.29 138.23 109.29C138.62 109.29 138.985 109.195 139.325 109.005C139.665 108.805 139.935 108.525 140.135 108.165C140.335 107.795 140.435 107.355 140.435 106.845Z" fill="white"/>
<path fill-rule="evenodd" clip-rule="evenodd" d="M246.505 43.5244L250.205 33V33.0017H254.201L248.263 48.4751H244.268L240.88 35.1592C243.273 36.4518 245.418 39.0542 246.102 41.4489L246.505 43.5244ZM255.723 33L253.361 48.4906H257.137L259.498 33H255.723ZM267.114 39.31C265.794 38.6234 264.985 38.16 264.985 37.4577C265.002 36.8192 265.67 36.165 267.161 36.165C268.388 36.1326 269.29 36.4364 269.974 36.7386L270.317 36.8998L270.83 33.6587C270.084 33.355 268.901 33.0202 267.441 33.0202C263.711 33.0202 261.086 35.0631 261.069 37.9849C261.038 40.141 262.949 41.3374 264.379 42.0552C265.84 42.7914 266.337 43.2688 266.337 43.9229C266.321 44.9273 265.156 45.3907 264.069 45.3907C262.563 45.3907 261.754 45.152 260.525 44.5924L260.028 44.3537L259.5 47.7219C260.387 48.1374 262.018 48.503 263.712 48.5217C267.675 48.5217 270.254 46.5098 270.286 43.3959C270.299 41.6878 269.291 40.3795 267.114 39.31ZM277.59 33.0479H280.511L283.556 48.503H280.061L279.495 45.4171H275.061L273.969 48.4906H270.006L275.615 34.2942C276.005 33.3208 276.689 33.0479 277.59 33.0479ZM276.16 42.3134C276.241 42.3056 277.681 37.2971 277.681 37.2971L278.831 42.3134H276.16Z" fill="white"/>
<path d="M244.856 35.1091C244.586 33.8602 243.723 33.018 242.552 33H237.057L237 33.303C241.287 34.5584 244.885 38.421 246.053 42.0543L244.856 35.1091Z" fill="white"/>
</svg>
