<svg width="321" height="185" viewBox="0 0 321 185" fill="none" xmlns="http://www.w3.org/2000/svg">
<g clip-path="url(#clip0_362_537)">
<rect width="321" height="185" rx="20" fill="#2B00D4"/>
<path d="M392 194C392 243.706 351.706 284 302 284C252.294 284 212 243.706 212 194C212 144.294 252.294 104 302 104C351.706 104 392 144.294 392 194ZM243.814 194C243.814 226.135 269.865 252.186 302 252.186C334.135 252.186 360.186 226.135 360.186 194C360.186 161.865 334.135 135.814 302 135.814C269.865 135.814 243.814 161.865 243.814 194Z" fill="white" fill-opacity="0.2"/>
<path d="M35.67 90.77C35.67 91.33 35.535 91.855 35.265 92.345C35.005 92.835 34.59 93.23 34.02 93.53C33.46 93.83 32.75 93.98 31.89 93.98H30.135V98H28.035V87.53H31.89C32.7 87.53 33.39 87.67 33.96 87.95C34.53 88.23 34.955 88.615 35.235 89.105C35.525 89.595 35.67 90.15 35.67 90.77ZM31.8 92.285C32.38 92.285 32.81 92.155 33.09 91.895C33.37 91.625 33.51 91.25 33.51 90.77C33.51 89.75 32.94 89.24 31.8 89.24H30.135V92.285H31.8ZM36.621 93.815C36.621 92.975 36.786 92.23 37.116 91.58C37.456 90.93 37.911 90.43 38.481 90.08C39.061 89.73 39.706 89.555 40.416 89.555C41.036 89.555 41.576 89.68 42.036 89.93C42.506 90.18 42.881 90.495 43.161 90.875V89.69H45.276V98H43.161V96.785C42.891 97.175 42.516 97.5 42.036 97.76C41.566 98.01 41.021 98.135 40.401 98.135C39.701 98.135 39.061 97.955 38.481 97.595C37.911 97.235 37.456 96.73 37.116 96.08C36.786 95.42 36.621 94.665 36.621 93.815ZM43.161 93.845C43.161 93.335 43.061 92.9 42.861 92.54C42.661 92.17 42.391 91.89 42.051 91.7C41.711 91.5 41.346 91.4 40.956 91.4C40.566 91.4 40.206 91.495 39.876 91.685C39.546 91.875 39.276 92.155 39.066 92.525C38.866 92.885 38.766 93.315 38.766 93.815C38.766 94.315 38.866 94.755 39.066 95.135C39.276 95.505 39.546 95.79 39.876 95.99C40.216 96.19 40.576 96.29 40.956 96.29C41.346 96.29 41.711 96.195 42.051 96.005C42.391 95.805 42.661 95.525 42.861 95.165C43.061 94.795 43.161 94.355 43.161 93.845ZM55.277 89.69L50.132 101.93H47.897L49.697 97.79L46.367 89.69H48.722L50.867 95.495L53.042 89.69H55.277ZM66.729 89.57C67.749 89.57 68.569 89.885 69.189 90.515C69.819 91.135 70.134 92.005 70.134 93.125V98H68.034V93.41C68.034 92.76 67.869 92.265 67.539 91.925C67.209 91.575 66.759 91.4 66.189 91.4C65.619 91.4 65.164 91.575 64.824 91.925C64.494 92.265 64.329 92.76 64.329 93.41V98H62.229V93.41C62.229 92.76 62.064 92.265 61.734 91.925C61.404 91.575 60.954 91.4 60.384 91.4C59.804 91.4 59.344 91.575 59.004 91.925C58.674 92.265 58.509 92.76 58.509 93.41V98H56.409V89.69H58.509V90.695C58.779 90.345 59.124 90.07 59.544 89.87C59.974 89.67 60.444 89.57 60.954 89.57C61.604 89.57 62.184 89.71 62.694 89.99C63.204 90.26 63.599 90.65 63.879 91.16C64.149 90.68 64.539 90.295 65.049 90.005C65.569 89.715 66.129 89.57 66.729 89.57ZM79.8518 93.665C79.8518 93.965 79.8318 94.235 79.7918 94.475H73.7168C73.7668 95.075 73.9768 95.545 74.3468 95.885C74.7168 96.225 75.1718 96.395 75.7118 96.395C76.4918 96.395 77.0468 96.06 77.3768 95.39H79.6418C79.4018 96.19 78.9418 96.85 78.2618 97.37C77.5818 97.88 76.7468 98.135 75.7568 98.135C74.9568 98.135 74.2368 97.96 73.5968 97.61C72.9668 97.25 72.4718 96.745 72.1118 96.095C71.7618 95.445 71.5868 94.695 71.5868 93.845C71.5868 92.985 71.7618 92.23 72.1118 91.58C72.4618 90.93 72.9518 90.43 73.5818 90.08C74.2118 89.73 74.9368 89.555 75.7568 89.555C76.5468 89.555 77.2518 89.725 77.8718 90.065C78.5018 90.405 78.9868 90.89 79.3268 91.52C79.6768 92.14 79.8518 92.855 79.8518 93.665ZM77.6768 93.065C77.6668 92.525 77.4718 92.095 77.0918 91.775C76.7118 91.445 76.2468 91.28 75.6968 91.28C75.1768 91.28 74.7368 91.44 74.3768 91.76C74.0268 92.07 73.8118 92.505 73.7318 93.065H77.6768ZM85.9896 89.57C86.9796 89.57 87.7796 89.885 88.3896 90.515C88.9996 91.135 89.3046 92.005 89.3046 93.125V98H87.2046V93.41C87.2046 92.75 87.0396 92.245 86.7096 91.895C86.3796 91.535 85.9296 91.355 85.3596 91.355C84.7796 91.355 84.3196 91.535 83.9796 91.895C83.6496 92.245 83.4846 92.75 83.4846 93.41V98H81.3846V89.69H83.4846V90.725C83.7646 90.365 84.1196 90.085 84.5496 89.885C84.9896 89.675 85.4696 89.57 85.9896 89.57ZM93.7466 91.415V95.435C93.7466 95.715 93.8116 95.92 93.9416 96.05C94.0816 96.17 94.3116 96.23 94.6316 96.23H95.6066V98H94.2866C92.5166 98 91.6316 97.14 91.6316 95.42V91.415H90.6416V89.69H91.6316V87.635H93.7466V89.69H95.6066V91.415H93.7466ZM100.181 92.75C100.181 91.72 100.411 90.8 100.871 89.99C101.341 89.17 101.976 88.535 102.776 88.085C103.586 87.625 104.491 87.395 105.491 87.395C106.661 87.395 107.686 87.695 108.566 88.295C109.446 88.895 110.061 89.725 110.411 90.785H107.996C107.756 90.285 107.416 89.91 106.976 89.66C106.546 89.41 106.046 89.285 105.476 89.285C104.866 89.285 104.321 89.43 103.841 89.72C103.371 90 103.001 90.4 102.731 90.92C102.471 91.44 102.341 92.05 102.341 92.75C102.341 93.44 102.471 94.05 102.731 94.58C103.001 95.1 103.371 95.505 103.841 95.795C104.321 96.075 104.866 96.215 105.476 96.215C106.046 96.215 106.546 96.09 106.976 95.84C107.416 95.58 107.756 95.2 107.996 94.7H110.411C110.061 95.77 109.446 96.605 108.566 97.205C107.696 97.795 106.671 98.09 105.491 98.09C104.491 98.09 103.586 97.865 102.776 97.415C101.976 96.955 101.341 96.32 100.871 95.51C100.411 94.7 100.181 93.78 100.181 92.75ZM111.665 93.815C111.665 92.975 111.83 92.23 112.16 91.58C112.5 90.93 112.955 90.43 113.525 90.08C114.105 89.73 114.75 89.555 115.46 89.555C116.08 89.555 116.62 89.68 117.08 89.93C117.55 90.18 117.925 90.495 118.205 90.875V89.69H120.32V98H118.205V96.785C117.935 97.175 117.56 97.5 117.08 97.76C116.61 98.01 116.065 98.135 115.445 98.135C114.745 98.135 114.105 97.955 113.525 97.595C112.955 97.235 112.5 96.73 112.16 96.08C111.83 95.42 111.665 94.665 111.665 93.815ZM118.205 93.845C118.205 93.335 118.105 92.9 117.905 92.54C117.705 92.17 117.435 91.89 117.095 91.7C116.755 91.5 116.39 91.4 116 91.4C115.61 91.4 115.25 91.495 114.92 91.685C114.59 91.875 114.32 92.155 114.11 92.525C113.91 92.885 113.81 93.315 113.81 93.815C113.81 94.315 113.91 94.755 114.11 95.135C114.32 95.505 114.59 95.79 114.92 95.99C115.26 96.19 115.62 96.29 116 96.29C116.39 96.29 116.755 96.195 117.095 96.005C117.435 95.805 117.705 95.525 117.905 95.165C118.105 94.795 118.205 94.355 118.205 93.845ZM124.471 90.98C124.741 90.54 125.091 90.195 125.521 89.945C125.961 89.695 126.461 89.57 127.021 89.57V91.775H126.466C125.806 91.775 125.306 91.93 124.966 92.24C124.636 92.55 124.471 93.09 124.471 93.86V98H122.371V89.69H124.471V90.98ZM127.895 93.815C127.895 92.975 128.06 92.23 128.39 91.58C128.73 90.93 129.19 90.43 129.77 90.08C130.35 89.73 130.995 89.555 131.705 89.555C132.245 89.555 132.76 89.675 133.25 89.915C133.74 90.145 134.13 90.455 134.42 90.845V86.9H136.55V98H134.42V96.77C134.16 97.18 133.795 97.51 133.325 97.76C132.855 98.01 132.31 98.135 131.69 98.135C130.99 98.135 130.35 97.955 129.77 97.595C129.19 97.235 128.73 96.73 128.39 96.08C128.06 95.42 127.895 94.665 127.895 93.815ZM134.435 93.845C134.435 93.335 134.335 92.9 134.135 92.54C133.935 92.17 133.665 91.89 133.325 91.7C132.985 91.5 132.62 91.4 132.23 91.4C131.84 91.4 131.48 91.495 131.15 91.685C130.82 91.875 130.55 92.155 130.34 92.525C130.14 92.885 130.04 93.315 130.04 93.815C130.04 94.315 130.14 94.755 130.34 95.135C130.55 95.505 130.82 95.79 131.15 95.99C131.49 96.19 131.85 96.29 132.23 96.29C132.62 96.29 132.985 96.195 133.325 96.005C133.665 95.805 133.935 95.525 134.135 95.165C134.335 94.795 134.435 94.355 134.435 93.845Z" fill="white"/>
<path fill-rule="evenodd" clip-rule="evenodd" d="M257.505 39.5244L261.205 29V29.0017H265.201L259.263 44.4751H255.268L251.88 31.1592C254.273 32.4518 256.418 35.0542 257.102 37.4489L257.505 39.5244ZM266.723 29L264.361 44.4906H268.137L270.498 29H266.723ZM278.114 35.31C276.794 34.6234 275.985 34.16 275.985 33.4577C276.002 32.8192 276.67 32.165 278.161 32.165C279.388 32.1326 280.29 32.4364 280.974 32.7386L281.317 32.8998L281.83 29.6587C281.084 29.355 279.901 29.0202 278.441 29.0202C274.711 29.0202 272.086 31.0631 272.069 33.9849C272.038 36.141 273.949 37.3374 275.379 38.0552C276.84 38.7914 277.337 39.2688 277.337 39.9229C277.321 40.9273 276.156 41.3907 275.069 41.3907C273.563 41.3907 272.754 41.152 271.525 40.5924L271.028 40.3537L270.5 43.7219C271.387 44.1374 273.018 44.503 274.712 44.5217C278.675 44.5217 281.253 42.5098 281.286 39.3959C281.299 37.6878 280.291 36.3795 278.114 35.31ZM288.59 29.0479H291.511L294.556 44.503H291.061L290.495 41.417H286.061L284.969 44.4906H281.006L286.615 30.2942C287.005 29.3208 287.689 29.0479 288.59 29.0479ZM287.16 38.3134C287.241 38.3056 288.681 33.2971 288.681 33.2971L289.831 38.3134H287.16Z" fill="white"/>
<path d="M255.856 31.1091C255.586 29.8602 254.723 29.018 253.552 29H248.057L248 29.303C252.287 30.5584 255.885 34.421 257.053 38.0543L255.856 31.1091Z" fill="white"/>
<rect x="-62.5" y="-78.5" width="165" height="165" stroke="white" stroke-opacity="0.2" stroke-width="35"/>
</g>
<defs>
<clipPath id="clip0_362_537">
<rect width="321" height="185" fill="white"/>
</clipPath>
</defs>
</svg>
