<svg width="16" height="12" viewBox="0 0 16 12" fill="none" xmlns="http://www.w3.org/2000/svg">
<path d="M2.8645 3.97256C2.8645 3.62445 3.14703 3.34192 3.49515 3.34192H6.01773C6.36584 3.34192 6.64837 3.62445 6.64837 3.97256C6.64837 4.32068 6.36584 4.60321 6.01773 4.60321H3.49515C3.14703 4.60321 2.8645 4.32068 2.8645 3.97256Z" fill="#0F56B3"/>
<path fill-rule="evenodd" clip-rule="evenodd" d="M2.8645 0.188599C1.4714 0.188599 0.341919 1.31808 0.341919 2.71118V9.01763C0.341919 10.4107 1.4714 11.5402 2.8645 11.5402H12.9548C14.3479 11.5402 15.4774 10.4107 15.4774 9.01763V2.71118C15.4774 1.31808 14.3479 0.188599 12.9548 0.188599H2.8645ZM12.9548 1.44989H2.8645C2.16764 1.44989 1.60321 2.01432 1.60321 2.71118V7.12569H14.2161V2.71118C14.2161 2.01432 13.6517 1.44989 12.9548 1.44989ZM14.2161 8.38698H1.60321V9.01763C1.60321 9.71449 2.16764 10.2789 2.8645 10.2789H12.9548C13.6517 10.2789 14.2161 9.71449 14.2161 9.01763V8.38698Z" fill="#0F56B3"/>
</svg>
