<svg width="60" height="60" viewBox="0 0 60 60" fill="none" xmlns="http://www.w3.org/2000/svg">
<path d="M0 18C0 8.05888 8.05888 0 18 0H42C51.9411 0 60 8.05888 60 18V42C60 51.9411 51.9411 60 42 60H18C8.05888 60 0 51.9411 0 42V18Z" fill="#F1F1F1"/>
<rect x="2" y="2" width="56" height="56" rx="15" fill="white"/>
<g clip-path="url(#clip0_201_2)">
<path d="M54.6052 22.5239C54.0111 17.8967 52.3506 13.6846 49.4449 10.5998C46.3601 7.69405 42.148 6.03363 37.5208 5.43945C33.0726 4.84528 30.0448 5.02435 30.0448 5.02435C30.0448 5.02435 27.021 4.90633 22.5688 5.43945C17.9416 6.03363 13.7295 7.69405 10.6446 10.5998C7.73889 13.6846 6.07847 17.8967 5.4843 22.5239C4.89419 26.9762 5.01221 29.9999 5.01221 29.9999C5.01221 29.9999 4.89419 33.0237 5.42732 37.4759C6.02149 42.1031 7.68192 46.3153 10.5877 49.4001C13.6725 52.3058 17.8846 53.9662 22.5118 54.5604C26.96 55.1546 29.9878 54.9755 29.9878 54.9755C29.9878 54.9755 33.0116 55.0935 37.4638 54.5604C42.091 53.9662 46.3031 52.3058 49.3879 49.4001C52.2937 46.3153 53.9541 42.1031 54.5483 37.4759C55.1424 33.0278 54.9634 29.9999 54.9634 29.9999C54.9634 29.9999 55.1994 26.9762 54.6052 22.5239Z" fill="#C1C5CF"/>
<path d="M14.2056 22.7031H18.7148C19.427 22.7031 20.0212 22.8211 20.6113 23.0572C21.2054 23.2932 21.6775 23.6514 22.0926 24.0665C22.5077 24.4816 22.8659 24.9577 23.1019 25.5478C23.3379 26.1379 23.456 26.7362 23.456 27.3873C23.456 28.0385 23.3379 28.6326 23.1019 29.2268C22.8659 29.821 22.5077 30.2971 22.0926 30.7122C21.6775 31.1273 21.1444 31.4855 20.6113 31.7215C20.0781 31.9576 19.4229 32.0797 18.7148 32.0797H16.6962V35.8156H14.2626V22.7031H14.2056ZM16.6393 24.9577V29.764H18.5357C18.8939 29.764 19.2479 29.703 19.545 29.5849C19.8421 29.4669 20.0781 29.2879 20.3182 29.0518C20.5543 28.8158 20.6723 28.5757 20.7944 28.2786C20.9124 27.9815 20.9735 27.6844 20.9735 27.3303C20.9735 26.9763 20.9124 26.6792 20.7944 26.3821C20.6764 26.085 20.4973 25.849 20.3182 25.6089C20.0822 25.3728 19.8421 25.1938 19.545 25.0757C19.2479 24.9577 18.8939 24.8967 18.5357 24.8967H16.6393V24.9577ZM29.0965 35.8115C28.4454 35.8115 27.8512 35.6935 27.2001 35.4575C26.6059 35.2214 26.0117 34.8633 25.5396 34.4482C25.0635 33.972 24.6484 33.4389 24.3513 32.7878C24.0542 32.1366 23.8751 31.3634 23.8751 30.5332C23.8751 29.703 23.9932 28.9297 24.2902 28.2786C24.5873 27.6274 25.0024 27.0902 25.4786 26.6181C25.9547 26.142 26.5448 25.8449 27.139 25.6089C27.7902 25.3728 28.3843 25.2507 29.0965 25.2507C29.8087 25.2507 30.4599 25.3688 30.993 25.6089C31.5872 25.8449 32.0593 26.203 32.4744 26.6181V25.2548H34.908V35.8156H32.4744V34.3342C32.1203 34.8104 31.5831 35.1645 30.993 35.4615C30.4029 35.6935 29.8087 35.8115 29.0965 35.8115ZM29.5116 33.618C29.9878 33.618 30.4029 33.5569 30.757 33.3819C31.111 33.2029 31.4691 33.0238 31.7662 32.7308C32.0633 32.4378 32.2424 32.1366 32.4174 31.7826C32.5965 31.4244 32.6534 31.0093 32.6534 30.5942C32.6534 30.1791 32.5924 29.764 32.4174 29.4059C32.2383 29.0518 32.0593 28.6937 31.7662 28.4576C31.4691 28.1606 31.1721 27.9815 30.757 27.8065C30.3419 27.5705 29.9267 27.5094 29.5116 27.5094C29.0965 27.5094 28.6814 27.5705 28.2663 27.7454C27.8512 27.9245 27.5541 28.0995 27.257 28.3966C26.96 28.6937 26.7239 28.9908 26.6059 29.3448C26.4268 29.6989 26.3699 30.1181 26.3699 30.5332C26.3699 30.9483 26.4309 31.3634 26.6059 31.7175C26.785 32.0756 27.021 32.4296 27.257 32.7267C27.5541 33.0238 27.9082 33.2029 28.2663 33.3779C28.6204 33.5 29.0355 33.618 29.5116 33.618ZM38.2899 25.3118L41.2567 32.4907L43.9875 25.3118H46.5392L40.3085 40.6178H37.8178L40.0114 35.3395L35.7382 25.3118H38.2899Z" fill="white"/>
</g>
<defs>
<clipPath id="clip0_201_2">
<rect width="50.0081" height="50" fill="white" transform="translate(5 5)"/>
</clipPath>
</defs>
</svg>
