<svg width="96" height="70" viewBox="0 0 96 70" fill="none" xmlns="http://www.w3.org/2000/svg">
<path d="M20.5714 0.625C9.21 0.625 0 9.66992 0 21.25C0 32.8301 9.21 41.875 20.5714 41.875C22.9886 41.875 25.275 41.3798 27.4286 40.6119V41.875C27.4286 49.459 21.2786 55.625 13.7143 55.625C9.92786 55.625 6.85714 58.7037 6.85714 62.5C6.85714 66.2963 9.92786 69.375 13.7143 69.375C28.8386 69.375 41.1429 57.0387 41.1429 41.875V21.25C41.1429 9.66992 31.9286 0.625 20.5714 0.625ZM96 21.25C96 9.85898 86.79 0.625 75.4286 0.625C64.0671 0.625 54.8571 9.85898 54.8571 21.25C54.8571 32.641 64.0671 41.875 75.4286 41.875C77.8457 41.875 80.1321 41.3798 82.2857 40.6119V41.875C82.2857 49.459 76.1357 55.625 68.5714 55.625C64.785 55.625 61.7143 58.7037 61.7143 62.5C61.7143 66.2963 64.785 69.375 68.5714 69.375C83.6957 69.375 96 57.0387 96 41.875V21.25Z" fill="#F6AA1C" fill-opacity="0.4"/>
</svg>
