<svg width="17" height="17" viewBox="0 0 17 17" fill="none" xmlns="http://www.w3.org/2000/svg">
<path d="M16.9867 1.22364L14.8617 15.0063C14.8119 15.3295 14.6168 15.6112 14.3314 15.7716C14.1706 15.8619 13.9904 15.9076 13.8108 15.9076C13.6717 15.9076 13.5346 15.8806 13.4027 15.8255L9.33202 14.1289L7.64331 16.6619C7.51382 16.8836 7.298 16.9998 7.06557 16.9998C6.68374 16.9998 6.37495 16.691 6.37495 16.3092V13.1157C6.37495 12.8794 6.45371 12.6498 6.5988 12.4636L13.8124 3.18727L4.06069 11.9629L0.653718 10.5418C0.280116 10.3857 0.026926 10.0338 0.00202362 9.5988C-0.0228787 9.16384 0.183612 8.81122 0.535266 8.61034L15.4103 0.140218C15.7652 -0.06262 16.2032 -0.0439599 16.5392 0.186902C16.8752 0.417763 17.0498 0.82055 16.9867 1.22364Z" fill="#AEAEAE"/>
</svg>
