<svg width="21" height="19" viewBox="0 0 21 19" fill="none" xmlns="http://www.w3.org/2000/svg">
<path d="M9.54894 0.927066C9.8483 0.00575542 11.1517 0.00575733 11.4511 0.927068L13.0819 5.94632C13.2158 6.35835 13.5997 6.63731 14.033 6.63731H19.3105C20.2792 6.63731 20.682 7.87692 19.8983 8.44632L15.6287 11.5484C15.2782 11.803 15.1315 12.2544 15.2654 12.6664L16.8963 17.6857C17.1956 18.607 16.1411 19.3731 15.3574 18.8037L11.0878 15.7016C10.7373 15.447 10.2627 15.447 9.91221 15.7016L5.64258 18.8037C4.85887 19.3731 3.80439 18.607 4.10374 17.6857L5.7346 12.6664C5.86847 12.2544 5.72181 11.803 5.37132 11.5484L1.10169 8.44632C0.317979 7.87692 0.720756 6.63731 1.68948 6.63731H6.96703C7.40026 6.63731 7.78421 6.35835 7.91809 5.94632L9.54894 0.927066Z" fill="#C4C4C4"/>
</svg>
