<svg width="17" height="18" viewBox="0 0 17 18" fill="none" xmlns="http://www.w3.org/2000/svg">
<path d="M8.55 17.1625C3.92449 17.1625 0.175003 13.413 0.175003 8.78751C0.175003 5.03718 2.63977 1.86306 6.0375 0.796081V2.57493C4.59778 3.15954 3.40591 4.22624 2.66578 5.59254C1.92565 6.95885 1.68324 8.53986 1.98003 10.0652C2.27682 11.5904 3.09435 12.9652 4.29279 13.9543C5.49123 14.9434 6.99611 15.4854 8.55 15.4875C9.88479 15.4875 11.1892 15.0889 12.296 14.3428C13.4028 13.5968 14.2617 12.5373 14.7626 11.3H16.5414C15.4745 14.6977 12.3003 17.1625 8.55 17.1625V17.1625ZM16.8831 9.62501H7.7125V0.454381C7.98804 0.426744 8.26777 0.412506 8.55 0.412506C13.1755 0.412506 16.925 4.16199 16.925 8.78751C16.925 9.06974 16.9108 9.34947 16.8831 9.62501ZM9.3875 2.13943V7.95001H15.1981C15.0117 6.474 14.3395 5.10195 13.2875 4.04997C12.2356 2.99798 10.8635 2.32585 9.3875 2.13943Z" fill="#9E47B6"/>
</svg>
