<svg width="15" height="20" viewBox="0 0 15 20" fill="none" xmlns="http://www.w3.org/2000/svg">
<path d="M13.125 5H11.252L11.2524 1.875C11.2524 0.839844 10.4126 0 9.37743 0H5.62743C4.59228 0 3.75243 0.839844 3.75243 1.875L3.75 5H1.875C0.839844 5 0 5.83984 0 6.875V16.875C0 17.9102 0.839844 18.75 1.875 18.75H2.50195L2.5 19.375C2.5 19.7227 2.77734 20 3.125 20H4.375C4.72266 20 5 19.7227 5 19.375L5.00391 18.75H10.0039L10 19.375C10 19.7217 10.2783 20 10.625 20H11.875C12.2217 20 12.5 19.7217 12.5 19.375L12.5019 18.75H13.125C14.1602 18.75 15 17.9102 15 16.875V6.875C15 5.83984 14.1602 5 13.125 5ZM5.62891 1.875H9.37891V5H5.62891V1.875V1.875ZM11.875 15H3.125C2.78125 15 2.5 14.7188 2.5 14.375C2.5 14.0312 2.78125 13.75 3.125 13.75H11.875C12.2188 13.75 12.5 14.0312 12.5 14.375C12.5 14.7188 12.2188 15 11.875 15ZM11.875 10H3.125C2.78125 10 2.5 9.71875 2.5 9.375C2.5 9.03125 2.78125 8.75 3.125 8.75H11.875C12.2188 8.75 12.5 9.03125 12.5 9.375C12.5 9.71875 12.2188 10 11.875 10Z" fill="#C4C4C4"/>
</svg>
