<svg width="60" height="60" viewBox="0 0 60 60" fill="none" xmlns="http://www.w3.org/2000/svg">
<path d="M0 18C0 8.05888 8.05888 0 18 0H42C51.9411 0 60 8.05888 60 18V42C60 51.9411 51.9411 60 42 60H18C8.05888 60 0 51.9411 0 42V18Z" fill="#F1F1F1"/>
<rect x="2" y="2" width="56" height="56" rx="15" fill="white"/>
<path d="M25.7445 27.1875C25.7445 25.907 24.7087 24.8721 23.4332 24.8721L22.3425 24.875C19.79 24.875 17.7199 26.9461 17.7199 29.5058V32.9594C17.7199 35.5197 19.7929 37.5938 22.3425 37.5938H23.4982C24.7737 37.5938 25.8095 36.556 25.8095 35.2769L25.7445 27.1875ZM30.4321 11C20.0962 11 12.2727 19.6068 11.9432 29.5L11.9417 32.3906C11.9417 33.3518 12.7181 34.125 13.6102 34.125C14.5022 34.125 15.4086 33.3518 15.4086 32.3906V29.5C15.4086 21.2111 22.1504 14.4832 30.4321 14.4832C38.7166 14.4832 45.4555 21.2111 45.4555 29.5V39.9062C45.4555 41.5026 44.1619 42.7969 42.5664 42.7969H34.5707C33.9712 41.7635 32.8662 41.0625 31.5877 41.0625H29.4064C27.73 41.0625 26.1923 42.1963 25.8766 43.844C25.4483 46.0633 27.1385 48 29.2114 48H31.5877C32.8676 48 33.9734 47.2982 34.5736 46.2656H42.5664C46.0767 46.2656 48.9224 43.4184 48.9224 39.9062V29.5C48.5902 19.6068 40.7679 11 30.4321 11ZM38.5216 37.5938C41.0741 37.5938 43.1442 35.5197 43.1442 32.9594V29.5072C43.1442 26.949 41.0713 24.875 38.5216 24.875H37.366C36.0904 24.875 35.0547 25.9113 35.0547 27.1904V35.274C35.0547 36.5604 36.0875 37.5938 37.366 37.5938H38.5216Z" fill="#C1C5CF"/>
</svg>
