<svg width="15" height="12" viewBox="0 0 15 12" fill="none" xmlns="http://www.w3.org/2000/svg">
<path fill-rule="evenodd" clip-rule="evenodd" d="M9.85192 5.67578C9.85192 7.06887 8.72244 8.19836 7.32934 8.19836C5.93625 8.19836 4.80676 7.06887 4.80676 5.67578C4.80676 4.28268 5.93625 3.1532 7.32934 3.1532C8.72244 3.1532 9.85192 4.28268 9.85192 5.67578ZM8.59063 5.67578C8.59063 6.37264 8.02621 6.93707 7.32934 6.93707C6.63311 6.93707 6.06805 6.37264 6.06805 5.67578C6.06805 4.97892 6.63311 4.41449 7.32934 4.41449C8.02621 4.41449 8.59063 4.97892 8.59063 5.67578Z" fill="#4A4B57"/>
<path fill-rule="evenodd" clip-rule="evenodd" d="M7.32936 0C10.8559 0 13.8187 2.41159 14.6587 5.67581C13.8187 8.94002 10.8559 11.3516 7.32936 11.3516C3.80343 11.3516 0.840019 8.94002 0 5.67581C0.840019 2.41159 3.80343 0 7.32936 0ZM7.32936 10.0903C4.50723 10.0903 2.11454 8.23496 1.3111 5.67581C2.11454 3.11665 4.50723 1.26129 7.32936 1.26129C10.1521 1.26129 12.5442 3.11665 13.3476 5.67581C12.5442 8.23496 10.1521 10.0903 7.32936 10.0903Z" fill="#4A4B57"/>
</svg>
