<svg width="23" height="20" viewBox="0 0 23 20" fill="none" xmlns="http://www.w3.org/2000/svg">
<g clip-path="url(#clip0_860_145)">
<path d="M20 1.25H2.5C1.11914 1.25 0 2.36914 0 3.75V16.25C0 17.6309 1.11914 18.75 2.5 18.75H20C21.3809 18.75 22.5 17.6309 22.5 16.25V3.75C22.5 2.36914 21.3789 1.25 20 1.25ZM6.875 5C8.25586 5 9.375 6.11914 9.375 7.5C9.375 8.88086 8.25586 10 6.875 10C5.49414 10 4.375 8.88086 4.375 7.5C4.375 6.11914 5.49609 5 6.875 5ZM10.625 15H3.125C2.77969 15 2.5 14.7188 2.5 14.375C2.5 12.6484 3.89922 11.25 5.625 11.25H8.125C9.85078 11.25 11.25 12.6492 11.25 14.375C11.25 14.7188 10.9688 15 10.625 15ZM19.375 12.5H14.375C14.0312 12.5 13.75 12.2188 13.75 11.875C13.75 11.5312 14.0312 11.25 14.375 11.25H19.375C19.7188 11.25 20 11.5312 20 11.875C20 12.2188 19.7188 12.5 19.375 12.5ZM19.375 10H14.375C14.0312 10 13.75 9.71875 13.75 9.375C13.75 9.03125 14.0312 8.75 14.375 8.75H19.375C19.7188 8.75 20 9.03125 20 9.375C20 9.71875 19.7188 10 19.375 10ZM19.375 7.5H14.375C14.0312 7.5 13.75 7.21875 13.75 6.875C13.75 6.53125 14.0312 6.25 14.375 6.25H19.375C19.7188 6.25 20 6.53125 20 6.875C20 7.21875 19.7188 7.5 19.375 7.5Z" fill="#1B1840"/>
</g>
<defs>
<clipPath id="clip0_860_145">
<rect width="22.5" height="20" fill="white"/>
</clipPath>
</defs>
</svg>
