<svg width="28" height="28" viewBox="0 0 28 28" fill="none" xmlns="http://www.w3.org/2000/svg">
<g id="Stockholm-icons / Shopping / Wallet">
<path id="Oval 47" opacity="0.3" fill-rule="evenodd" clip-rule="evenodd" d="M23.9166 16.3333C24.8831 16.3333 25.6666 15.5497 25.6666 14.5833C25.6666 13.6168 24.8831 12.8333 23.9166 12.8333C22.9501 12.8333 22.1666 13.6168 22.1666 14.5833C22.1666 15.5497 22.9501 16.3333 23.9166 16.3333Z" fill="#C4C4C4"/>
<rect id="Rectangle 162" opacity="0.3" x="2.80096" y="6.35669" width="21" height="8.16667" rx="1" transform="rotate(-15 2.80096 6.35669)" fill="#C4C4C4"/>
<path id="Combined Shape" fill-rule="evenodd" clip-rule="evenodd" d="M4.33331 4.66675C3.22874 4.66675 2.33331 5.56218 2.33331 6.66675V21.3334C2.33331 22.438 3.22874 23.3334 4.33331 23.3334H23.6666C24.7712 23.3334 25.6666 22.438 25.6666 21.3334V18.2738C25.1362 18.5258 24.5429 18.6667 23.9166 18.6667C21.6615 18.6667 19.8333 16.8386 19.8333 14.5834C19.8333 12.3283 21.6615 10.5001 23.9166 10.5001C24.5429 10.5001 25.1362 10.6411 25.6666 10.893V6.66675C25.6666 5.56218 24.7712 4.66675 23.6666 4.66675H4.33331Z" fill="#C4C4C4"/>
</g>
</svg>
