<svg width="12" height="9" viewBox="0 0 12 9" fill="none" xmlns="http://www.w3.org/2000/svg">
<path fill-rule="evenodd" clip-rule="evenodd" d="M11.8153 2.4054C11.8153 1.50226 11.0833 0.770264 10.1801 0.770264H2.5495C1.64636 0.770264 0.914368 1.50226 0.914368 2.4054V6.76576C0.914368 7.6689 1.64636 8.40089 2.5495 8.40089H10.1801C11.0833 8.40089 11.8153 7.6689 11.8153 6.76576V2.4054ZM5.81977 1.86035H2.5495C2.24864 1.86035 2.00446 2.10453 2.00446 2.4054V4.04053H5.81977V1.86035ZM6.90986 1.86035H10.1801C10.481 1.86035 10.7252 2.10453 10.7252 2.4054V4.04053H6.90986V1.86035ZM10.7252 5.13062V6.76576C10.7252 7.06662 10.481 7.3108 10.1801 7.3108H6.90986V5.13062H10.7252ZM5.81977 7.3108H2.5495C2.24864 7.3108 2.00446 7.06662 2.00446 6.76576V5.13062H5.81977V7.3108Z" fill="#C5F2C7"/>
</svg>
