<svg id="visual" viewBox="0 0 288 117" width="288" height="117" xmlns="http://www.w3.org/2000/svg" xmlns:xlink="http://www.w3.org/1999/xlink" version="1.1"><g stroke-width="1" stroke-linejoin="bevel"><path d="M130.9 70.2L130.9 46.8L104.7 70.2Z" fill="#2b3862" stroke="#2b3862"></path><path d="M130.9 46.8L104.7 46.8L104.7 70.2Z" fill="#5b4d8b" stroke="#5b4d8b"></path><path d="M130.9 23.4L104.7 23.4L104.7 46.8Z" fill="#8259a2" stroke="#8259a2"></path><path d="M104.7 70.2L104.7 93.6L130.9 70.2Z" fill="#0c2137" stroke="#0c2137"></path><path d="M130.9 46.8L130.9 23.4L104.7 46.8Z" fill="#4a467e" stroke="#4a467e"></path><path d="M104.7 93.6L130.9 93.6L130.9 70.2Z" fill="#0c2137" stroke="#0c2137"></path><path d="M104.7 23.4L78.5 46.8L104.7 46.8Z" fill="#2b3862" stroke="#2b3862"></path><path d="M104.7 46.8L78.5 70.2L104.7 70.2Z" fill="#4a467e" stroke="#4a467e"></path><path d="M104.7 70.2L78.5 70.2L104.7 93.6Z" fill="#2b3862" stroke="#2b3862"></path><path d="M78.5 46.8L78.5 70.2L104.7 46.8Z" fill="#2b3862" stroke="#2b3862"></path><path d="M130.9 93.6L157.1 70.2L130.9 70.2Z" fill="#0c2137" stroke="#0c2137"></path><path d="M130.9 70.2L157.1 46.8L130.9 46.8Z" fill="#6e5397" stroke="#6e5397"></path><path d="M130.9 46.8L157.1 46.8L130.9 23.4Z" fill="#0c2137" stroke="#0c2137"></path><path d="M157.1 70.2L157.1 46.8L130.9 70.2Z" fill="#142945" stroke="#142945"></path><path d="M104.7 23.4L78.5 23.4L78.5 46.8Z" fill="#00101c" stroke="#00101c"></path><path d="M78.5 70.2L78.5 93.6L104.7 93.6Z" fill="#2b3862" stroke="#2b3862"></path><path d="M130.9 93.6L157.1 93.6L157.1 70.2Z" fill="#6e5397" stroke="#6e5397"></path><path d="M157.1 46.8L157.1 23.4L130.9 23.4Z" fill="#4a467e" stroke="#4a467e"></path><path d="M130.9 0L104.7 0L104.7 23.4Z" fill="#5b4d8b" stroke="#5b4d8b"></path><path d="M104.7 23.4L104.7 0L78.5 23.4Z" fill="#5b4d8b" stroke="#5b4d8b"></path><path d="M130.9 0L104.7 23.4L130.9 23.4Z" fill="#00101c" stroke="#00101c"></path><path d="M157.1 23.4L130.9 0L130.9 23.4Z" fill="#2b3862" stroke="#2b3862"></path><path d="M104.7 93.6L130.9 117L130.9 93.6Z" fill="#1e3154" stroke="#1e3154"></path><path d="M130.9 93.6L130.9 117L157.1 93.6Z" fill="#5b4d8b" stroke="#5b4d8b"></path><path d="M104.7 117L130.9 117L104.7 93.6Z" fill="#00101c" stroke="#00101c"></path><path d="M78.5 93.6L104.7 117L104.7 93.6Z" fill="#071929" stroke="#071929"></path><path d="M78.5 23.4L52.4 46.8L78.5 46.8Z" fill="#1e3154" stroke="#1e3154"></path><path d="M78.5 46.8L52.4 46.8L78.5 70.2Z" fill="#2b3862" stroke="#2b3862"></path><path d="M78.5 70.2L52.4 70.2L78.5 93.6Z" fill="#5b4d8b" stroke="#5b4d8b"></path><path d="M52.4 46.8L52.4 70.2L78.5 70.2Z" fill="#071929" stroke="#071929"></path><path d="M183.3 70.2L157.1 46.8L157.1 70.2Z" fill="#071929" stroke="#071929"></path><path d="M183.3 70.2L183.3 46.8L157.1 46.8Z" fill="#1e3154" stroke="#1e3154"></path><path d="M157.1 46.8L183.3 46.8L157.1 23.4Z" fill="#0c2137" stroke="#0c2137"></path><path d="M157.1 93.6L183.3 70.2L157.1 70.2Z" fill="#5b4d8b" stroke="#5b4d8b"></path><path d="M104.7 0L78.5 0L78.5 23.4Z" fill="#6e5397" stroke="#6e5397"></path><path d="M78.5 23.4L52.4 23.4L52.4 46.8Z" fill="#2b3862" stroke="#2b3862"></path><path d="M183.3 23.4L157.1 0L157.1 23.4Z" fill="#00101c" stroke="#00101c"></path><path d="M157.1 23.4L157.1 0L130.9 0Z" fill="#071929" stroke="#071929"></path><path d="M52.4 93.6L78.5 117L78.5 93.6Z" fill="#6e5397" stroke="#6e5397"></path><path d="M78.5 93.6L78.5 117L104.7 117Z" fill="#071929" stroke="#071929"></path><path d="M130.9 117L157.1 117L157.1 93.6Z" fill="#4a467e" stroke="#4a467e"></path><path d="M157.1 93.6L183.3 93.6L183.3 70.2Z" fill="#8259a2" stroke="#8259a2"></path><path d="M78.5 0L52.4 23.4L78.5 23.4Z" fill="#071929" stroke="#071929"></path><path d="M52.4 70.2L52.4 93.6L78.5 93.6Z" fill="#2b3862" stroke="#2b3862"></path><path d="M183.3 46.8L183.3 23.4L157.1 23.4Z" fill="#3a3f70" stroke="#3a3f70"></path><path d="M157.1 117L183.3 93.6L157.1 93.6Z" fill="#071929" stroke="#071929"></path><path d="M78.5 0L52.4 0L52.4 23.4Z" fill="#6e5397" stroke="#6e5397"></path><path d="M52.4 93.6L52.4 117L78.5 117Z" fill="#8259a2" stroke="#8259a2"></path><path d="M183.3 23.4L183.3 0L157.1 0Z" fill="#0c2137" stroke="#0c2137"></path><path d="M157.1 117L183.3 117L183.3 93.6Z" fill="#00101c" stroke="#00101c"></path><path d="M26.2 23.4L26.2 46.8L52.4 23.4Z" fill="#1e3154" stroke="#1e3154"></path><path d="M52.4 23.4L26.2 46.8L52.4 46.8Z" fill="#142945" stroke="#142945"></path><path d="M52.4 46.8L26.2 46.8L52.4 70.2Z" fill="#00101c" stroke="#00101c"></path><path d="M52.4 70.2L26.2 70.2L52.4 93.6Z" fill="#071929" stroke="#071929"></path><path d="M52.4 93.6L26.2 93.6L52.4 117Z" fill="#142945" stroke="#142945"></path><path d="M26.2 46.8L26.2 70.2L52.4 70.2Z" fill="#4a467e" stroke="#4a467e"></path><path d="M183.3 70.2L209.5 46.8L183.3 46.8Z" fill="#00101c" stroke="#00101c"></path><path d="M183.3 46.8L209.5 46.8L183.3 23.4Z" fill="#8259a2" stroke="#8259a2"></path><path d="M183.3 23.4L209.5 23.4L183.3 0Z" fill="#3a3f70" stroke="#3a3f70"></path><path d="M183.3 93.6L209.5 70.2L183.3 70.2Z" fill="#2b3862" stroke="#2b3862"></path><path d="M209.5 93.6L209.5 70.2L183.3 93.6Z" fill="#1e3154" stroke="#1e3154"></path><path d="M209.5 70.2L209.5 46.8L183.3 70.2Z" fill="#1e3154" stroke="#1e3154"></path><path d="M26.2 70.2L26.2 93.6L52.4 93.6Z" fill="#142945" stroke="#142945"></path><path d="M52.4 0L26.2 23.4L52.4 23.4Z" fill="#142945" stroke="#142945"></path><path d="M183.3 117L209.5 93.6L183.3 93.6Z" fill="#3a3f70" stroke="#3a3f70"></path><path d="M209.5 46.8L209.5 23.4L183.3 23.4Z" fill="#071929" stroke="#071929"></path><path d="M26.2 93.6L26.2 117L52.4 117Z" fill="#142945" stroke="#142945"></path><path d="M52.4 0L26.2 0L26.2 23.4Z" fill="#00101c" stroke="#00101c"></path><path d="M209.5 23.4L209.5 0L183.3 0Z" fill="#5b4d8b" stroke="#5b4d8b"></path><path d="M183.3 117L209.5 117L209.5 93.6Z" fill="#6e5397" stroke="#6e5397"></path><path d="M26.2 70.2L0 70.2L26.2 93.6Z" fill="#8259a2" stroke="#8259a2"></path><path d="M26.2 93.6L0 93.6L26.2 117Z" fill="#071929" stroke="#071929"></path><path d="M26.2 46.8L0 70.2L26.2 70.2Z" fill="#3a3f70" stroke="#3a3f70"></path><path d="M0 46.8L0 70.2L26.2 46.8Z" fill="#1e3154" stroke="#1e3154"></path><path d="M0 46.8L26.2 46.8L26.2 23.4Z" fill="#00101c" stroke="#00101c"></path><path d="M0 23.4L0 46.8L26.2 23.4Z" fill="#0c2137" stroke="#0c2137"></path><path d="M235.6 70.2L235.6 46.8L209.5 46.8Z" fill="#3a3f70" stroke="#3a3f70"></path><path d="M209.5 46.8L235.6 46.8L209.5 23.4Z" fill="#2b3862" stroke="#2b3862"></path><path d="M209.5 23.4L235.6 23.4L209.5 0Z" fill="#8259a2" stroke="#8259a2"></path><path d="M235.6 70.2L209.5 46.8L209.5 70.2Z" fill="#6e5397" stroke="#6e5397"></path><path d="M235.6 70.2L209.5 70.2L209.5 93.6Z" fill="#2b3862" stroke="#2b3862"></path><path d="M235.6 93.6L235.6 70.2L209.5 93.6Z" fill="#5b4d8b" stroke="#5b4d8b"></path><path d="M26.2 0L0 23.4L26.2 23.4Z" fill="#4a467e" stroke="#4a467e"></path><path d="M0 70.2L0 93.6L26.2 93.6Z" fill="#00101c" stroke="#00101c"></path><path d="M209.5 117L235.6 93.6L209.5 93.6Z" fill="#2b3862" stroke="#2b3862"></path><path d="M235.6 46.8L235.6 23.4L209.5 23.4Z" fill="#0c2137" stroke="#0c2137"></path><path d="M0 93.6L0 117L26.2 117Z" fill="#1e3154" stroke="#1e3154"></path><path d="M26.2 0L0 0L0 23.4Z" fill="#3a3f70" stroke="#3a3f70"></path><path d="M235.6 23.4L235.6 0L209.5 0Z" fill="#3a3f70" stroke="#3a3f70"></path><path d="M209.5 117L235.6 117L235.6 93.6Z" fill="#8259a2" stroke="#8259a2"></path><path d="M235.6 70.2L261.8 46.8L235.6 46.8Z" fill="#1e3154" stroke="#1e3154"></path><path d="M235.6 46.8L261.8 46.8L235.6 23.4Z" fill="#142945" stroke="#142945"></path><path d="M235.6 23.4L261.8 23.4L235.6 0Z" fill="#071929" stroke="#071929"></path><path d="M235.6 93.6L261.8 70.2L235.6 70.2Z" fill="#2b3862" stroke="#2b3862"></path><path d="M261.8 93.6L261.8 70.2L235.6 93.6Z" fill="#2b3862" stroke="#2b3862"></path><path d="M261.8 70.2L261.8 46.8L235.6 70.2Z" fill="#1e3154" stroke="#1e3154"></path><path d="M261.8 46.8L261.8 23.4L235.6 23.4Z" fill="#4a467e" stroke="#4a467e"></path><path d="M235.6 117L261.8 93.6L235.6 93.6Z" fill="#1e3154" stroke="#1e3154"></path><path d="M235.6 117L261.8 117L261.8 93.6Z" fill="#4a467e" stroke="#4a467e"></path><path d="M261.8 23.4L261.8 0L235.6 0Z" fill="#142945" stroke="#142945"></path><path d="M261.8 46.8L288 46.8L261.8 23.4Z" fill="#142945" stroke="#142945"></path><path d="M261.8 23.4L288 23.4L261.8 0Z" fill="#2b3862" stroke="#2b3862"></path><path d="M288 70.2L288 46.8L261.8 46.8Z" fill="#0c2137" stroke="#0c2137"></path><path d="M288 70.2L261.8 46.8L261.8 70.2Z" fill="#4a467e" stroke="#4a467e"></path><path d="M288 70.2L261.8 70.2L261.8 93.6Z" fill="#6e5397" stroke="#6e5397"></path><path d="M288 93.6L288 70.2L261.8 93.6Z" fill="#6e5397" stroke="#6e5397"></path><path d="M261.8 117L288 93.6L261.8 93.6Z" fill="#071929" stroke="#071929"></path><path d="M288 46.8L288 23.4L261.8 23.4Z" fill="#6e5397" stroke="#6e5397"></path><path d="M288 23.4L288 0L261.8 0Z" fill="#00101c" stroke="#00101c"></path><path d="M261.8 117L288 117L288 93.6Z" fill="#2b3862" stroke="#2b3862"></path></g></svg>