<svg id="visual" viewBox="0 0 288 117" width="288" height="117" xmlns="http://www.w3.org/2000/svg" xmlns:xlink="http://www.w3.org/1999/xlink" version="1.1"><g stroke-width="1" stroke-linejoin="bevel"><path d="M153.6 50.1L153.6 33.4L134.4 33.4Z" fill="#c0b65e" stroke="#c0b65e"></path><path d="M134.4 50.1L153.6 50.1L134.4 33.4Z" fill="#00494f" stroke="#00494f"></path><path d="M153.6 33.4L134.4 16.7L134.4 33.4Z" fill="#00494f" stroke="#00494f"></path><path d="M153.6 16.7L134.4 16.7L153.6 33.4Z" fill="#005d58" stroke="#005d58"></path><path d="M134.4 66.9L153.6 66.9L153.6 50.1Z" fill="#00101c" stroke="#00101c"></path><path d="M134.4 50.1L134.4 66.9L153.6 50.1Z" fill="#c0b65e" stroke="#c0b65e"></path><path d="M172.8 50.1L153.6 33.4L153.6 50.1Z" fill="#c0b65e" stroke="#c0b65e"></path><path d="M172.8 50.1L172.8 33.4L153.6 33.4Z" fill="#f1c26a" stroke="#f1c26a"></path><path d="M153.6 33.4L172.8 16.7L153.6 16.7Z" fill="#1e715c" stroke="#1e715c"></path><path d="M172.8 66.9L172.8 50.1L153.6 50.1Z" fill="#00494f" stroke="#00494f"></path><path d="M115.2 16.7L115.2 33.4L134.4 33.4Z" fill="#43855c" stroke="#43855c"></path><path d="M134.4 33.4L115.2 50.1L134.4 50.1Z" fill="#69975b" stroke="#69975b"></path><path d="M134.4 50.1L115.2 66.9L134.4 66.9Z" fill="#93a85a" stroke="#93a85a"></path><path d="M115.2 33.4L115.2 50.1L134.4 33.4Z" fill="#00494f" stroke="#00494f"></path><path d="M172.8 33.4L172.8 16.7L153.6 33.4Z" fill="#43855c" stroke="#43855c"></path><path d="M153.6 66.9L172.8 66.9L153.6 50.1Z" fill="#69975b" stroke="#69975b"></path><path d="M134.4 16.7L115.2 16.7L134.4 33.4Z" fill="#012230" stroke="#012230"></path><path d="M115.2 50.1L115.2 66.9L134.4 50.1Z" fill="#00494f" stroke="#00494f"></path><path d="M172.8 0L153.6 0L153.6 16.7Z" fill="#c0b65e" stroke="#c0b65e"></path><path d="M153.6 16.7L134.4 0L134.4 16.7Z" fill="#f1c26a" stroke="#f1c26a"></path><path d="M134.4 16.7L115.2 0L115.2 16.7Z" fill="#005d58" stroke="#005d58"></path><path d="M153.6 0L134.4 0L153.6 16.7Z" fill="#f1c26a" stroke="#f1c26a"></path><path d="M134.4 66.9L153.6 83.6L153.6 66.9Z" fill="#1e715c" stroke="#1e715c"></path><path d="M153.6 66.9L153.6 83.6L172.8 66.9Z" fill="#00101c" stroke="#00101c"></path><path d="M134.4 83.6L153.6 83.6L134.4 66.9Z" fill="#f1c26a" stroke="#f1c26a"></path><path d="M115.2 83.6L134.4 83.6L134.4 66.9Z" fill="#00101c" stroke="#00101c"></path><path d="M192 50.1L192 33.4L172.8 33.4Z" fill="#43855c" stroke="#43855c"></path><path d="M172.8 33.4L192 16.7L172.8 16.7Z" fill="#69975b" stroke="#69975b"></path><path d="M172.8 16.7L172.8 0L153.6 16.7Z" fill="#005d58" stroke="#005d58"></path><path d="M192 50.1L172.8 33.4L172.8 50.1Z" fill="#00101c" stroke="#00101c"></path><path d="M96 16.7L96 33.4L115.2 33.4Z" fill="#93a85a" stroke="#93a85a"></path><path d="M115.2 33.4L96 50.1L115.2 50.1Z" fill="#003541" stroke="#003541"></path><path d="M115.2 50.1L96 66.9L115.2 66.9Z" fill="#69975b" stroke="#69975b"></path><path d="M192 66.9L172.8 50.1L172.8 66.9Z" fill="#003541" stroke="#003541"></path><path d="M192 66.9L192 50.1L172.8 50.1Z" fill="#00101c" stroke="#00101c"></path><path d="M96 33.4L96 50.1L115.2 33.4Z" fill="#1e715c" stroke="#1e715c"></path><path d="M192 0L172.8 0L172.8 16.7Z" fill="#93a85a" stroke="#93a85a"></path><path d="M153.6 83.6L172.8 83.6L172.8 66.9Z" fill="#93a85a" stroke="#93a85a"></path><path d="M134.4 0L115.2 0L134.4 16.7Z" fill="#93a85a" stroke="#93a85a"></path><path d="M115.2 16.7L96 16.7L115.2 33.4Z" fill="#43855c" stroke="#43855c"></path><path d="M96 66.9L115.2 83.6L115.2 66.9Z" fill="#003541" stroke="#003541"></path><path d="M115.2 66.9L115.2 83.6L134.4 66.9Z" fill="#012230" stroke="#012230"></path><path d="M96 0L96 16.7L115.2 16.7Z" fill="#1e715c" stroke="#1e715c"></path><path d="M192 33.4L192 16.7L172.8 33.4Z" fill="#1e715c" stroke="#1e715c"></path><path d="M192 83.6L192 66.9L172.8 66.9Z" fill="#00101c" stroke="#00101c"></path><path d="M96 50.1L96 66.9L115.2 50.1Z" fill="#43855c" stroke="#43855c"></path><path d="M115.2 83.6L134.4 100.3L134.4 83.6Z" fill="#005d58" stroke="#005d58"></path><path d="M134.4 83.6L153.6 100.3L153.6 83.6Z" fill="#93a85a" stroke="#93a85a"></path><path d="M153.6 83.6L172.8 100.3L172.8 83.6Z" fill="#f1c26a" stroke="#f1c26a"></path><path d="M134.4 100.3L153.6 100.3L134.4 83.6Z" fill="#c0b65e" stroke="#c0b65e"></path><path d="M172.8 83.6L192 83.6L172.8 66.9Z" fill="#005d58" stroke="#005d58"></path><path d="M115.2 0L96 0L115.2 16.7Z" fill="#c0b65e" stroke="#c0b65e"></path><path d="M192 16.7L192 0L172.8 16.7Z" fill="#00101c" stroke="#00101c"></path><path d="M172.8 100.3L192 83.6L172.8 83.6Z" fill="#c0b65e" stroke="#c0b65e"></path><path d="M96 66.9L96 83.6L115.2 83.6Z" fill="#003541" stroke="#003541"></path><path d="M115.2 83.6L115.2 100.3L134.4 100.3Z" fill="#f1c26a" stroke="#f1c26a"></path><path d="M153.6 100.3L172.8 100.3L153.6 83.6Z" fill="#012230" stroke="#012230"></path><path d="M96 100.3L115.2 100.3L115.2 83.6Z" fill="#00494f" stroke="#00494f"></path><path d="M211.2 50.1L211.2 33.4L192 33.4Z" fill="#003541" stroke="#003541"></path><path d="M192 33.4L211.2 16.7L192 16.7Z" fill="#005d58" stroke="#005d58"></path><path d="M192 16.7L211.2 0L192 0Z" fill="#00101c" stroke="#00101c"></path><path d="M211.2 50.1L192 33.4L192 50.1Z" fill="#c0b65e" stroke="#c0b65e"></path><path d="M211.2 50.1L192 50.1L211.2 66.9Z" fill="#43855c" stroke="#43855c"></path><path d="M211.2 66.9L192 50.1L192 66.9Z" fill="#005d58" stroke="#005d58"></path><path d="M96 33.4L76.8 50.1L96 50.1Z" fill="#00101c" stroke="#00101c"></path><path d="M96 50.1L76.8 50.1L96 66.9Z" fill="#1e715c" stroke="#1e715c"></path><path d="M96 66.9L76.8 66.9L96 83.6Z" fill="#00101c" stroke="#00101c"></path><path d="M76.8 33.4L76.8 50.1L96 33.4Z" fill="#f1c26a" stroke="#f1c26a"></path><path d="M76.8 33.4L96 33.4L96 16.7Z" fill="#003541" stroke="#003541"></path><path d="M76.8 16.7L76.8 33.4L96 16.7Z" fill="#003541" stroke="#003541"></path><path d="M192 83.6L211.2 66.9L192 66.9Z" fill="#c0b65e" stroke="#c0b65e"></path><path d="M211.2 33.4L211.2 16.7L192 33.4Z" fill="#93a85a" stroke="#93a85a"></path><path d="M76.8 50.1L76.8 66.9L96 66.9Z" fill="#005d58" stroke="#005d58"></path><path d="M96 0L76.8 16.7L96 16.7Z" fill="#69975b" stroke="#69975b"></path><path d="M76.8 83.6L96 100.3L96 83.6Z" fill="#1e715c" stroke="#1e715c"></path><path d="M96 83.6L96 100.3L115.2 83.6Z" fill="#00494f" stroke="#00494f"></path><path d="M172.8 100.3L192 100.3L192 83.6Z" fill="#00494f" stroke="#00494f"></path><path d="M192 83.6L211.2 83.6L211.2 66.9Z" fill="#c0b65e" stroke="#c0b65e"></path><path d="M153.6 100.3L172.8 117L172.8 100.3Z" fill="#43855c" stroke="#43855c"></path><path d="M172.8 100.3L172.8 117L192 100.3Z" fill="#00494f" stroke="#00494f"></path><path d="M134.4 117L153.6 117L153.6 100.3Z" fill="#69975b" stroke="#69975b"></path><path d="M134.4 117L153.6 100.3L134.4 100.3Z" fill="#c0b65e" stroke="#c0b65e"></path><path d="M134.4 117L134.4 100.3L115.2 100.3Z" fill="#f1c26a" stroke="#f1c26a"></path><path d="M115.2 117L134.4 117L115.2 100.3Z" fill="#1e715c" stroke="#1e715c"></path><path d="M211.2 16.7L211.2 0L192 16.7Z" fill="#00101c" stroke="#00101c"></path><path d="M96 0L76.8 0L76.8 16.7Z" fill="#003541" stroke="#003541"></path><path d="M211.2 100.3L211.2 83.6L192 83.6Z" fill="#00101c" stroke="#00101c"></path><path d="M76.8 66.9L76.8 83.6L96 83.6Z" fill="#f1c26a" stroke="#f1c26a"></path><path d="M153.6 117L172.8 117L153.6 100.3Z" fill="#43855c" stroke="#43855c"></path><path d="M96 117L115.2 117L115.2 100.3Z" fill="#93a85a" stroke="#93a85a"></path><path d="M96 117L115.2 100.3L96 100.3Z" fill="#c0b65e" stroke="#c0b65e"></path><path d="M211.2 33.4L230.4 16.7L211.2 16.7Z" fill="#1e715c" stroke="#1e715c"></path><path d="M211.2 16.7L230.4 0L211.2 0Z" fill="#012230" stroke="#012230"></path><path d="M230.4 50.1L230.4 33.4L211.2 33.4Z" fill="#1e715c" stroke="#1e715c"></path><path d="M230.4 50.1L211.2 33.4L211.2 50.1Z" fill="#93a85a" stroke="#93a85a"></path><path d="M230.4 50.1L211.2 50.1L230.4 66.9Z" fill="#f1c26a" stroke="#f1c26a"></path><path d="M230.4 66.9L211.2 50.1L211.2 66.9Z" fill="#43855c" stroke="#43855c"></path><path d="M76.8 50.1L57.6 50.1L76.8 66.9Z" fill="#00494f" stroke="#00494f"></path><path d="M76.8 66.9L57.6 66.9L76.8 83.6Z" fill="#43855c" stroke="#43855c"></path><path d="M76.8 33.4L57.6 50.1L76.8 50.1Z" fill="#c0b65e" stroke="#c0b65e"></path><path d="M57.6 33.4L57.6 50.1L76.8 33.4Z" fill="#93a85a" stroke="#93a85a"></path><path d="M57.6 33.4L76.8 33.4L76.8 16.7Z" fill="#c0b65e" stroke="#c0b65e"></path><path d="M57.6 16.7L57.6 33.4L76.8 16.7Z" fill="#69975b" stroke="#69975b"></path><path d="M192 100.3L211.2 100.3L192 83.6Z" fill="#00101c" stroke="#00101c"></path><path d="M211.2 83.6L230.4 66.9L211.2 66.9Z" fill="#1e715c" stroke="#1e715c"></path><path d="M211.2 117L211.2 100.3L192 100.3Z" fill="#c0b65e" stroke="#c0b65e"></path><path d="M57.6 83.6L76.8 100.3L76.8 83.6Z" fill="#003541" stroke="#003541"></path><path d="M76.8 83.6L76.8 100.3L96 100.3Z" fill="#93a85a" stroke="#93a85a"></path><path d="M76.8 100.3L96 117L96 100.3Z" fill="#93a85a" stroke="#93a85a"></path><path d="M172.8 117L192 117L192 100.3Z" fill="#005d58" stroke="#005d58"></path><path d="M230.4 83.6L230.4 66.9L211.2 83.6Z" fill="#93a85a" stroke="#93a85a"></path><path d="M230.4 33.4L230.4 16.7L211.2 33.4Z" fill="#00494f" stroke="#00494f"></path><path d="M76.8 0L57.6 16.7L76.8 16.7Z" fill="#1e715c" stroke="#1e715c"></path><path d="M57.6 50.1L57.6 66.9L76.8 66.9Z" fill="#1e715c" stroke="#1e715c"></path><path d="M230.4 16.7L230.4 0L211.2 16.7Z" fill="#003541" stroke="#003541"></path><path d="M230.4 100.3L230.4 83.6L211.2 83.6Z" fill="#93a85a" stroke="#93a85a"></path><path d="M76.8 0L57.6 0L57.6 16.7Z" fill="#012230" stroke="#012230"></path><path d="M57.6 66.9L57.6 83.6L76.8 83.6Z" fill="#c0b65e" stroke="#c0b65e"></path><path d="M192 117L211.2 117L192 100.3Z" fill="#69975b" stroke="#69975b"></path><path d="M211.2 100.3L230.4 100.3L211.2 83.6Z" fill="#c0b65e" stroke="#c0b65e"></path><path d="M57.6 100.3L76.8 117L76.8 100.3Z" fill="#012230" stroke="#012230"></path><path d="M76.8 100.3L76.8 117L96 117Z" fill="#00494f" stroke="#00494f"></path><path d="M230.4 117L230.4 100.3L211.2 100.3Z" fill="#f1c26a" stroke="#f1c26a"></path><path d="M57.6 83.6L57.6 100.3L76.8 100.3Z" fill="#f1c26a" stroke="#f1c26a"></path><path d="M249.6 66.9L230.4 66.9L249.6 83.6Z" fill="#1e715c" stroke="#1e715c"></path><path d="M249.6 66.9L230.4 50.1L230.4 66.9Z" fill="#012230" stroke="#012230"></path><path d="M249.6 66.9L249.6 50.1L230.4 50.1Z" fill="#69975b" stroke="#69975b"></path><path d="M230.4 50.1L249.6 33.4L230.4 33.4Z" fill="#00101c" stroke="#00101c"></path><path d="M230.4 33.4L249.6 16.7L230.4 16.7Z" fill="#00101c" stroke="#00101c"></path><path d="M230.4 16.7L249.6 0L230.4 0Z" fill="#003541" stroke="#003541"></path><path d="M249.6 50.1L249.6 33.4L230.4 50.1Z" fill="#003541" stroke="#003541"></path><path d="M57.6 66.9L38.4 66.9L57.6 83.6Z" fill="#f1c26a" stroke="#f1c26a"></path><path d="M57.6 83.6L38.4 100.3L57.6 100.3Z" fill="#1e715c" stroke="#1e715c"></path><path d="M57.6 50.1L38.4 50.1L57.6 66.9Z" fill="#00494f" stroke="#00494f"></path><path d="M57.6 33.4L38.4 50.1L57.6 50.1Z" fill="#00494f" stroke="#00494f"></path><path d="M38.4 33.4L38.4 50.1L57.6 33.4Z" fill="#69975b" stroke="#69975b"></path><path d="M38.4 33.4L57.6 33.4L57.6 16.7Z" fill="#f1c26a" stroke="#f1c26a"></path><path d="M38.4 16.7L38.4 33.4L57.6 16.7Z" fill="#005d58" stroke="#005d58"></path><path d="M249.6 83.6L230.4 66.9L230.4 83.6Z" fill="#43855c" stroke="#43855c"></path><path d="M249.6 33.4L249.6 16.7L230.4 33.4Z" fill="#003541" stroke="#003541"></path><path d="M57.6 0L38.4 16.7L57.6 16.7Z" fill="#005d58" stroke="#005d58"></path><path d="M38.4 50.1L38.4 66.9L57.6 66.9Z" fill="#005d58" stroke="#005d58"></path><path d="M249.6 16.7L249.6 0L230.4 16.7Z" fill="#f1c26a" stroke="#f1c26a"></path><path d="M57.6 0L38.4 0L38.4 16.7Z" fill="#1e715c" stroke="#1e715c"></path><path d="M38.4 66.9L38.4 83.6L57.6 83.6Z" fill="#00101c" stroke="#00101c"></path><path d="M230.4 100.3L249.6 83.6L230.4 83.6Z" fill="#c0b65e" stroke="#c0b65e"></path><path d="M249.6 100.3L249.6 83.6L230.4 100.3Z" fill="#1e715c" stroke="#1e715c"></path><path d="M211.2 117L230.4 117L211.2 100.3Z" fill="#c0b65e" stroke="#c0b65e"></path><path d="M38.4 117L57.6 117L57.6 100.3Z" fill="#43855c" stroke="#43855c"></path><path d="M57.6 100.3L57.6 117L76.8 117Z" fill="#f1c26a" stroke="#f1c26a"></path><path d="M230.4 117L249.6 100.3L230.4 100.3Z" fill="#00101c" stroke="#00101c"></path><path d="M38.4 83.6L38.4 100.3L57.6 83.6Z" fill="#69975b" stroke="#69975b"></path><path d="M19.2 16.7L19.2 33.4L38.4 16.7Z" fill="#f1c26a" stroke="#f1c26a"></path><path d="M38.4 16.7L19.2 33.4L38.4 33.4Z" fill="#f1c26a" stroke="#f1c26a"></path><path d="M38.4 33.4L19.2 33.4L38.4 50.1Z" fill="#43855c" stroke="#43855c"></path><path d="M38.4 50.1L19.2 50.1L38.4 66.9Z" fill="#f1c26a" stroke="#f1c26a"></path><path d="M38.4 66.9L19.2 66.9L38.4 83.6Z" fill="#43855c" stroke="#43855c"></path><path d="M38.4 83.6L19.2 83.6L38.4 100.3Z" fill="#f1c26a" stroke="#f1c26a"></path><path d="M19.2 33.4L19.2 50.1L38.4 50.1Z" fill="#69975b" stroke="#69975b"></path><path d="M249.6 33.4L268.8 16.7L249.6 16.7Z" fill="#93a85a" stroke="#93a85a"></path><path d="M249.6 16.7L268.8 0L249.6 0Z" fill="#00494f" stroke="#00494f"></path><path d="M268.8 50.1L268.8 33.4L249.6 33.4Z" fill="#005d58" stroke="#005d58"></path><path d="M268.8 50.1L249.6 33.4L249.6 50.1Z" fill="#00494f" stroke="#00494f"></path><path d="M268.8 50.1L249.6 50.1L268.8 66.9Z" fill="#00494f" stroke="#00494f"></path><path d="M249.6 50.1L249.6 66.9L268.8 66.9Z" fill="#c0b65e" stroke="#c0b65e"></path><path d="M268.8 66.9L249.6 66.9L268.8 83.6Z" fill="#c0b65e" stroke="#c0b65e"></path><path d="M19.2 50.1L19.2 66.9L38.4 66.9Z" fill="#012230" stroke="#012230"></path><path d="M38.4 0L19.2 16.7L38.4 16.7Z" fill="#012230" stroke="#012230"></path><path d="M268.8 83.6L249.6 66.9L249.6 83.6Z" fill="#005d58" stroke="#005d58"></path><path d="M268.8 33.4L268.8 16.7L249.6 33.4Z" fill="#93a85a" stroke="#93a85a"></path><path d="M19.2 100.3L38.4 117L38.4 100.3Z" fill="#00101c" stroke="#00101c"></path><path d="M38.4 100.3L38.4 117L57.6 100.3Z" fill="#43855c" stroke="#43855c"></path><path d="M230.4 117L249.6 117L249.6 100.3Z" fill="#69975b" stroke="#69975b"></path><path d="M249.6 100.3L268.8 83.6L249.6 83.6Z" fill="#f1c26a" stroke="#f1c26a"></path><path d="M19.2 66.9L19.2 83.6L38.4 83.6Z" fill="#012230" stroke="#012230"></path><path d="M38.4 0L19.2 0L19.2 16.7Z" fill="#69975b" stroke="#69975b"></path><path d="M268.8 100.3L268.8 83.6L249.6 100.3Z" fill="#1e715c" stroke="#1e715c"></path><path d="M268.8 16.7L268.8 0L249.6 16.7Z" fill="#69975b" stroke="#69975b"></path><path d="M19.2 83.6L19.2 100.3L38.4 100.3Z" fill="#1e715c" stroke="#1e715c"></path><path d="M249.6 117L268.8 100.3L249.6 100.3Z" fill="#005d58" stroke="#005d58"></path><path d="M268.8 33.4L288 16.7L268.8 16.7Z" fill="#f1c26a" stroke="#f1c26a"></path><path d="M268.8 16.7L288 0L268.8 0Z" fill="#1e715c" stroke="#1e715c"></path><path d="M288 50.1L288 33.4L268.8 33.4Z" fill="#c0b65e" stroke="#c0b65e"></path><path d="M288 50.1L268.8 33.4L268.8 50.1Z" fill="#012230" stroke="#012230"></path><path d="M288 50.1L268.8 50.1L288 66.9Z" fill="#00101c" stroke="#00101c"></path><path d="M268.8 50.1L268.8 66.9L288 66.9Z" fill="#43855c" stroke="#43855c"></path><path d="M19.2 66.9L0 66.9L19.2 83.6Z" fill="#00101c" stroke="#00101c"></path><path d="M19.2 83.6L0 83.6L19.2 100.3Z" fill="#1e715c" stroke="#1e715c"></path><path d="M19.2 50.1L0 50.1L19.2 66.9Z" fill="#f1c26a" stroke="#f1c26a"></path><path d="M19.2 33.4L0 50.1L19.2 50.1Z" fill="#012230" stroke="#012230"></path><path d="M0 33.4L0 50.1L19.2 33.4Z" fill="#00494f" stroke="#00494f"></path><path d="M0 33.4L19.2 33.4L19.2 16.7Z" fill="#00101c" stroke="#00101c"></path><path d="M0 16.7L0 33.4L19.2 16.7Z" fill="#1e715c" stroke="#1e715c"></path><path d="M288 66.9L268.8 66.9L268.8 83.6Z" fill="#00101c" stroke="#00101c"></path><path d="M19.2 100.3L19.2 117L38.4 117Z" fill="#005d58" stroke="#005d58"></path><path d="M0 100.3L19.2 117L19.2 100.3Z" fill="#012230" stroke="#012230"></path><path d="M249.6 117L268.8 117L268.8 100.3Z" fill="#005d58" stroke="#005d58"></path><path d="M288 83.6L288 66.9L268.8 83.6Z" fill="#012230" stroke="#012230"></path><path d="M0 50.1L0 66.9L19.2 66.9Z" fill="#1e715c" stroke="#1e715c"></path><path d="M19.2 0L0 16.7L19.2 16.7Z" fill="#f1c26a" stroke="#f1c26a"></path><path d="M288 83.6L268.8 83.6L288 100.3Z" fill="#005d58" stroke="#005d58"></path><path d="M288 33.4L288 16.7L268.8 33.4Z" fill="#1e715c" stroke="#1e715c"></path><path d="M19.2 0L0 0L0 16.7Z" fill="#69975b" stroke="#69975b"></path><path d="M288 100.3L268.8 83.6L268.8 100.3Z" fill="#00494f" stroke="#00494f"></path><path d="M0 66.9L0 83.6L19.2 83.6Z" fill="#005d58" stroke="#005d58"></path><path d="M288 16.7L288 0L268.8 16.7Z" fill="#1e715c" stroke="#1e715c"></path><path d="M288 117L288 100.3L268.8 100.3Z" fill="#f1c26a" stroke="#f1c26a"></path><path d="M0 83.6L0 100.3L19.2 100.3Z" fill="#00101c" stroke="#00101c"></path><path d="M0 100.3L0 117L19.2 117Z" fill="#43855c" stroke="#43855c"></path><path d="M268.8 117L288 117L268.8 100.3Z" fill="#1e715c" stroke="#1e715c"></path></g></svg>